%FSLAX42Y42*%
%MOMM*%
G71*
G01*
G75*
%ADD10C,0.45*%
%ADD11R,0.30X1.60*%
%ADD12R,0.60X0.50*%
%ADD13R,0.50X0.60*%
%ADD14R,1.20X1.50*%
%ADD15R,1.50X1.20*%
%ADD16R,0.80X0.90*%
%ADD17R,1.60X0.30*%
%ADD18R,1.95X3.40*%
%ADD19R,1.95X1.10*%
%ADD20R,1.45X0.55*%
%ADD21R,0.90X0.80*%
%ADD22R,2.60X2.40*%
%ADD23R,1.00X2.50*%
%ADD24R,2.50X6.00*%
%ADD25R,3.50X3.20*%
%ADD26R,4.50X1.50*%
%ADD27R,1.50X0.35*%
%ADD28C,0.15*%
%ADD29C,0.25*%
%ADD30C,0.15*%
%ADD31C,0.13*%
%ADD32C,0.18*%
%ADD33C,0.30*%
%ADD34C,0.40*%
%ADD35R,0.35X1.60*%
%ADD36C,0.80*%
%ADD37C,1.10*%
%ADD38O,0.35X1.60*%
%ADD39R,0.95X1.00*%
%ADD40R,1.15X0.35*%
%ADD41R,1.15X0.35*%
%ADD42R,1.65X0.30*%
%ADD43R,0.30X1.00*%
%ADD44O,0.30X1.00*%
%ADD45R,0.40X1.55*%
%ADD46R,0.40X2.20*%
%ADD47C,0.25*%
%ADD48C,0.20*%
%ADD49C,0.10*%
D29*
X7390Y2340D02*
X7540Y2490D01*
X7330D02*
Y2770D01*
X3490Y2490D02*
X7330D01*
X3490D02*
Y2770D01*
X7330D01*
X7390Y5260D02*
X7540Y5410D01*
X7330D02*
Y5690D01*
X3490Y5410D02*
X7330D01*
X3490D02*
Y5690D01*
X7330D01*
X7528Y3237D02*
X7426Y3085D01*
Y3237D02*
X7528Y3085D01*
X7274D02*
X7376D01*
X7274Y3187D01*
Y3212D01*
X7299Y3237D01*
X7350D01*
X7376Y3212D01*
X2520Y2662D02*
Y2535D01*
X2495Y2510D01*
X2444D01*
X2418Y2535D01*
Y2662D01*
X2368Y2510D02*
X2317D01*
X2342D01*
Y2662D01*
X2368Y2637D01*
X2139Y2510D02*
X2241D01*
X2139Y2612D01*
Y2637D01*
X2165Y2662D01*
X2215D01*
X2241Y2637D01*
X4310Y4652D02*
Y4525D01*
X4285Y4500D01*
X4234D01*
X4208Y4525D01*
Y4652D01*
X4158Y4525D02*
X4132Y4500D01*
X4081D01*
X4056Y4525D01*
Y4627D01*
X4081Y4652D01*
X4132D01*
X4158Y4627D01*
Y4602D01*
X4132Y4576D01*
X4056D01*
X2770Y4132D02*
Y4005D01*
X2745Y3980D01*
X2694D01*
X2668Y4005D01*
Y4132D01*
X2618Y3980D02*
X2567D01*
X2592D01*
Y4132D01*
X2618Y4107D01*
X2491Y3980D02*
X2440D01*
X2465D01*
Y4132D01*
X2491Y4107D01*
X8120Y3762D02*
Y3635D01*
X8095Y3610D01*
X8044D01*
X8018Y3635D01*
Y3762D01*
X7891Y3610D02*
Y3762D01*
X7968Y3686D01*
X7866D01*
X7527Y6158D02*
X7425Y6006D01*
Y6158D02*
X7527Y6006D01*
X7374D02*
X7324D01*
X7349D01*
Y6158D01*
X7374Y6133D01*
X7300Y3812D02*
Y3685D01*
X7275Y3660D01*
X7224D01*
X7198Y3685D01*
Y3812D01*
X7046D02*
X7148D01*
Y3736D01*
X7097Y3762D01*
X7071D01*
X7046Y3736D01*
Y3685D01*
X7071Y3660D01*
X7122D01*
X7148Y3685D01*
X5830Y4272D02*
Y4145D01*
X5805Y4120D01*
X5754D01*
X5728Y4145D01*
Y4272D01*
X5576Y4120D02*
X5678D01*
X5576Y4222D01*
Y4247D01*
X5601Y4272D01*
X5652D01*
X5678Y4247D01*
X8430Y5292D02*
Y5165D01*
X8405Y5140D01*
X8354D01*
X8328Y5165D01*
Y5292D01*
X8176D02*
X8227Y5267D01*
X8278Y5216D01*
Y5165D01*
X8252Y5140D01*
X8201D01*
X8176Y5165D01*
Y5191D01*
X8201Y5216D01*
X8278D01*
X8402Y4370D02*
X8275D01*
X8250Y4395D01*
Y4446D01*
X8275Y4472D01*
X8402D01*
Y4522D02*
Y4624D01*
X8377D01*
X8275Y4522D01*
X8250D01*
X9060Y6051D02*
X9115D01*
X9065Y2251D02*
X9110D01*
X9090Y4502D02*
Y6051D01*
Y2251D02*
Y3710D01*
X9039Y5898D02*
X9090Y6051D01*
X9141Y5898D01*
X9090Y2251D02*
X9141Y2403D01*
X9039D02*
X9090Y2251D01*
X1457Y1815D02*
Y1865D01*
X8557Y1800D02*
Y1865D01*
X1457Y1840D02*
X4583D01*
X5350D02*
X8557D01*
X1457D02*
X1610Y1789D01*
X1457Y1840D02*
X1610Y1891D01*
X8405D02*
X8557Y1840D01*
X8405Y1789D02*
X8557Y1840D01*
X8530Y170D02*
Y1170D01*
X7480Y660D02*
X9900D01*
X7480Y180D02*
Y1170D01*
X4340Y190D02*
Y1170D01*
X9900D01*
Y170D02*
Y6540D01*
Y6510D02*
X9930Y6540D01*
X290D02*
X9930D01*
X290Y170D02*
Y6540D01*
Y170D02*
X9900D01*
X9090Y977D02*
X9115Y1002D01*
X9166D01*
X9192Y977D01*
Y875D01*
X9166Y850D01*
X9115D01*
X9090Y875D01*
Y977D01*
X9242Y850D02*
Y952D01*
X9293Y1002D01*
X9344Y952D01*
Y850D01*
Y926D01*
X9242D01*
D30*
X9078Y3751D02*
X9053Y3776D01*
Y3827D01*
X9078Y3852D01*
X9104D01*
X9129Y3827D01*
Y3801D01*
Y3827D01*
X9155Y3852D01*
X9180D01*
X9205Y3827D01*
Y3776D01*
X9180Y3751D01*
X9078Y3903D02*
X9053Y3928D01*
Y3979D01*
X9078Y4005D01*
X9104D01*
X9129Y3979D01*
X9155Y4005D01*
X9180D01*
X9205Y3979D01*
Y3928D01*
X9180Y3903D01*
X9155D01*
X9129Y3928D01*
X9104Y3903D01*
X9078D01*
X9129Y3928D02*
Y3979D01*
X9231Y4081D02*
X9205Y4106D01*
X9180D01*
Y4081D01*
X9205D01*
Y4106D01*
X9231Y4081D01*
X9256Y4055D01*
X9078Y4208D02*
X9053Y4233D01*
Y4284D01*
X9078Y4309D01*
X9180D01*
X9205Y4284D01*
Y4233D01*
X9180Y4208D01*
X9078D01*
Y4360D02*
X9053Y4385D01*
Y4436D01*
X9078Y4462D01*
X9180D01*
X9205Y4436D01*
Y4385D01*
X9180Y4360D01*
X9078D01*
X4624Y1876D02*
X4725D01*
Y1850D01*
X4624Y1749D01*
Y1723D01*
X4776D02*
X4827D01*
X4802D01*
Y1876D01*
X4776Y1850D01*
X4928Y1698D02*
X4954Y1723D01*
Y1749D01*
X4928D01*
Y1723D01*
X4954D01*
X4928Y1698D01*
X4903Y1672D01*
X5055Y1850D02*
X5081Y1876D01*
X5132D01*
X5157Y1850D01*
Y1749D01*
X5132Y1723D01*
X5081D01*
X5055Y1749D01*
Y1850D01*
X5208D02*
X5233Y1876D01*
X5284D01*
X5309Y1850D01*
Y1749D01*
X5284Y1723D01*
X5233D01*
X5208Y1749D01*
Y1850D01*
D31*
X5630Y3230D02*
Y3290D01*
X5470Y3230D02*
Y3290D01*
X5630D01*
X5470Y3230D02*
X5630D01*
X5610Y3490D02*
X5670D01*
X5610Y3330D02*
X5670D01*
X5610D02*
Y3490D01*
X5670Y3330D02*
Y3490D01*
X5570Y3330D02*
Y3390D01*
X5410Y3330D02*
Y3390D01*
X5570D01*
X5410Y3330D02*
X5570D01*
X6240Y3480D02*
X6300D01*
X6240Y3320D02*
X6300D01*
X6240D02*
Y3480D01*
X6300Y3320D02*
Y3480D01*
X4420Y3650D02*
X4480D01*
X4420Y3490D02*
X4480D01*
X4420D02*
Y3650D01*
X4480Y3490D02*
Y3650D01*
X6390Y4770D02*
X6450D01*
X6390Y4930D02*
X6450D01*
Y4770D02*
Y4930D01*
X6390Y4770D02*
Y4930D01*
X4830Y4780D02*
Y4840D01*
X4670Y4780D02*
Y4840D01*
X4830D01*
X4670Y4780D02*
X4830D01*
X1570Y3640D02*
X1730D01*
X1570Y3700D02*
X1730D01*
X1570Y3640D02*
Y3700D01*
X1730Y3640D02*
Y3700D01*
X1570Y3490D02*
X1730D01*
X1570Y3430D02*
X1730D01*
Y3490D01*
X1570Y3430D02*
Y3490D01*
X2480Y2890D02*
Y3050D01*
X2540Y2890D02*
Y3050D01*
X2480D02*
X2540D01*
X2480Y2890D02*
X2540D01*
X2260Y4850D02*
Y5010D01*
X2200Y4850D02*
Y5010D01*
Y4850D02*
X2260D01*
X2200Y5010D02*
X2260D01*
X3000Y4895D02*
Y4955D01*
X3160Y4895D02*
Y4955D01*
X3000Y4895D02*
X3160D01*
X3000Y4955D02*
X3160D01*
X3530Y3820D02*
X3690D01*
X3530Y3880D02*
X3690D01*
X3530Y3820D02*
Y3880D01*
X3690Y3820D02*
Y3880D01*
X3020Y3000D02*
X3180D01*
X3020Y3060D02*
X3180D01*
X3020Y3000D02*
Y3060D01*
X3180Y3000D02*
Y3060D01*
X2200Y2890D02*
Y3050D01*
X2260Y2890D02*
Y3050D01*
X2200D02*
X2260D01*
X2200Y2890D02*
X2260D01*
X2970Y2840D02*
X3030D01*
X2970Y2680D02*
X3030D01*
X2970D02*
Y2840D01*
X3030Y2680D02*
Y2840D01*
X2670Y3020D02*
X2830D01*
X2670Y2960D02*
X2830D01*
Y3020D01*
X2670Y2960D02*
Y3020D01*
X4230Y4160D02*
X4390D01*
X4230Y4100D02*
X4390D01*
Y4160D01*
X4230Y4100D02*
Y4160D01*
X4030Y4100D02*
X4190D01*
X4030Y4160D02*
X4190D01*
X4030Y4100D02*
Y4160D01*
X4190Y4100D02*
Y4160D01*
X7930Y4490D02*
Y4550D01*
X7770Y4490D02*
Y4550D01*
X7930D01*
X7770Y4490D02*
X7930D01*
X7770Y4590D02*
Y4650D01*
X7930Y4590D02*
Y4650D01*
X7770Y4590D02*
X7930D01*
X7770Y4650D02*
X7930D01*
X7770Y4190D02*
Y4250D01*
X7930Y4190D02*
Y4250D01*
X7770Y4190D02*
X7930D01*
X7770Y4250D02*
X7930D01*
X7770Y4290D02*
Y4350D01*
X7930Y4290D02*
Y4350D01*
X7770Y4290D02*
X7930D01*
X7770Y4350D02*
X7930D01*
X7770Y4390D02*
Y4450D01*
X7930Y4390D02*
Y4450D01*
X7770Y4390D02*
X7930D01*
X7770Y4450D02*
X7930D01*
X7960Y5000D02*
Y5060D01*
X8120Y5000D02*
Y5060D01*
X7960Y5000D02*
X8120D01*
X7960Y5060D02*
X8120D01*
X7330Y4380D02*
Y4440D01*
X7490Y4380D02*
Y4440D01*
X7330Y4380D02*
X7490D01*
X7330Y4440D02*
X7490D01*
X7330Y4480D02*
Y4540D01*
X7490Y4480D02*
Y4540D01*
X7330Y4480D02*
X7490D01*
X7330Y4540D02*
X7490D01*
X7330Y4580D02*
Y4640D01*
X7490Y4580D02*
Y4640D01*
X7330Y4580D02*
X7490D01*
X7330Y4640D02*
X7490D01*
X7330Y4690D02*
Y4750D01*
X7490Y4690D02*
Y4750D01*
X7330Y4690D02*
X7490D01*
X7330Y4750D02*
X7490D01*
X8060Y5130D02*
X8120D01*
X8060Y5290D02*
X8120D01*
Y5130D02*
Y5290D01*
X8060Y5130D02*
Y5290D01*
X8290Y4990D02*
Y5050D01*
X8450Y4990D02*
Y5050D01*
X8290Y4990D02*
X8450D01*
X8290Y5050D02*
X8450D01*
X8420Y4720D02*
Y4780D01*
X8260Y4720D02*
Y4780D01*
X8420D01*
X8260Y4720D02*
X8420D01*
X5890Y4890D02*
Y4950D01*
X5730Y4890D02*
Y4950D01*
X5890D01*
X5730Y4890D02*
X5890D01*
X6110Y4790D02*
Y4850D01*
X5950Y4790D02*
Y4850D01*
X6110D01*
X5950Y4790D02*
X6110D01*
X5930Y4890D02*
Y4950D01*
X6090Y4890D02*
Y4950D01*
X5930Y4890D02*
X6090D01*
X5930Y4950D02*
X6090D01*
X5570Y3430D02*
Y3490D01*
X5410Y3430D02*
Y3490D01*
X5570D01*
X5410Y3430D02*
X5570D01*
X8750Y455D02*
X8767Y472D01*
X8801D01*
X8818Y455D01*
Y438D01*
X8801Y421D01*
X8784D01*
X8801D01*
X8818Y404D01*
Y387D01*
X8801Y370D01*
X8767D01*
X8750Y387D01*
X8852Y455D02*
X8868Y472D01*
X8902D01*
X8919Y455D01*
Y387D01*
X8902Y370D01*
X8868D01*
X8852Y387D01*
Y455D01*
X8953Y370D02*
Y387D01*
X8970D01*
Y370D01*
X8953D01*
X9038Y455D02*
X9055Y472D01*
X9089D01*
X9105Y455D01*
Y387D01*
X9089Y370D01*
X9055D01*
X9038Y387D01*
Y455D01*
X9139D02*
X9156Y472D01*
X9190D01*
X9207Y455D01*
Y438D01*
X9190Y421D01*
X9207Y404D01*
Y387D01*
X9190Y370D01*
X9156D01*
X9139Y387D01*
Y404D01*
X9156Y421D01*
X9139Y438D01*
Y455D01*
X9156Y421D02*
X9190D01*
X9241Y370D02*
Y387D01*
X9258D01*
Y370D01*
X9241D01*
X9393D02*
X9326D01*
X9393Y438D01*
Y455D01*
X9376Y472D01*
X9342D01*
X9326Y455D01*
X9427D02*
X9444Y472D01*
X9478D01*
X9495Y455D01*
Y387D01*
X9478Y370D01*
X9444D01*
X9427Y387D01*
Y455D01*
X9529D02*
X9546Y472D01*
X9579D01*
X9596Y455D01*
Y387D01*
X9579Y370D01*
X9546D01*
X9529Y387D01*
Y455D01*
X9698Y472D02*
X9630D01*
Y421D01*
X9664Y438D01*
X9681D01*
X9698Y421D01*
Y387D01*
X9681Y370D01*
X9647D01*
X9630Y387D01*
X5690Y870D02*
Y972D01*
X5758Y870D01*
Y972D01*
X5859Y955D02*
X5842Y972D01*
X5808D01*
X5792Y955D01*
Y887D01*
X5808Y870D01*
X5842D01*
X5859Y887D01*
X470Y318D02*
X514D01*
X528Y323D01*
X533Y328D01*
X538Y338D01*
Y352D01*
X533Y362D01*
X528Y367D01*
X514Y372D01*
X470D01*
Y270D01*
X560Y338D02*
Y270D01*
Y309D02*
X565Y323D01*
X575Y333D01*
X585Y338D01*
X599D01*
X633D02*
X623Y333D01*
X613Y323D01*
X608Y309D01*
Y299D01*
X613Y285D01*
X623Y275D01*
X633Y270D01*
X647D01*
X657Y275D01*
X666Y285D01*
X671Y299D01*
Y309D01*
X666Y323D01*
X657Y333D01*
X647Y338D01*
X633D01*
X693D02*
Y236D01*
Y323D02*
X703Y333D01*
X713Y338D01*
X727D01*
X737Y333D01*
X747Y323D01*
X752Y309D01*
Y299D01*
X747Y285D01*
X737Y275D01*
X727Y270D01*
X713D01*
X703Y275D01*
X693Y285D01*
X773Y309D02*
X831D01*
Y318D01*
X826Y328D01*
X822Y333D01*
X812Y338D01*
X797D01*
X788Y333D01*
X778Y323D01*
X773Y309D01*
Y299D01*
X778Y285D01*
X788Y275D01*
X797Y270D01*
X812D01*
X822Y275D01*
X831Y285D01*
X853Y338D02*
Y270D01*
Y309D02*
X858Y323D01*
X868Y333D01*
X877Y338D01*
X892D01*
X915Y372D02*
Y289D01*
X920Y275D01*
X930Y270D01*
X940D01*
X901Y338D02*
X935D01*
X959D02*
X988Y270D01*
X1017Y338D02*
X988Y270D01*
X978Y251D01*
X969Y241D01*
X959Y236D01*
X954D01*
X1138Y338D02*
X1128Y333D01*
X1119Y323D01*
X1114Y309D01*
Y299D01*
X1119Y285D01*
X1128Y275D01*
X1138Y270D01*
X1153D01*
X1162Y275D01*
X1172Y285D01*
X1177Y299D01*
Y309D01*
X1172Y323D01*
X1162Y333D01*
X1153Y338D01*
X1138D01*
X1238Y372D02*
X1228D01*
X1218Y367D01*
X1213Y352D01*
Y270D01*
X1199Y338D02*
X1233D01*
X1346Y372D02*
Y289D01*
X1351Y275D01*
X1361Y270D01*
X1371D01*
X1332Y338D02*
X1366D01*
X1385Y372D02*
Y270D01*
Y318D02*
X1400Y333D01*
X1409Y338D01*
X1424D01*
X1434Y333D01*
X1438Y318D01*
Y270D01*
X1465Y309D02*
X1523D01*
Y318D01*
X1518Y328D01*
X1513Y333D01*
X1504Y338D01*
X1489D01*
X1479Y333D01*
X1470Y323D01*
X1465Y309D01*
Y299D01*
X1470Y285D01*
X1479Y275D01*
X1489Y270D01*
X1504D01*
X1513Y275D01*
X1523Y285D01*
X1702Y270D02*
X1663Y372D01*
X1625Y270D01*
X1639Y304D02*
X1687D01*
X1726Y338D02*
Y270D01*
Y309D02*
X1731Y323D01*
X1740Y333D01*
X1750Y338D01*
X1764D01*
X1774D02*
Y270D01*
Y318D02*
X1788Y333D01*
X1798Y338D01*
X1812D01*
X1822Y333D01*
X1827Y318D01*
Y270D01*
Y318D02*
X1841Y333D01*
X1851Y338D01*
X1865D01*
X1875Y333D01*
X1880Y318D01*
Y270D01*
X1970Y338D02*
Y270D01*
Y323D02*
X1960Y333D01*
X1951Y338D01*
X1936D01*
X1926Y333D01*
X1917Y323D01*
X1912Y309D01*
Y299D01*
X1917Y285D01*
X1926Y275D01*
X1936Y270D01*
X1951D01*
X1960Y275D01*
X1970Y285D01*
X2055Y372D02*
Y270D01*
Y323D02*
X2045Y333D01*
X2036Y338D01*
X2021D01*
X2012Y333D01*
X2002Y323D01*
X1997Y309D01*
Y299D01*
X2002Y285D01*
X2012Y275D01*
X2021Y270D01*
X2036D01*
X2045Y275D01*
X2055Y285D01*
X2082Y309D02*
X2140D01*
Y318D01*
X2135Y328D01*
X2131Y333D01*
X2121Y338D01*
X2106D01*
X2097Y333D01*
X2087Y323D01*
X2082Y309D01*
Y299D01*
X2087Y285D01*
X2097Y275D01*
X2106Y270D01*
X2121D01*
X2131Y275D01*
X2140Y285D01*
X2162Y338D02*
Y289D01*
X2167Y275D01*
X2177Y270D01*
X2191D01*
X2201Y275D01*
X2215Y289D01*
Y338D02*
Y270D01*
X2295Y323D02*
X2290Y333D01*
X2276Y338D01*
X2261D01*
X2247Y333D01*
X2242Y323D01*
X2247Y314D01*
X2256Y309D01*
X2281Y304D01*
X2290Y299D01*
X2295Y289D01*
Y285D01*
X2290Y275D01*
X2276Y270D01*
X2261D01*
X2247Y275D01*
X2242Y285D01*
X2396Y318D02*
X2440D01*
X2454Y323D01*
X2459Y328D01*
X2464Y338D01*
Y352D01*
X2459Y362D01*
X2454Y367D01*
X2440Y372D01*
X2396D01*
Y270D01*
X2487Y338D02*
Y270D01*
Y309D02*
X2491Y323D01*
X2501Y333D01*
X2511Y338D01*
X2525D01*
X2559D02*
X2549Y333D01*
X2539Y323D01*
X2534Y309D01*
Y299D01*
X2539Y285D01*
X2549Y275D01*
X2559Y270D01*
X2573D01*
X2583Y275D01*
X2592Y285D01*
X2597Y299D01*
Y309D01*
X2592Y323D01*
X2583Y333D01*
X2573Y338D01*
X2559D01*
X2639Y372D02*
X2644Y367D01*
X2649Y372D01*
X2644Y376D01*
X2639Y372D01*
X2644Y338D02*
Y255D01*
X2639Y241D01*
X2629Y236D01*
X2620D01*
X2667Y309D02*
X2726D01*
Y318D01*
X2721Y328D01*
X2716Y333D01*
X2706Y338D01*
X2692D01*
X2682Y333D01*
X2672Y323D01*
X2667Y309D01*
Y299D01*
X2672Y285D01*
X2682Y275D01*
X2692Y270D01*
X2706D01*
X2716Y275D01*
X2726Y285D01*
X2805Y323D02*
X2796Y333D01*
X2786Y338D01*
X2771D01*
X2762Y333D01*
X2752Y323D01*
X2747Y309D01*
Y299D01*
X2752Y285D01*
X2762Y275D01*
X2771Y270D01*
X2786D01*
X2796Y275D01*
X2805Y285D01*
X2842Y372D02*
Y289D01*
X2846Y275D01*
X2856Y270D01*
X2866D01*
X2827Y338D02*
X2861D01*
X4550Y610D02*
Y678D01*
X4584Y712D01*
X4618Y678D01*
Y610D01*
Y661D01*
X4550D01*
X4719Y678D02*
X4668D01*
X4652Y661D01*
Y627D01*
X4668Y610D01*
X4719D01*
X4821Y678D02*
X4770D01*
X4753Y661D01*
Y627D01*
X4770Y610D01*
X4821D01*
X4905D02*
X4872D01*
X4855Y627D01*
Y661D01*
X4872Y678D01*
X4905D01*
X4922Y661D01*
Y644D01*
X4855D01*
X4956Y576D02*
Y678D01*
X5007D01*
X5024Y661D01*
Y627D01*
X5007Y610D01*
X4956D01*
X5075Y695D02*
Y678D01*
X5058D01*
X5092D01*
X5075D01*
Y627D01*
X5092Y610D01*
X5193D02*
X5159D01*
X5142Y627D01*
Y661D01*
X5159Y678D01*
X5193D01*
X5210Y661D01*
Y644D01*
X5142D01*
X5312Y712D02*
Y610D01*
X5261D01*
X5244Y627D01*
Y661D01*
X5261Y678D01*
X5312D01*
X5346D02*
X5363D01*
Y661D01*
X5346D01*
Y678D01*
Y627D02*
X5363D01*
Y610D01*
X5346D01*
Y627D01*
X4550Y972D02*
Y870D01*
X4601D01*
X4618Y887D01*
Y955D01*
X4601Y972D01*
X4550D01*
X4652Y938D02*
Y870D01*
Y904D01*
X4668Y921D01*
X4685Y938D01*
X4702D01*
X4770D02*
X4804D01*
X4821Y921D01*
Y870D01*
X4770D01*
X4753Y887D01*
X4770Y904D01*
X4821D01*
X4855Y938D02*
Y887D01*
X4872Y870D01*
X4889Y887D01*
X4905Y870D01*
X4922Y887D01*
Y938D01*
X4956Y870D02*
Y938D01*
X5007D01*
X5024Y921D01*
Y870D01*
X5058Y938D02*
X5075D01*
Y921D01*
X5058D01*
Y938D01*
Y887D02*
X5075D01*
Y870D01*
X5058D01*
Y887D01*
X4618Y425D02*
X4601Y442D01*
X4567D01*
X4550Y425D01*
Y357D01*
X4567Y340D01*
X4601D01*
X4618Y357D01*
X4668Y340D02*
X4702D01*
X4719Y357D01*
Y391D01*
X4702Y408D01*
X4668D01*
X4652Y391D01*
Y357D01*
X4668Y340D01*
X4753D02*
Y408D01*
X4770D01*
X4787Y391D01*
Y340D01*
Y391D01*
X4804Y408D01*
X4821Y391D01*
Y340D01*
X4855D02*
Y408D01*
X4872D01*
X4889Y391D01*
Y340D01*
Y391D01*
X4905Y408D01*
X4922Y391D01*
Y340D01*
X5007D02*
X4973D01*
X4956Y357D01*
Y391D01*
X4973Y408D01*
X5007D01*
X5024Y391D01*
Y374D01*
X4956D01*
X5058Y340D02*
Y408D01*
X5109D01*
X5126Y391D01*
Y340D01*
X5176Y425D02*
Y408D01*
X5159D01*
X5193D01*
X5176D01*
Y357D01*
X5193Y340D01*
X5244Y408D02*
X5261D01*
Y391D01*
X5244D01*
Y408D01*
Y357D02*
X5261D01*
Y340D01*
X5244D01*
Y357D01*
X7708Y1385D02*
X7691Y1402D01*
X7657D01*
X7640Y1385D01*
Y1317D01*
X7657Y1300D01*
X7691D01*
X7708Y1317D01*
X7792Y1402D02*
X7758D01*
X7742Y1385D01*
Y1317D01*
X7758Y1300D01*
X7792D01*
X7809Y1317D01*
Y1385D01*
X7792Y1402D01*
X7843Y1300D02*
Y1402D01*
X7877Y1368D01*
X7911Y1402D01*
Y1300D01*
X7945D02*
Y1402D01*
X7995D01*
X8012Y1385D01*
Y1351D01*
X7995Y1334D01*
X7945D01*
X8046Y1300D02*
Y1368D01*
X8080Y1402D01*
X8114Y1368D01*
Y1300D01*
Y1351D01*
X8046D01*
X8148Y1300D02*
Y1402D01*
X8216Y1300D01*
Y1402D01*
X8249D02*
Y1385D01*
X8283Y1351D01*
X8317Y1385D01*
Y1402D01*
X8283Y1351D02*
Y1300D01*
X8520Y1385D02*
X8503Y1402D01*
X8469D01*
X8453Y1385D01*
Y1317D01*
X8469Y1300D01*
X8503D01*
X8520Y1317D01*
X8605Y1402D02*
X8571D01*
X8554Y1385D01*
Y1317D01*
X8571Y1300D01*
X8605D01*
X8622Y1317D01*
Y1385D01*
X8605Y1402D01*
X8656Y1300D02*
Y1402D01*
X8723Y1300D01*
Y1402D01*
X8825D02*
X8757D01*
Y1351D01*
X8791D01*
X8757D01*
Y1300D01*
X8859Y1402D02*
X8893D01*
X8876D01*
Y1300D01*
X8859D01*
X8893D01*
X8943Y1402D02*
Y1300D01*
X8994D01*
X9011Y1317D01*
Y1385D01*
X8994Y1402D01*
X8943D01*
X9113D02*
X9045D01*
Y1300D01*
X9113D01*
X9045Y1351D02*
X9079D01*
X9147Y1300D02*
Y1402D01*
X9214Y1300D01*
Y1402D01*
X9248D02*
X9316D01*
X9282D01*
Y1300D01*
X9350Y1402D02*
X9384D01*
X9367D01*
Y1300D01*
X9350D01*
X9384D01*
X9434D02*
Y1368D01*
X9468Y1402D01*
X9502Y1368D01*
Y1300D01*
Y1351D01*
X9434D01*
X9536Y1402D02*
Y1300D01*
X9604D01*
D32*
X7740Y497D02*
Y370D01*
X7803D01*
X7825Y391D01*
Y476D01*
X7803Y497D01*
X7740D01*
X7888Y455D02*
X7930D01*
X7952Y433D01*
Y370D01*
X7888D01*
X7867Y391D01*
X7888Y412D01*
X7952D01*
X8015Y476D02*
Y455D01*
X7994D01*
X8036D01*
X8015D01*
Y391D01*
X8036Y370D01*
X8163D02*
X8121D01*
X8100Y391D01*
Y433D01*
X8121Y455D01*
X8163D01*
X8184Y433D01*
Y412D01*
X8100D01*
X7730Y987D02*
X7772D01*
X7751D01*
Y860D01*
X7730D01*
X7772D01*
X7836D02*
X7899D01*
X7920Y881D01*
X7899Y902D01*
X7857D01*
X7836Y923D01*
X7857Y945D01*
X7920D01*
X7963Y860D02*
X8026D01*
X8047Y881D01*
X8026Y902D01*
X7984D01*
X7963Y923D01*
X7984Y945D01*
X8047D01*
X8090D02*
Y881D01*
X8111Y860D01*
X8174D01*
Y945D01*
X8280Y860D02*
X8238D01*
X8217Y881D01*
Y923D01*
X8238Y945D01*
X8280D01*
X8301Y923D01*
Y902D01*
X8217D01*
D47*
X8500Y4408D02*
G03*
X8500Y4408I-12J0D01*
G01*
X8493Y5325D02*
G03*
X8493Y5325I-12J0D01*
G01*
X3312Y3210D02*
G03*
X3312Y3210I-12J0D01*
G01*
X8300Y4008D02*
G03*
X8300Y4008I-12J0D01*
G01*
X6925Y3412D02*
G03*
X6925Y3412I-12J0D01*
G01*
X2925Y2423D02*
G03*
X2925Y2423I-12J0D01*
G01*
X3885Y4830D02*
G03*
X3885Y4830I-12J0D01*
G01*
D48*
X7958Y3965D02*
G03*
X8062Y3965I52J0D01*
G01*
X7242Y3455D02*
G03*
X7138Y3455I-52J0D01*
G01*
X6708Y4190D02*
G03*
X6708Y4063I0J-63D01*
G01*
X2895Y2660D02*
G03*
X2895Y2600I0J-30D01*
G01*
X3920Y4542D02*
G03*
X3920Y4598I0J28D01*
G01*
X3280Y2337D02*
X7540Y2340D01*
X3280Y2337D02*
Y2920D01*
X7540D01*
Y2340D02*
Y2920D01*
X3065Y2285D02*
X3195D01*
X3065Y2595D02*
X3130Y2595D01*
X3195Y2440D02*
Y2595D01*
X3195Y2440D02*
X3195Y2285D01*
X3130Y2595D02*
X3195D01*
X3065Y2285D02*
X3065Y2595D01*
X4315Y3225D02*
Y3355D01*
X4625Y3290D02*
X4625Y3355D01*
X4470Y3225D02*
X4625D01*
X4315D02*
X4470Y3225D01*
X4625Y3225D02*
Y3290D01*
X4315Y3355D02*
X4625Y3355D01*
X2305Y2745D02*
X2435D01*
X2305Y3055D02*
X2370Y3055D01*
X2435Y2900D02*
Y3055D01*
X2435Y2900D02*
X2435Y2745D01*
X2370Y3055D02*
X2435D01*
X2305Y2745D02*
X2305Y3055D01*
X2805Y5005D02*
Y5135D01*
X3115Y5070D02*
X3115Y5135D01*
X2960Y5005D02*
X3115D01*
X2805D02*
X2960Y5005D01*
X3115Y5005D02*
Y5070D01*
X2805Y5135D02*
X3115Y5135D01*
X4745Y4935D02*
Y5065D01*
X5055Y5000D02*
X5055Y5065D01*
X4900Y4935D02*
X5055D01*
X4745D02*
X4900Y4935D01*
X5055Y4935D02*
Y5000D01*
X4745Y5065D02*
X5055Y5065D01*
X3505Y5005D02*
Y5135D01*
X3195Y5005D02*
X3195Y5070D01*
Y5135D02*
X3350D01*
Y5135D02*
X3505Y5135D01*
X3195Y5070D02*
Y5135D01*
X3195Y5005D02*
X3505Y5005D01*
X8205Y4860D02*
Y4940D01*
X8445D01*
Y4860D02*
Y4940D01*
X8205Y4860D02*
X8445D01*
X8157Y4633D02*
X8203D01*
X8378D02*
X8423D01*
X8422Y4497D02*
Y4633D01*
X8157Y4497D02*
Y4633D01*
X8370Y5095D02*
Y5100D01*
X8230Y5095D02*
Y5100D01*
X8370Y5320D02*
Y5325D01*
X8230Y5320D02*
Y5325D01*
Y5095D02*
X8370D01*
X8230Y5325D02*
X8370D01*
X1990Y4610D02*
X3270D01*
X1990Y3330D02*
X3270D01*
Y4610D01*
X1990Y3330D02*
Y4610D01*
X3280Y5257D02*
X7540Y5260D01*
X3280Y5257D02*
Y5840D01*
X7540D01*
Y5260D02*
Y5840D01*
X8062Y3965D02*
X8165D01*
X7855D02*
X7958D01*
X7855Y3455D02*
X8165D01*
Y3965D01*
X7855Y3455D02*
Y3965D01*
X7345Y3455D02*
Y3965D01*
X7035Y3455D02*
Y3965D01*
X7345D01*
X7242Y3455D02*
X7345D01*
X7035D02*
X7138D01*
X4545Y3713D02*
X6695D01*
X4545D02*
Y4542D01*
X6695D01*
X6708Y4190D02*
Y4540D01*
Y3711D02*
Y4063D01*
X2585Y2720D02*
X2895D01*
X2585Y2540D02*
X2895D01*
X2585D02*
Y2720D01*
X2895Y2660D02*
Y2720D01*
Y2540D02*
Y2600D01*
X3920Y4460D02*
X4420D01*
X3920Y4680D02*
X4420D01*
Y4460D02*
Y4680D01*
X3920Y4460D02*
Y4542D01*
X3920Y4597D02*
X3920Y4680D01*
D49*
X5970Y4940D02*
Y4910D01*
X5985D01*
X5990Y4915D01*
Y4925D01*
X5985Y4930D01*
X5970D01*
X5980D02*
X5990Y4940D01*
X6000D02*
X6010D01*
X6005D01*
Y4910D01*
X6000Y4915D01*
X6025Y4910D02*
X6045D01*
Y4915D01*
X6025Y4935D01*
Y4940D01*
X5850Y4900D02*
Y4930D01*
X5835D01*
X5830Y4925D01*
Y4915D01*
X5835Y4910D01*
X5850D01*
X5840D02*
X5830Y4900D01*
X5820D02*
X5810D01*
X5815D01*
Y4930D01*
X5820Y4925D01*
X5795D02*
X5790Y4930D01*
X5780D01*
X5775Y4925D01*
Y4920D01*
X5780Y4915D01*
X5775Y4910D01*
Y4905D01*
X5780Y4900D01*
X5790D01*
X5795Y4905D01*
Y4910D01*
X5790Y4915D01*
X5795Y4920D01*
Y4925D01*
X5790Y4915D02*
X5780D01*
X5990Y4840D02*
Y4810D01*
X6005D01*
X6010Y4815D01*
Y4825D01*
X6005Y4830D01*
X5990D01*
X6000D02*
X6010Y4840D01*
X6020D02*
X6030D01*
X6025D01*
Y4810D01*
X6020Y4815D01*
X6045Y4835D02*
X6050Y4840D01*
X6060D01*
X6065Y4835D01*
Y4815D01*
X6060Y4810D01*
X6050D01*
X6045Y4815D01*
Y4820D01*
X6050Y4825D01*
X6065D01*
X5460Y3480D02*
Y3450D01*
X5475D01*
X5480Y3455D01*
Y3465D01*
X5475Y3470D01*
X5460D01*
X5470D02*
X5480Y3480D01*
X5490D02*
X5500D01*
X5495D01*
Y3450D01*
X5490Y3455D01*
X5515D02*
X5520Y3450D01*
X5530D01*
X5535Y3455D01*
Y3460D01*
X5530Y3465D01*
X5525D01*
X5530D01*
X5535Y3470D01*
Y3475D01*
X5530Y3480D01*
X5520D01*
X5515Y3475D01*
X3135Y2420D02*
X3140Y2415D01*
Y2405D01*
X3135Y2400D01*
X3115D01*
X3110Y2405D01*
Y2415D01*
X3115Y2420D01*
X3140Y2430D02*
Y2450D01*
X3135D01*
X3115Y2430D01*
X3110D01*
Y2475D02*
X3140D01*
X3125Y2460D01*
Y2480D01*
X3370Y5085D02*
X3375Y5090D01*
X3385D01*
X3390Y5085D01*
Y5065D01*
X3385Y5060D01*
X3375D01*
X3370Y5065D01*
X3360Y5090D02*
X3340D01*
Y5085D01*
X3360Y5065D01*
Y5060D01*
X3330D02*
X3320D01*
X3325D01*
Y5090D01*
X3330Y5085D01*
X2940Y5055D02*
X2935Y5050D01*
X2925D01*
X2920Y5055D01*
Y5075D01*
X2925Y5080D01*
X2935D01*
X2940Y5075D01*
X2950Y5050D02*
X2970D01*
Y5055D01*
X2950Y5075D01*
Y5080D01*
X2980Y5055D02*
X2985Y5050D01*
X2995D01*
X3000Y5055D01*
Y5075D01*
X2995Y5080D01*
X2985D01*
X2980Y5075D01*
Y5055D01*
X4460Y3275D02*
X4455Y3270D01*
X4445D01*
X4440Y3275D01*
Y3295D01*
X4445Y3300D01*
X4455D01*
X4460Y3295D01*
X4490Y3270D02*
X4480Y3275D01*
X4470Y3285D01*
Y3295D01*
X4475Y3300D01*
X4485D01*
X4490Y3295D01*
Y3290D01*
X4485Y3285D01*
X4470D01*
X4500Y3295D02*
X4505Y3300D01*
X4515D01*
X4520Y3295D01*
Y3275D01*
X4515Y3270D01*
X4505D01*
X4500Y3275D01*
Y3280D01*
X4505Y3285D01*
X4520D01*
X2385Y2870D02*
X2390Y2865D01*
Y2855D01*
X2385Y2850D01*
X2365D01*
X2360Y2855D01*
Y2865D01*
X2365Y2870D01*
X2390Y2900D02*
X2385Y2890D01*
X2375Y2880D01*
X2365D01*
X2360Y2885D01*
Y2895D01*
X2365Y2900D01*
X2370D01*
X2375Y2895D01*
Y2880D01*
X2385Y2910D02*
X2390Y2915D01*
Y2925D01*
X2385Y2930D01*
X2380D01*
X2375Y2925D01*
X2370Y2930D01*
X2365D01*
X2360Y2925D01*
Y2915D01*
X2365Y2910D01*
X2370D01*
X2375Y2915D01*
X2380Y2910D01*
X2385D01*
X2375Y2915D02*
Y2925D01*
X4880Y4985D02*
X4875Y4980D01*
X4865D01*
X4860Y4985D01*
Y5005D01*
X4865Y5010D01*
X4875D01*
X4880Y5005D01*
X4910Y4980D02*
X4900Y4985D01*
X4890Y4995D01*
Y5005D01*
X4895Y5010D01*
X4905D01*
X4910Y5005D01*
Y5000D01*
X4905Y4995D01*
X4890D01*
X4920Y4980D02*
X4940D01*
Y4985D01*
X4920Y5005D01*
Y5010D01*
X2770Y2995D02*
X2775Y3000D01*
X2785D01*
X2790Y2995D01*
Y2975D01*
X2785Y2970D01*
X2775D01*
X2770Y2975D01*
X2745Y2970D02*
Y3000D01*
X2760Y2985D01*
X2740D01*
X2730Y2995D02*
X2725Y3000D01*
X2715D01*
X2710Y2995D01*
Y2975D01*
X2715Y2970D01*
X2725D01*
X2730Y2975D01*
Y2995D01*
X1670Y3465D02*
X1675Y3470D01*
X1685D01*
X1690Y3465D01*
Y3445D01*
X1685Y3440D01*
X1675D01*
X1670Y3445D01*
X1660Y3465D02*
X1655Y3470D01*
X1645D01*
X1640Y3465D01*
Y3460D01*
X1645Y3455D01*
X1650D01*
X1645D01*
X1640Y3450D01*
Y3445D01*
X1645Y3440D01*
X1655D01*
X1660Y3445D01*
X1630D02*
X1625Y3440D01*
X1615D01*
X1610Y3445D01*
Y3465D01*
X1615Y3470D01*
X1625D01*
X1630Y3465D01*
Y3460D01*
X1625Y3455D01*
X1610D01*
X1630Y3665D02*
X1625Y3660D01*
X1615D01*
X1610Y3665D01*
Y3685D01*
X1615Y3690D01*
X1625D01*
X1630Y3685D01*
X1640Y3665D02*
X1645Y3660D01*
X1655D01*
X1660Y3665D01*
Y3670D01*
X1655Y3675D01*
X1650D01*
X1655D01*
X1660Y3680D01*
Y3685D01*
X1655Y3690D01*
X1645D01*
X1640Y3685D01*
X1670Y3665D02*
X1675Y3660D01*
X1685D01*
X1690Y3665D01*
Y3670D01*
X1685Y3675D01*
X1690Y3680D01*
Y3685D01*
X1685Y3690D01*
X1675D01*
X1670Y3685D01*
Y3680D01*
X1675Y3675D01*
X1670Y3670D01*
Y3665D01*
X1675Y3675D02*
X1685D01*
X2225Y2990D02*
X2220Y2995D01*
Y3005D01*
X2225Y3010D01*
X2245D01*
X2250Y3005D01*
Y2995D01*
X2245Y2990D01*
X2225Y2980D02*
X2220Y2975D01*
Y2965D01*
X2225Y2960D01*
X2230D01*
X2235Y2965D01*
Y2970D01*
Y2965D01*
X2240Y2960D01*
X2245D01*
X2250Y2965D01*
Y2975D01*
X2245Y2980D01*
X2220Y2950D02*
Y2930D01*
X2225D01*
X2245Y2950D01*
X2250D01*
X3080Y3025D02*
X3075Y3020D01*
X3065D01*
X3060Y3025D01*
Y3045D01*
X3065Y3050D01*
X3075D01*
X3080Y3045D01*
X3090Y3025D02*
X3095Y3020D01*
X3105D01*
X3110Y3025D01*
Y3030D01*
X3105Y3035D01*
X3100D01*
X3105D01*
X3110Y3040D01*
Y3045D01*
X3105Y3050D01*
X3095D01*
X3090Y3045D01*
X3140Y3020D02*
X3130Y3025D01*
X3120Y3035D01*
Y3045D01*
X3125Y3050D01*
X3135D01*
X3140Y3045D01*
Y3040D01*
X3135Y3035D01*
X3120D01*
X2235Y4910D02*
X2240Y4905D01*
Y4895D01*
X2235Y4890D01*
X2215D01*
X2210Y4895D01*
Y4905D01*
X2215Y4910D01*
X2235Y4920D02*
X2240Y4925D01*
Y4935D01*
X2235Y4940D01*
X2230D01*
X2225Y4935D01*
Y4930D01*
Y4935D01*
X2220Y4940D01*
X2215D01*
X2210Y4935D01*
Y4925D01*
X2215Y4920D01*
X2240Y4970D02*
Y4950D01*
X2225D01*
X2230Y4960D01*
Y4965D01*
X2225Y4970D01*
X2215D01*
X2210Y4965D01*
Y4955D01*
X2215Y4950D01*
X2505Y2990D02*
X2500Y2995D01*
Y3005D01*
X2505Y3010D01*
X2525D01*
X2530Y3005D01*
Y2995D01*
X2525Y2990D01*
X2505Y2980D02*
X2500Y2975D01*
Y2965D01*
X2505Y2960D01*
X2510D01*
X2515Y2965D01*
Y2970D01*
Y2965D01*
X2520Y2960D01*
X2525D01*
X2530Y2965D01*
Y2975D01*
X2525Y2980D01*
X2530Y2935D02*
X2500D01*
X2515Y2950D01*
Y2930D01*
X3590Y3845D02*
X3585Y3840D01*
X3575D01*
X3570Y3845D01*
Y3865D01*
X3575Y3870D01*
X3585D01*
X3590Y3865D01*
X3600Y3845D02*
X3605Y3840D01*
X3615D01*
X3620Y3845D01*
Y3850D01*
X3615Y3855D01*
X3610D01*
X3615D01*
X3620Y3860D01*
Y3865D01*
X3615Y3870D01*
X3605D01*
X3600Y3865D01*
X3630Y3845D02*
X3635Y3840D01*
X3645D01*
X3650Y3845D01*
Y3850D01*
X3645Y3855D01*
X3640D01*
X3645D01*
X3650Y3860D01*
Y3865D01*
X3645Y3870D01*
X3635D01*
X3630Y3865D01*
X4330Y4135D02*
X4335Y4140D01*
X4345D01*
X4350Y4135D01*
Y4115D01*
X4345Y4110D01*
X4335D01*
X4330Y4115D01*
X4320Y4135D02*
X4315Y4140D01*
X4305D01*
X4300Y4135D01*
Y4130D01*
X4305Y4125D01*
X4310D01*
X4305D01*
X4300Y4120D01*
Y4115D01*
X4305Y4110D01*
X4315D01*
X4320Y4115D01*
X4290Y4135D02*
X4285Y4140D01*
X4275D01*
X4270Y4135D01*
Y4115D01*
X4275Y4110D01*
X4285D01*
X4290Y4115D01*
Y4135D01*
X4080Y4125D02*
X4075Y4120D01*
X4065D01*
X4060Y4125D01*
Y4145D01*
X4065Y4150D01*
X4075D01*
X4080Y4145D01*
X4110Y4150D02*
X4090D01*
X4110Y4130D01*
Y4125D01*
X4105Y4120D01*
X4095D01*
X4090Y4125D01*
X4120D02*
X4125Y4120D01*
X4135D01*
X4140Y4125D01*
Y4130D01*
X4135Y4135D01*
X4140Y4140D01*
Y4145D01*
X4135Y4150D01*
X4125D01*
X4120Y4145D01*
Y4140D01*
X4125Y4135D01*
X4120Y4130D01*
Y4125D01*
X4125Y4135D02*
X4135D01*
X7408Y4617D02*
X7413Y4622D01*
X7423D01*
X7428Y4617D01*
Y4597D01*
X7423Y4592D01*
X7413D01*
X7408Y4597D01*
X7378Y4592D02*
X7398D01*
X7378Y4612D01*
Y4617D01*
X7383Y4622D01*
X7393D01*
X7398Y4617D01*
X8039Y5037D02*
X8044Y5042D01*
X8054D01*
X8059Y5037D01*
Y5017D01*
X8054Y5012D01*
X8044D01*
X8039Y5017D01*
X8014Y5012D02*
Y5042D01*
X8029Y5027D01*
X8009D01*
X7411Y4417D02*
X7416Y4422D01*
X7426D01*
X7431Y4417D01*
Y4397D01*
X7426Y4392D01*
X7416D01*
X7411Y4397D01*
X7381Y4422D02*
X7401D01*
Y4407D01*
X7391Y4412D01*
X7386D01*
X7381Y4407D01*
Y4397D01*
X7386Y4392D01*
X7396D01*
X7401Y4397D01*
X7412Y4517D02*
X7417Y4522D01*
X7427D01*
X7432Y4517D01*
Y4497D01*
X7427Y4492D01*
X7417D01*
X7412Y4497D01*
X7382Y4522D02*
X7392Y4517D01*
X7402Y4507D01*
Y4497D01*
X7397Y4492D01*
X7387D01*
X7382Y4497D01*
Y4502D01*
X7387Y4507D01*
X7402D01*
X8319Y4750D02*
X8314Y4745D01*
X8304D01*
X8299Y4750D01*
Y4770D01*
X8304Y4775D01*
X8314D01*
X8319Y4770D01*
X8349Y4775D02*
X8329D01*
X8349Y4755D01*
Y4750D01*
X8344Y4745D01*
X8334D01*
X8329Y4750D01*
X8359D02*
X8364Y4745D01*
X8374D01*
X8379Y4750D01*
Y4755D01*
X8374Y4760D01*
X8369D01*
X8374D01*
X8379Y4765D01*
Y4770D01*
X8374Y4775D01*
X8364D01*
X8359Y4770D01*
X7410Y4735D02*
X7415Y4740D01*
X7425D01*
X7430Y4735D01*
Y4715D01*
X7425Y4710D01*
X7415D01*
X7410Y4715D01*
X7400Y4710D02*
X7390D01*
X7395D01*
Y4740D01*
X7400Y4735D01*
X8310Y4885D02*
X8305Y4880D01*
X8295D01*
X8290Y4885D01*
Y4905D01*
X8295Y4910D01*
X8305D01*
X8310Y4905D01*
X8340Y4910D02*
X8320D01*
X8340Y4890D01*
Y4885D01*
X8335Y4880D01*
X8325D01*
X8320Y4885D01*
X8350Y4910D02*
X8360D01*
X8355D01*
Y4880D01*
X8350Y4885D01*
X3090Y4930D02*
X3095Y4935D01*
X3105D01*
X3110Y4930D01*
Y4910D01*
X3105Y4905D01*
X3095D01*
X3090Y4910D01*
X3080Y4930D02*
X3075Y4935D01*
X3065D01*
X3060Y4930D01*
Y4925D01*
X3065Y4920D01*
X3070D01*
X3065D01*
X3060Y4915D01*
Y4910D01*
X3065Y4905D01*
X3075D01*
X3080Y4910D01*
X3030Y4905D02*
X3050D01*
X3030Y4925D01*
Y4930D01*
X3035Y4935D01*
X3045D01*
X3050Y4930D01*
X7830Y4540D02*
Y4510D01*
X7845D01*
X7850Y4515D01*
Y4525D01*
X7845Y4530D01*
X7830D01*
X7840D02*
X7850Y4540D01*
X7875D02*
Y4510D01*
X7860Y4525D01*
X7880D01*
X5460Y3380D02*
Y3350D01*
X5475D01*
X5480Y3355D01*
Y3365D01*
X5475Y3370D01*
X5460D01*
X5470D02*
X5480Y3380D01*
X5490D02*
X5500D01*
X5495D01*
Y3350D01*
X5490Y3355D01*
X5530Y3380D02*
Y3350D01*
X5515Y3365D01*
X5535D01*
X8410Y5000D02*
Y5030D01*
X8395D01*
X8390Y5025D01*
Y5015D01*
X8395Y5010D01*
X8410D01*
X8400D02*
X8390Y5000D01*
X8360D02*
X8380D01*
X8360Y5020D01*
Y5025D01*
X8365Y5030D01*
X8375D01*
X8380Y5025D01*
X8350Y5030D02*
X8330D01*
Y5025D01*
X8350Y5005D01*
Y5000D01*
X4740Y4805D02*
X4735Y4800D01*
X4725D01*
X4720Y4805D01*
Y4825D01*
X4725Y4830D01*
X4735D01*
X4740Y4825D01*
X4750Y4830D02*
X4760D01*
X4755D01*
Y4800D01*
X4750Y4805D01*
X4775Y4830D02*
X4785D01*
X4780D01*
Y4800D01*
X4775Y4805D01*
X6415Y4860D02*
X6410Y4865D01*
Y4875D01*
X6415Y4880D01*
X6435D01*
X6440Y4875D01*
Y4865D01*
X6435Y4860D01*
X6440Y4850D02*
Y4840D01*
Y4845D01*
X6410D01*
X6415Y4850D01*
X6440Y4805D02*
Y4825D01*
X6420Y4805D01*
X6415D01*
X6410Y4810D01*
Y4820D01*
X6415Y4825D01*
X4455Y3560D02*
X4460Y3555D01*
Y3545D01*
X4455Y3540D01*
X4435D01*
X4430Y3545D01*
Y3555D01*
X4435Y3560D01*
X4430Y3570D02*
Y3580D01*
Y3575D01*
X4460D01*
X4455Y3570D01*
Y3595D02*
X4460Y3600D01*
Y3610D01*
X4455Y3615D01*
X4450D01*
X4445Y3610D01*
Y3605D01*
Y3610D01*
X4440Y3615D01*
X4435D01*
X4430Y3610D01*
Y3600D01*
X4435Y3595D01*
X6275Y3390D02*
X6280Y3385D01*
Y3375D01*
X6275Y3370D01*
X6255D01*
X6250Y3375D01*
Y3385D01*
X6255Y3390D01*
X6250Y3400D02*
Y3410D01*
Y3405D01*
X6280D01*
X6275Y3400D01*
X6250Y3440D02*
X6280D01*
X6265Y3425D01*
Y3445D01*
X8085Y5230D02*
X8080Y5235D01*
Y5245D01*
X8085Y5250D01*
X8105D01*
X8110Y5245D01*
Y5235D01*
X8105Y5230D01*
X8110Y5200D02*
Y5220D01*
X8090Y5200D01*
X8085D01*
X8080Y5205D01*
Y5215D01*
X8085Y5220D01*
X8110Y5170D02*
Y5190D01*
X8090Y5170D01*
X8085D01*
X8080Y5175D01*
Y5185D01*
X8085Y5190D01*
X7880Y4400D02*
Y4430D01*
X7865D01*
X7860Y4425D01*
Y4415D01*
X7865Y4410D01*
X7880D01*
X7870D02*
X7860Y4400D01*
X7830Y4430D02*
X7850D01*
Y4415D01*
X7840Y4420D01*
X7835D01*
X7830Y4415D01*
Y4405D01*
X7835Y4400D01*
X7845D01*
X7850Y4405D01*
X7870Y4600D02*
Y4630D01*
X7855D01*
X7850Y4625D01*
Y4615D01*
X7855Y4610D01*
X7870D01*
X7860D02*
X7850Y4600D01*
X7820Y4630D02*
X7830Y4625D01*
X7840Y4615D01*
Y4605D01*
X7835Y4600D01*
X7825D01*
X7820Y4605D01*
Y4610D01*
X7825Y4615D01*
X7840D01*
X7880Y4300D02*
Y4330D01*
X7865D01*
X7860Y4325D01*
Y4315D01*
X7865Y4310D01*
X7880D01*
X7870D02*
X7860Y4300D01*
X7850Y4330D02*
X7830D01*
Y4325D01*
X7850Y4305D01*
Y4300D01*
X7870Y4200D02*
Y4230D01*
X7855D01*
X7850Y4225D01*
Y4215D01*
X7855Y4210D01*
X7870D01*
X7860D02*
X7850Y4200D01*
X7840Y4225D02*
X7835Y4230D01*
X7825D01*
X7820Y4225D01*
Y4220D01*
X7825Y4215D01*
X7820Y4210D01*
Y4205D01*
X7825Y4200D01*
X7835D01*
X7840Y4205D01*
Y4210D01*
X7835Y4215D01*
X7840Y4220D01*
Y4225D01*
X7835Y4215D02*
X7825D01*
X5510Y3280D02*
Y3250D01*
X5525D01*
X5530Y3255D01*
Y3265D01*
X5525Y3270D01*
X5510D01*
X5520D02*
X5530Y3280D01*
X5540D02*
X5550D01*
X5545D01*
Y3250D01*
X5540Y3255D01*
X5585Y3250D02*
X5565D01*
Y3265D01*
X5575Y3260D01*
X5580D01*
X5585Y3265D01*
Y3275D01*
X5580Y3280D01*
X5570D01*
X5565Y3275D01*
X5620Y3380D02*
X5650D01*
Y3395D01*
X5645Y3400D01*
X5635D01*
X5630Y3395D01*
Y3380D01*
Y3390D02*
X5620Y3400D01*
Y3410D02*
Y3420D01*
Y3415D01*
X5650D01*
X5645Y3410D01*
X5650Y3455D02*
X5645Y3445D01*
X5635Y3435D01*
X5625D01*
X5620Y3440D01*
Y3450D01*
X5625Y3455D01*
X5630D01*
X5635Y3450D01*
Y3435D01*
X2980Y2720D02*
X3010D01*
Y2735D01*
X3005Y2740D01*
X2995D01*
X2990Y2735D01*
Y2720D01*
Y2730D02*
X2980Y2740D01*
X3005Y2750D02*
X3010Y2755D01*
Y2765D01*
X3005Y2770D01*
X3000D01*
X2995Y2765D01*
Y2760D01*
Y2765D01*
X2990Y2770D01*
X2985D01*
X2980Y2765D01*
Y2755D01*
X2985Y2750D01*
X2980Y2795D02*
X3010D01*
X2995Y2780D01*
Y2800D01*
M02*
