M48
METRIC,LZ
;TYPE=PLATED
T1F00S00C0.20
%
T01
X00545Y00248
X0055
X00556
X00553Y00276
X00563
X00546Y00279
X0055Y00351
X00632Y0035
X0064Y00247
X00646
X00652
X00658Y00254
X00682Y0026
X00676Y00268
X00687Y00278
X007Y00268
X00694Y00251
X00688
X00717Y0028
X0067Y00538
X00646
X0064Y00539
X00628Y00538
X00616
X00598
X00589
X00554Y0043
X00532Y0031
X0052Y00305
X00496Y00306
X0049
X00484
X00478
X00472
X00466
X0046
X00454
X00448
X00442
X00436
X0043
X00423
X00418Y00304
X00412
X00406
X004
X00394
X00388
X00369Y00249
X00348Y00245
X00283Y00255
X00277
X00271
X00264
X00268Y00403
X00273
X00278
X00283
X00395Y00461
X00405Y00453
X00413
X00425
X0042Y00446
X0044Y00512
X00442Y00246
X00448
X00454
X0046
X00466
X00472
X00478
X00484
X0049
X00496
X00526Y00248
X00532
X00538
Y00278
X00526Y00281
X00436Y00246
X00442Y00573
X00448
X00454Y00573
X0046Y00573
X00466
X00472Y00573
X00478Y00573
X00484
X0049
X00593Y00542
X00634Y00541
X00664Y00546
X00694Y00545
X00697Y0055
X00718
X0072Y00562
X007Y00573
X00694Y00572
X00682Y00559
X00658Y00573
M30
