%FSLAX42Y42*%
%MOMM*%
G71*
G01*
G75*
G04 Layer_Physical_Order=3*
%ADD10C,0.45*%
%ADD11R,0.30X1.60*%
%ADD12R,0.60X0.50*%
%ADD13R,0.50X0.60*%
%ADD14R,1.20X1.50*%
%ADD15R,1.50X1.20*%
%ADD16R,0.80X0.90*%
%ADD17R,1.60X0.30*%
%ADD18R,1.95X3.40*%
%ADD19R,1.95X1.10*%
%ADD20R,1.45X0.55*%
%ADD21R,0.90X0.80*%
%ADD22R,2.60X2.40*%
%ADD23R,1.00X2.50*%
%ADD24R,2.50X6.00*%
%ADD25R,3.50X3.20*%
%ADD26R,4.50X1.50*%
%ADD27R,1.50X0.35*%
%ADD28C,0.15*%
%ADD29C,0.25*%
%ADD30C,0.15*%
%ADD31C,0.13*%
%ADD32C,0.18*%
%ADD33C,0.30*%
%ADD34C,0.40*%
D28*
X5130Y4260D02*
X6870D01*
X6240Y3030D02*
X6340Y3130D01*
X5560Y2480D02*
Y2630D01*
X5730Y2800D01*
X5927D01*
X6157Y3030D01*
X6240D01*
X5000Y3740D02*
X6960D01*
X7190Y3970D02*
Y4020D01*
X6220Y3060D02*
X6292Y3133D01*
X5630Y2760D02*
X5700Y2830D01*
X5918D01*
X6148Y3060D01*
X6220D01*
X5580Y4140D02*
X6780D01*
X6200Y3090D02*
X6240Y3130D01*
X5500Y2480D02*
Y2680D01*
X5680Y2860D01*
X5909D01*
X6139Y3090D01*
X6200D01*
X5030Y3700D02*
X6960D01*
X7230Y4060D02*
X7270Y4100D01*
X6140Y3130D02*
X6190D01*
X4850Y3520D02*
X5030Y3700D01*
X5530Y2760D02*
X5660Y2890D01*
X5900D01*
X6140Y3130D01*
X5450Y2730D02*
X5650Y2930D01*
X5890D01*
X5100Y3620D02*
X6980D01*
X7310Y4060D02*
X7350Y4100D01*
X4900Y3470D02*
X4950D01*
X5870Y2960D02*
X6040Y3130D01*
X5460Y2790D02*
X5630Y2960D01*
X5870D01*
X5380Y2730D02*
X5420Y2770D01*
Y2800D01*
X5610Y2990D01*
X5850D01*
X5080Y3550D02*
X6960D01*
X7430Y4020D01*
X6320Y3500D02*
Y3550D01*
X5940Y3500D02*
Y3550D01*
X5830Y3020D02*
X5940Y3130D01*
X4905Y3425D02*
X4955D01*
X5380Y2780D02*
Y2800D01*
X5600Y3020D01*
X5830D01*
X5792Y4017D02*
X6870Y4020D01*
X5603Y4017D02*
X5792D01*
X5710Y3050D02*
X5790Y3130D01*
X5320Y2480D02*
Y2780D01*
X5590Y3050D01*
X5710D01*
X5070Y3380D02*
X7040D01*
X7590Y3930D02*
Y4020D01*
X5320Y3100D02*
Y3380D01*
X5260Y2480D02*
Y2760D01*
X5685Y3420D02*
X5692Y3428D01*
X5690Y3110D02*
Y3130D01*
X5670Y3090D02*
X5690Y3110D01*
X5550Y3090D02*
X5670D01*
X4580Y3780D02*
X4620D01*
X5450Y2990D02*
X5550Y3090D01*
X5390Y2990D02*
X5450D01*
X5300Y2900D02*
X5390Y2990D01*
X5300Y2800D02*
Y2900D01*
X5260Y2760D02*
X5300Y2800D01*
X5550Y3130D02*
X5645D01*
X5260Y2810D02*
Y2910D01*
X5370Y3020D01*
X5440D01*
X5550Y3130D01*
X5450D02*
X5490D01*
X5200Y3050D02*
X5370D01*
X5450Y3130D01*
X3480Y2450D02*
Y2550D01*
X2945Y2885D02*
X3160Y2670D01*
X3410Y2620D02*
X3480Y2550D01*
X3180Y2620D02*
X3410D01*
X3160Y2640D02*
X3180Y2620D01*
X3160Y2640D02*
Y2670D01*
X3690Y2490D02*
Y2570D01*
X2995Y2885D02*
X3160Y2720D01*
X3540D02*
X3690Y2570D01*
X3160Y2720D02*
X3540D01*
X2680Y3940D02*
Y4030D01*
X2640Y2550D02*
Y2730D01*
X2570Y2800D02*
X2640Y2730D01*
X2570Y2800D02*
Y3830D01*
X2680Y3940D01*
X2730Y3950D02*
Y4030D01*
X2710Y2550D02*
Y2710D01*
X2600Y2820D02*
X2710Y2710D01*
X2600Y2820D02*
Y3820D01*
X2730Y3950D01*
X2780Y3750D02*
Y4030D01*
X2770Y2550D02*
Y2700D01*
X2630Y2840D02*
X2770Y2700D01*
X2630Y2840D02*
Y3600D01*
X2780Y3750D01*
X2830Y3760D02*
Y4030D01*
Y2550D02*
Y2680D01*
X2660Y2850D02*
X2830Y2680D01*
X2660Y2850D02*
Y3590D01*
X2830Y3760D01*
X5030Y4060D02*
X6770D01*
X4997Y4093D02*
Y4380D01*
X4925Y4525D02*
X4960Y4490D01*
Y4417D02*
X4997Y4380D01*
X4960Y4417D02*
Y4490D01*
X3630Y5360D02*
X3690Y5420D01*
X4440Y5690D02*
X4480Y5730D01*
X3630Y4530D02*
Y5360D01*
X3730Y5730D02*
X4420D01*
X3590Y4390D02*
Y5590D01*
X4470Y5660D02*
X4540Y5730D01*
X3720Y5410D02*
Y5630D01*
X3675Y5365D02*
X3720Y5410D01*
X3675Y4625D02*
Y5365D01*
X3710Y4730D02*
Y5290D01*
X4500Y5630D02*
X4600Y5730D01*
X3760Y4880D02*
Y5260D01*
X4530Y5600D02*
X4660Y5730D01*
X3960Y5490D02*
X4040Y5570D01*
X4560D02*
X4720Y5730D01*
X3859Y5320D02*
X3950D01*
X4370D02*
X4780Y5730D01*
X3795Y5225D02*
Y5256D01*
X3859Y5320D01*
X3950D02*
X4370D01*
X3949Y5319D02*
X3950Y5320D01*
X3949Y5319D02*
X3950Y5320D01*
X3939Y5269D02*
X4379D01*
X4840Y5730D01*
X3895Y5225D02*
X3939Y5269D01*
X4400Y5230D02*
X4900Y5730D01*
X4100Y5230D02*
X4400D01*
X5890Y5180D02*
X5970Y5100D01*
X7390Y4860D02*
X7430Y4820D01*
X5890Y5180D02*
Y5380D01*
X6990Y5020D02*
X7030Y4980D01*
X5930Y5250D02*
X5990Y5190D01*
X5930Y5250D02*
Y5420D01*
X6190Y5470D02*
X6280Y5380D01*
X4300Y4530D02*
X5240Y5470D01*
X6280Y5350D02*
Y5380D01*
X7290Y5280D02*
X7430Y5140D01*
X4250Y4530D02*
X4300D01*
X5240Y5470D02*
X6190D01*
X6340Y5410D02*
Y5440D01*
X4130Y4530D02*
X4937Y5337D01*
X6400Y5390D02*
Y5430D01*
X4050Y4530D02*
X5050Y5530D01*
X6300D01*
X6400Y5430D01*
X5100Y5500D02*
X6280D01*
X6340Y5440D01*
X4000Y4540D02*
X5120Y5660D01*
X6400Y5690D02*
Y5730D01*
X6370Y5660D02*
X6400Y5690D01*
X4030Y4460D02*
X4200D01*
X5120Y5660D02*
X6370D01*
X4000Y4490D02*
X4030Y4460D01*
X4000Y4490D02*
Y4540D01*
X4400Y5060D02*
Y5120D01*
X3950Y4610D02*
X4400Y5060D01*
X6980Y4940D02*
X7230D01*
X7310Y4860D01*
X7390D01*
X5990Y5190D02*
X6590D01*
X6960Y5100D02*
X6990Y5070D01*
Y5020D02*
Y5070D01*
X6590Y5190D02*
X6680Y5100D01*
X6960D01*
X5970D02*
X6620D01*
X6700Y5020D01*
X6900D01*
X6980Y4940D01*
X6890D02*
X6910Y4920D01*
X6540Y4990D02*
X6590Y4940D01*
X6910Y4860D02*
Y4920D01*
X6870Y4820D02*
X6910Y4860D01*
X6540Y4990D02*
Y5050D01*
X6590Y4940D02*
X6890D01*
X6540Y4900D02*
X6870D01*
X6910Y4150D02*
Y4760D01*
Y4150D02*
X6920Y4140D01*
X7390D02*
X7430Y4100D01*
X5820Y4820D02*
X6790D01*
X6830Y4780D01*
X6890D01*
X6910Y4760D01*
X4937Y5337D02*
X5100Y5500D01*
X7130Y5660D02*
X7750D01*
X7830Y5140D02*
Y5580D01*
X6970Y5500D02*
X7130Y5660D01*
X6989Y5450D02*
X7020Y5481D01*
X7670Y5060D02*
X7710Y5100D01*
X7020Y5481D02*
X7078D01*
X6940Y5450D02*
X6989D01*
X7043Y5453D02*
X7296D01*
X6647D02*
X6720D01*
X7590Y5140D02*
Y5330D01*
X6640Y5460D02*
X6647Y5453D01*
X6997Y5408D02*
X7043Y5453D01*
X6720D02*
X6766Y5408D01*
X6997D01*
X7050Y5420D02*
X7289D01*
X7010Y5380D02*
X7050Y5420D01*
X7550Y5100D02*
X7590Y5060D01*
X6580Y5450D02*
Y5730D01*
X6610Y5420D02*
X6710D01*
X6750Y5380D01*
X7010D01*
X7549Y5160D02*
X7550D01*
Y5100D02*
Y5160D01*
X6580Y5450D02*
X6610Y5420D01*
X7289D02*
X7549Y5160D01*
X6820Y5590D02*
Y5700D01*
X7830Y5060D02*
X7890D01*
X7750Y5140D02*
Y5500D01*
X7240Y5580D02*
X7670D01*
X7200Y5620D02*
X7240Y5580D01*
X6940Y5820D02*
X7740D01*
X6820Y5700D02*
X6940Y5820D01*
X7030Y5690D02*
X7070Y5730D01*
X7750Y5060D02*
X7790Y5100D01*
X6970Y5690D02*
X7030D01*
X6940Y5720D02*
X6970Y5690D01*
X7070Y5730D02*
X7730D01*
X7790Y5100D02*
X7850D01*
X7730Y5730D02*
X7870Y5590D01*
Y5120D02*
Y5590D01*
X7850Y5100D02*
X7870Y5120D01*
X7740Y5820D02*
X7950Y5610D01*
Y5120D02*
Y5610D01*
X7890Y5060D02*
X7950Y5120D01*
X7150Y5553D02*
X7647D01*
X7078Y5481D02*
X7150Y5553D01*
X7720Y5790D02*
X7910Y5600D01*
Y5140D02*
Y5600D01*
X7000Y5730D02*
X7060Y5790D01*
X7720D01*
X7670Y5140D02*
Y5470D01*
X7180Y5500D02*
X7205Y5525D01*
X7340Y5497D02*
X7562D01*
X7296Y5453D02*
X7340Y5497D01*
X7600Y5340D02*
Y5460D01*
X7562Y5497D02*
X7600Y5460D01*
X7205Y5525D02*
X7615D01*
X7670Y5470D01*
X7710Y5100D02*
Y5490D01*
X7647Y5553D02*
X7710Y5490D01*
X6720Y5340D02*
X7330D01*
X7510Y5160D01*
Y5140D02*
Y5160D01*
X6700Y5360D02*
Y5380D01*
X7470Y5100D02*
Y5160D01*
X6500Y5310D02*
X7320D01*
X7470Y5160D01*
Y5100D02*
X7510Y5060D01*
X6460Y5350D02*
Y5380D01*
X7188Y5222D02*
X7270Y5140D01*
X6008Y5222D02*
X7188D01*
X5980Y5250D02*
Y5380D01*
Y5250D02*
X6008Y5222D01*
X7350Y5060D02*
Y5160D01*
X6190Y5250D02*
X7260D01*
X6160Y5280D02*
Y5380D01*
Y5280D02*
X6190Y5250D01*
X6350Y5280D02*
X7290D01*
X6280Y5350D02*
X6350Y5280D01*
X6460Y5350D02*
X6500Y5310D01*
X6700Y5360D02*
X6720Y5340D01*
X7260Y5250D02*
X7350Y5160D01*
X7440Y4990D02*
X7490Y4940D01*
X7220Y2960D02*
X7710Y3450D01*
X6420Y2960D02*
X7220D01*
X6400Y2940D02*
X6420Y2960D01*
X7510Y4530D02*
Y4820D01*
X7180Y2990D02*
X7630Y3440D01*
X6380Y2990D02*
X7180D01*
X6340Y2950D02*
X6380Y2990D01*
X7710Y3450D02*
Y4450D01*
X7700Y4460D02*
X7710Y4450D01*
X7620Y4460D02*
X7700D01*
X7550Y4530D02*
X7620Y4460D01*
X7550Y4530D02*
Y4930D01*
X7540Y4940D02*
X7550Y4930D01*
X7490Y4940D02*
X7540D01*
X7630Y3440D02*
Y4410D01*
X7510Y4530D02*
X7630Y4410D01*
Y4540D02*
X7770D01*
X7790Y4520D01*
Y4570D02*
X7890Y4470D01*
X7790Y4570D02*
Y4600D01*
X7770Y4620D02*
X7790Y4600D01*
X7710Y4620D02*
X7770D01*
X7870Y4550D02*
X7922Y4497D01*
X7870Y4550D02*
Y4600D01*
X7850Y4620D02*
X7870Y4600D01*
X7820Y4620D02*
X7850D01*
X7780Y4660D02*
X7820Y4620D01*
X7850Y4740D02*
X7950Y4640D01*
X7980Y4820D02*
X8110D01*
X8180Y4750D01*
X8080Y4780D02*
X8150Y4710D01*
X7790Y4860D02*
X7940D01*
X7980Y4820D01*
X8080Y4700D02*
X8120Y4660D01*
X8060Y4620D02*
X8090Y4590D01*
X8240Y3440D02*
Y4830D01*
X8130Y4940D02*
X8240Y4830D01*
X7870Y4940D02*
X8130D01*
X8040Y4300D02*
X8060Y4280D01*
X8210Y3460D02*
Y4810D01*
X8160Y4860D02*
X8210Y4810D01*
X4040Y5570D02*
X4560D01*
X3760Y5260D02*
X3900Y5400D01*
Y5560D01*
X3940Y5600D01*
X4530D01*
X3710Y5290D02*
X3800Y5380D01*
Y5610D01*
X3820Y5630D01*
X4500D01*
X3720D02*
X3750Y5660D01*
X4470D01*
X3690Y5420D02*
Y5640D01*
X3740Y5690D01*
X4440D01*
X3590Y5590D02*
X3730Y5730D01*
X3640Y2770D02*
X3710Y2700D01*
X4350Y2470D02*
X4360Y2460D01*
X3890Y2470D02*
X4350D01*
X3595Y2885D02*
X3640Y2840D01*
X3679Y2731D02*
X3680D01*
Y2730D02*
Y2731D01*
X3640Y2770D02*
Y2840D01*
X3710Y2650D02*
X3890Y2470D01*
X3710Y2650D02*
Y2700D01*
X3790Y2710D02*
X3861Y2639D01*
X3790Y2710D02*
Y2780D01*
X4480Y2460D02*
Y2490D01*
X3740Y2830D02*
Y2880D01*
X4380Y2500D02*
X4420Y2460D01*
X3690Y2830D02*
X3740Y2780D01*
X3690Y2830D02*
Y2880D01*
X3960Y2500D02*
X4380D01*
X3740Y2720D02*
X3960Y2500D01*
X3740Y2720D02*
Y2780D01*
Y2830D02*
X3790Y2780D01*
X3861Y2639D02*
X3967Y2533D01*
X4438D01*
X4480Y2490D01*
X4540Y2460D02*
Y2540D01*
X3795Y2845D02*
Y2885D01*
X4520Y2560D02*
X4540Y2540D01*
X4040Y2560D02*
X4520D01*
X3950Y2650D02*
X4040Y2560D01*
X3950Y2650D02*
Y2690D01*
X3795Y2845D02*
X3950Y2690D01*
X4600Y2460D02*
Y2550D01*
X3850Y2850D02*
Y2880D01*
Y2850D02*
X4107Y2593D01*
X4557D01*
X4600Y2550D01*
X4660Y2460D02*
Y2600D01*
X3933Y2847D02*
X3983D01*
X3895Y2885D02*
X3933Y2847D01*
X4640Y2620D02*
X4660Y2600D01*
X4180Y2620D02*
X4640D01*
X4140Y2660D02*
X4180Y2620D01*
X4140Y2660D02*
Y2690D01*
X3983Y2847D02*
X4140Y2690D01*
X4180Y2700D02*
X4680D01*
X4720Y2460D02*
Y2660D01*
X3945Y2885D02*
X3995D01*
X4180Y2700D01*
X4410Y2870D02*
X4720D01*
X4960Y2460D02*
Y2630D01*
X4395Y2885D02*
X4410Y2870D01*
X4390Y2840D02*
X4700D01*
X4900Y2460D02*
Y2640D01*
X4345Y2885D02*
X4390Y2840D01*
X4270Y2810D02*
X4680D01*
X4840Y2460D02*
Y2650D01*
X4195Y2885D02*
X4270Y2810D01*
X4220Y2730D02*
X4710D01*
X4780Y2460D02*
Y2660D01*
X4095Y2855D02*
X4220Y2730D01*
X4095Y2855D02*
Y2885D01*
X4680Y2700D02*
X4720Y2660D01*
X4710Y2730D02*
X4780Y2660D01*
X4680Y2810D02*
X4840Y2650D01*
X4700Y2840D02*
X4900Y2640D01*
X4720Y2870D02*
X4960Y2630D01*
X2820Y3060D02*
X3860D01*
X3880Y3040D01*
X2750Y3130D02*
X2820Y3060D01*
X2850Y3100D02*
X3890D01*
X3940Y3040D02*
Y3050D01*
X2780Y3170D02*
X2850Y3100D01*
X3890D02*
X3940Y3050D01*
X2860Y3140D02*
X3950D01*
X4000Y3040D02*
Y3090D01*
X2720Y3280D02*
Y3320D01*
X3950Y3140D02*
X4000Y3090D01*
X2870Y3180D02*
X4040D01*
X4060Y3040D02*
Y3160D01*
X2760Y3290D02*
Y3370D01*
X4040Y3180D02*
X4060Y3160D01*
X2890Y3210D02*
X4090D01*
X4120Y3040D02*
Y3180D01*
X2790Y3310D02*
Y3430D01*
X4090Y3210D02*
X4120Y3180D01*
X2900Y3250D02*
X4130D01*
X4180Y3040D02*
Y3200D01*
X2830Y3320D02*
Y3470D01*
X4130Y3250D02*
X4180Y3200D01*
X2920Y3280D02*
X4160D01*
X4210Y3080D02*
X4230Y3060D01*
X2820Y3570D02*
X2880Y3510D01*
X4210Y3080D02*
Y3230D01*
X4160Y3280D02*
X4210Y3230D01*
X2910Y3570D02*
X3931D01*
X4300Y3060D02*
Y3201D01*
X2860Y3620D02*
X2910Y3570D01*
X3931D02*
X4300Y3201D01*
X3890Y3650D02*
X4360Y3180D01*
Y3060D02*
Y3180D01*
X3890Y3650D02*
Y3670D01*
X3935Y3695D02*
X4420Y3210D01*
Y3060D02*
Y3210D01*
X3935Y3695D02*
Y3725D01*
X4000Y3690D02*
X4480Y3210D01*
Y3060D02*
Y3210D01*
X4000Y3690D02*
Y3720D01*
X4540Y3060D02*
Y3120D01*
X4050Y3680D02*
X4515Y3215D01*
X4050Y3680D02*
Y3720D01*
X4515Y3145D02*
X4540Y3120D01*
X4515Y3145D02*
Y3215D01*
X4600Y3060D02*
Y3100D01*
X4120Y3650D02*
Y3710D01*
X4110Y3720D02*
X4120Y3710D01*
Y3650D02*
X4542Y3228D01*
Y3158D02*
X4600Y3100D01*
X4542Y3158D02*
Y3228D01*
X4660Y3060D02*
Y3080D01*
X4170Y3640D02*
X4570Y3240D01*
X4170Y3640D02*
Y3720D01*
X4570Y3170D02*
X4660Y3080D01*
X4570Y3170D02*
Y3240D01*
X4230Y3630D02*
X4720Y3140D01*
Y3060D02*
Y3140D01*
X4230Y3630D02*
Y3690D01*
X4280Y3640D02*
Y3720D01*
Y3640D02*
X4780Y3140D01*
Y3060D02*
Y3140D01*
X4840Y3060D02*
Y3130D01*
X4340Y3690D02*
X4735Y3295D01*
Y3235D02*
X4840Y3130D01*
X4735Y3235D02*
Y3295D01*
X4900Y3060D02*
Y3120D01*
X4380Y3730D02*
X4762Y3347D01*
Y3258D02*
X4900Y3120D01*
X4762Y3258D02*
Y3347D01*
X4960Y3060D02*
Y3170D01*
X4420Y3750D02*
X4790Y3380D01*
Y3340D02*
X4960Y3170D01*
X4790Y3340D02*
Y3380D01*
X6450Y4860D02*
X6750D01*
X6340Y4740D02*
X6870D01*
X6240Y4700D02*
X6760D01*
X6090Y4620D02*
X6750D01*
X5360Y4340D02*
X6870D01*
X4840Y4710D02*
X4990D01*
X4980Y3940D02*
X6910D01*
X6980Y4050D02*
X7030Y4100D01*
X4895Y4375D02*
X4942Y4328D01*
X4930Y3780D02*
X6940D01*
X4875Y3835D02*
Y4275D01*
X5390Y4420D02*
X6870D01*
X4865Y4875D02*
X4870Y4880D01*
X7590Y5330D02*
X7600Y5340D01*
X7670Y5580D02*
X7750Y5500D01*
Y5660D02*
X7830Y5580D01*
X2720Y3280D02*
X2860Y3140D01*
X2760Y3290D02*
X2870Y3180D01*
X2790Y3310D02*
X2890Y3210D01*
X2830Y3320D02*
X2900Y3250D01*
X2880Y3320D02*
X2920Y3280D01*
X2880Y3320D02*
Y3510D01*
X6080Y4540D02*
X6760D01*
X6890Y3980D02*
X6910Y4000D01*
Y4060D01*
X6950Y4100D01*
X6980Y4010D02*
Y4050D01*
X7070Y4000D02*
Y4060D01*
X7150D02*
X7190Y4100D01*
X7150Y3990D02*
Y4060D01*
X7230Y3970D02*
Y4060D01*
X7310Y3950D02*
Y4060D01*
X6910Y3940D02*
X6980Y4010D01*
X6930Y3860D02*
X7070Y4000D01*
X6930Y3820D02*
X7110Y4000D01*
X6940Y3780D02*
X7150Y3990D01*
X6960Y3740D02*
X7190Y3970D01*
X6960Y3700D02*
X7230Y3970D01*
X6970Y3660D02*
X7270Y3960D01*
X6980Y3620D02*
X7310Y3950D01*
X6440Y3820D02*
X6443Y3817D01*
X7110Y4000D02*
Y4020D01*
X6443Y3817D02*
X6930Y3820D01*
X5990Y4460D02*
X6760D01*
X4890Y3630D02*
X5000Y3740D01*
X6940Y4340D02*
X6950D01*
X4870Y4880D02*
X4930D01*
X5390Y4420D01*
X4995Y4925D02*
X5420Y4500D01*
X4990Y4710D02*
X5360Y4340D01*
X5039Y4711D02*
X5370Y4380D01*
X4870Y4750D02*
X5000D01*
X5000D02*
X5039Y4711D01*
X5050Y3460D02*
X5300D01*
X4840Y3380D02*
X4970D01*
X4640Y3580D02*
X4840Y3380D01*
X4640Y3580D02*
Y3760D01*
X4620Y3780D02*
X4640Y3760D01*
X4970Y3380D02*
X5050Y3460D01*
X5340Y3420D02*
X5685D01*
X5300Y3460D02*
X5340Y3420D01*
X6940Y4420D02*
X6950D01*
X6920Y4140D02*
X7390D01*
X7550D02*
X7590Y4180D01*
X5772Y3408D02*
X7028D01*
X5710Y3470D02*
X5772Y3408D01*
X5512Y3497D02*
X5883D01*
X5920Y3460D01*
X5990D01*
X6020Y3490D01*
X5390Y3500D02*
X5420Y3470D01*
X5320Y3500D02*
X5390D01*
X5420Y3470D02*
X5710D01*
X6200Y3490D02*
X6240Y3450D01*
X6020Y3490D02*
X6200D01*
X7040Y3380D02*
X7590Y3930D01*
X7028Y3408D02*
X7550Y3930D01*
Y4140D01*
X7470Y3980D02*
Y4380D01*
X5500Y3510D02*
X5512Y3497D01*
X7510Y3940D02*
Y4100D01*
X6240Y3450D02*
X7020D01*
X7510Y3940D01*
X6980Y3490D02*
X7470Y3980D01*
Y4380D02*
X7510Y4420D01*
X6520Y3490D02*
X6980D01*
X5540Y4300D02*
X6220D01*
X6770Y4300D01*
X4900Y3810D02*
X4930Y3780D01*
X4875Y3835D02*
X4900Y3810D01*
X4915Y3935D02*
X4990Y3860D01*
X4915Y3935D02*
Y4295D01*
X4942Y3978D02*
X4980Y3940D01*
X4942Y3978D02*
Y4328D01*
X4970Y4030D02*
X5020Y3980D01*
X4970Y4030D02*
Y4350D01*
X4997Y4093D02*
X5030Y4060D01*
X4955Y3425D02*
X5080Y3550D01*
X4950Y3470D02*
X5100Y3620D01*
X4860Y3480D02*
X5040Y3660D01*
X4820Y3480D02*
X4860D01*
X4790Y3510D02*
X4820Y3480D01*
X4790Y3510D02*
Y4130D01*
X4840Y4180D01*
X7270Y3960D02*
Y4020D01*
X5040Y3660D02*
X6970D01*
X5025Y4155D02*
X5080Y4100D01*
X5025Y4155D02*
Y4465D01*
X5052Y4208D02*
X5080Y4180D01*
X5052Y4208D02*
Y4508D01*
X4935Y4625D02*
X5052Y4508D01*
X5080Y4250D02*
X5110Y4220D01*
X5080Y4250D02*
Y4520D01*
X4925Y4675D02*
X5080Y4520D01*
X5080Y4100D02*
X5390D01*
X5015Y4475D02*
X5025Y4465D01*
X5390Y4100D02*
X6870D01*
X4885Y4325D02*
X4915Y4295D01*
X7070Y4060D02*
X7110Y4100D01*
X4990Y3860D02*
X6930D01*
X4895Y4425D02*
X4970Y4350D01*
X5020Y3980D02*
X6890D01*
X6190Y4580D02*
X6870D01*
X6390Y4780D02*
X6760D01*
X6290Y4660D02*
X6870D01*
X4865Y4925D02*
X4995D01*
X5420Y4500D02*
X6870D01*
X4860Y4760D02*
X4870Y4750D01*
X5370Y4380D02*
X6770D01*
X4865Y4675D02*
X4925D01*
X5110Y4220D02*
X6780D01*
X4865Y4625D02*
X4935D01*
X5080Y4180D02*
X6870D01*
X6500Y2400D02*
X7200D01*
X6460Y2440D02*
X6500Y2400D01*
X6460Y2440D02*
Y2470D01*
X7830Y4900D02*
X7870Y4940D01*
X7200Y2400D02*
X8240Y3440D01*
X6560Y2430D02*
X7180D01*
X8000Y4860D02*
X8160D01*
X6520Y2470D02*
X6560Y2430D01*
X7180D02*
X8210Y3460D01*
X7169Y2458D02*
X8180Y3469D01*
X6593Y2458D02*
X7169D01*
X6540Y2510D02*
X6593Y2458D01*
X6400Y2470D02*
Y2500D01*
X6410Y2510D01*
X6540D01*
X7750Y4900D02*
X7790Y4860D01*
X8180Y3469D02*
Y4750D01*
X8150Y3480D02*
Y4710D01*
X6940Y2510D02*
X7180D01*
X7211Y2541D02*
X8150Y3480D01*
X7180Y2510D02*
X7211Y2541D01*
X8000Y4780D02*
X8080D01*
X7180Y2550D02*
X8120Y3490D01*
X6920Y2550D02*
X7180D01*
X6880Y2510D02*
X6920Y2550D01*
X8000Y4700D02*
X8080D01*
X8120Y3490D02*
Y4660D01*
X7168Y2577D02*
X8090Y3500D01*
X6843Y2577D02*
X7168D01*
X8090Y3500D02*
Y4590D01*
X7155Y2605D02*
X8060Y3510D01*
X6965Y2605D02*
X7155D01*
X8000Y4300D02*
X8040D01*
X8060Y3510D02*
Y4280D01*
X7151Y2640D02*
X8032Y3521D01*
Y4188D01*
X6820Y2600D02*
X6843Y2577D01*
X8000Y4620D02*
X8060D01*
X7152Y2680D02*
X7950Y3478D01*
X7000Y2680D02*
X7152D01*
X7750Y4740D02*
X7850D01*
X7950Y3478D02*
Y4640D01*
X7153Y2720D02*
X7922Y3489D01*
Y4497D01*
X7194Y2800D02*
X7890Y3496D01*
X7170Y2800D02*
X7194D01*
X7670Y4660D02*
X7710Y4620D01*
X7890Y3496D02*
Y4470D01*
X7216Y2860D02*
X7790Y3434D01*
X6950Y2860D02*
X7216D01*
X6870Y2780D02*
X6950Y2860D01*
X7590Y4580D02*
X7630Y4540D01*
X7790Y3434D02*
Y4520D01*
X6760Y2680D02*
X6800Y2640D01*
X8000Y4220D02*
X8032Y4188D01*
X6800Y2640D02*
X7151D01*
X6580Y2620D02*
X6680Y2720D01*
X6580Y2540D02*
Y2620D01*
X7750Y4660D02*
X7780D01*
X6680Y2720D02*
X7153D01*
X6510Y3900D02*
X6910D01*
X7030Y4020D01*
X5450Y2480D02*
Y2730D01*
X5890Y2930D02*
X6090Y3130D01*
X5380Y2480D02*
Y2730D01*
X5850Y2990D02*
X5990Y3130D01*
D29*
X7860Y2577D02*
X7885Y2602D01*
X7936D01*
X7962Y2577D01*
Y2552D01*
X7936Y2526D01*
X7911D01*
X7936D01*
X7962Y2501D01*
Y2475D01*
X7936Y2450D01*
X7885D01*
X7860Y2475D01*
X9060Y6051D02*
X9115D01*
X9065Y2251D02*
X9110D01*
X9090Y4502D02*
Y6051D01*
Y2251D02*
Y3710D01*
X9039Y5898D02*
X9090Y6051D01*
X9141Y5898D01*
X9090Y2251D02*
X9141Y2403D01*
X9039D02*
X9090Y2251D01*
X1457Y1815D02*
Y1865D01*
X8557Y1800D02*
Y1865D01*
X1457Y1840D02*
X4583D01*
X5350D02*
X8557D01*
X1457D02*
X1610Y1789D01*
X1457Y1840D02*
X1610Y1891D01*
X8405D02*
X8557Y1840D01*
X8405Y1789D02*
X8557Y1840D01*
X8530Y170D02*
Y1170D01*
X7480Y660D02*
X9900D01*
X7480Y180D02*
Y1170D01*
X4340Y190D02*
Y1170D01*
X9900D01*
Y170D02*
Y6540D01*
Y6510D02*
X9930Y6540D01*
X290D02*
X9930D01*
X290Y170D02*
Y6540D01*
Y170D02*
X9900D01*
X9090Y977D02*
X9115Y1002D01*
X9166D01*
X9192Y977D01*
Y875D01*
X9166Y850D01*
X9115D01*
X9090Y875D01*
Y977D01*
X9242Y850D02*
Y952D01*
X9293Y1002D01*
X9344Y952D01*
Y850D01*
Y926D01*
X9242D01*
D30*
X9078Y3751D02*
X9053Y3776D01*
Y3827D01*
X9078Y3852D01*
X9104D01*
X9129Y3827D01*
Y3801D01*
Y3827D01*
X9155Y3852D01*
X9180D01*
X9205Y3827D01*
Y3776D01*
X9180Y3751D01*
X9078Y3903D02*
X9053Y3928D01*
Y3979D01*
X9078Y4005D01*
X9104D01*
X9129Y3979D01*
X9155Y4005D01*
X9180D01*
X9205Y3979D01*
Y3928D01*
X9180Y3903D01*
X9155D01*
X9129Y3928D01*
X9104Y3903D01*
X9078D01*
X9129Y3928D02*
Y3979D01*
X9231Y4081D02*
X9205Y4106D01*
X9180D01*
Y4081D01*
X9205D01*
Y4106D01*
X9231Y4081D01*
X9256Y4055D01*
X9078Y4208D02*
X9053Y4233D01*
Y4284D01*
X9078Y4309D01*
X9180D01*
X9205Y4284D01*
Y4233D01*
X9180Y4208D01*
X9078D01*
Y4360D02*
X9053Y4385D01*
Y4436D01*
X9078Y4462D01*
X9180D01*
X9205Y4436D01*
Y4385D01*
X9180Y4360D01*
X9078D01*
X4624Y1876D02*
X4725D01*
Y1850D01*
X4624Y1749D01*
Y1723D01*
X4776D02*
X4827D01*
X4802D01*
Y1876D01*
X4776Y1850D01*
X4928Y1698D02*
X4954Y1723D01*
Y1749D01*
X4928D01*
Y1723D01*
X4954D01*
X4928Y1698D01*
X4903Y1672D01*
X5055Y1850D02*
X5081Y1876D01*
X5132D01*
X5157Y1850D01*
Y1749D01*
X5132Y1723D01*
X5081D01*
X5055Y1749D01*
Y1850D01*
X5208D02*
X5233Y1876D01*
X5284D01*
X5309Y1850D01*
Y1749D01*
X5284Y1723D01*
X5233D01*
X5208Y1749D01*
Y1850D01*
D31*
X8750Y455D02*
X8767Y472D01*
X8801D01*
X8818Y455D01*
Y438D01*
X8801Y421D01*
X8784D01*
X8801D01*
X8818Y404D01*
Y387D01*
X8801Y370D01*
X8767D01*
X8750Y387D01*
X8852Y455D02*
X8868Y472D01*
X8902D01*
X8919Y455D01*
Y387D01*
X8902Y370D01*
X8868D01*
X8852Y387D01*
Y455D01*
X8953Y370D02*
Y387D01*
X8970D01*
Y370D01*
X8953D01*
X9038Y455D02*
X9055Y472D01*
X9089D01*
X9105Y455D01*
Y387D01*
X9089Y370D01*
X9055D01*
X9038Y387D01*
Y455D01*
X9139D02*
X9156Y472D01*
X9190D01*
X9207Y455D01*
Y438D01*
X9190Y421D01*
X9207Y404D01*
Y387D01*
X9190Y370D01*
X9156D01*
X9139Y387D01*
Y404D01*
X9156Y421D01*
X9139Y438D01*
Y455D01*
X9156Y421D02*
X9190D01*
X9241Y370D02*
Y387D01*
X9258D01*
Y370D01*
X9241D01*
X9393D02*
X9326D01*
X9393Y438D01*
Y455D01*
X9376Y472D01*
X9342D01*
X9326Y455D01*
X9427D02*
X9444Y472D01*
X9478D01*
X9495Y455D01*
Y387D01*
X9478Y370D01*
X9444D01*
X9427Y387D01*
Y455D01*
X9529D02*
X9546Y472D01*
X9579D01*
X9596Y455D01*
Y387D01*
X9579Y370D01*
X9546D01*
X9529Y387D01*
Y455D01*
X9698Y472D02*
X9630D01*
Y421D01*
X9664Y438D01*
X9681D01*
X9698Y421D01*
Y387D01*
X9681Y370D01*
X9647D01*
X9630Y387D01*
X5690Y870D02*
Y972D01*
X5758Y870D01*
Y972D01*
X5859Y955D02*
X5842Y972D01*
X5808D01*
X5792Y955D01*
Y887D01*
X5808Y870D01*
X5842D01*
X5859Y887D01*
X470Y318D02*
X514D01*
X528Y323D01*
X533Y328D01*
X538Y338D01*
Y352D01*
X533Y362D01*
X528Y367D01*
X514Y372D01*
X470D01*
Y270D01*
X560Y338D02*
Y270D01*
Y309D02*
X565Y323D01*
X575Y333D01*
X585Y338D01*
X599D01*
X633D02*
X623Y333D01*
X613Y323D01*
X608Y309D01*
Y299D01*
X613Y285D01*
X623Y275D01*
X633Y270D01*
X647D01*
X657Y275D01*
X666Y285D01*
X671Y299D01*
Y309D01*
X666Y323D01*
X657Y333D01*
X647Y338D01*
X633D01*
X693D02*
Y236D01*
Y323D02*
X703Y333D01*
X713Y338D01*
X727D01*
X737Y333D01*
X747Y323D01*
X752Y309D01*
Y299D01*
X747Y285D01*
X737Y275D01*
X727Y270D01*
X713D01*
X703Y275D01*
X693Y285D01*
X773Y309D02*
X831D01*
Y318D01*
X826Y328D01*
X822Y333D01*
X812Y338D01*
X797D01*
X788Y333D01*
X778Y323D01*
X773Y309D01*
Y299D01*
X778Y285D01*
X788Y275D01*
X797Y270D01*
X812D01*
X822Y275D01*
X831Y285D01*
X853Y338D02*
Y270D01*
Y309D02*
X858Y323D01*
X868Y333D01*
X877Y338D01*
X892D01*
X915Y372D02*
Y289D01*
X920Y275D01*
X930Y270D01*
X940D01*
X901Y338D02*
X935D01*
X959D02*
X988Y270D01*
X1017Y338D02*
X988Y270D01*
X978Y251D01*
X969Y241D01*
X959Y236D01*
X954D01*
X1138Y338D02*
X1128Y333D01*
X1119Y323D01*
X1114Y309D01*
Y299D01*
X1119Y285D01*
X1128Y275D01*
X1138Y270D01*
X1153D01*
X1162Y275D01*
X1172Y285D01*
X1177Y299D01*
Y309D01*
X1172Y323D01*
X1162Y333D01*
X1153Y338D01*
X1138D01*
X1238Y372D02*
X1228D01*
X1218Y367D01*
X1213Y352D01*
Y270D01*
X1199Y338D02*
X1233D01*
X1346Y372D02*
Y289D01*
X1351Y275D01*
X1361Y270D01*
X1371D01*
X1332Y338D02*
X1366D01*
X1385Y372D02*
Y270D01*
Y318D02*
X1400Y333D01*
X1409Y338D01*
X1424D01*
X1434Y333D01*
X1438Y318D01*
Y270D01*
X1465Y309D02*
X1523D01*
Y318D01*
X1518Y328D01*
X1513Y333D01*
X1504Y338D01*
X1489D01*
X1479Y333D01*
X1470Y323D01*
X1465Y309D01*
Y299D01*
X1470Y285D01*
X1479Y275D01*
X1489Y270D01*
X1504D01*
X1513Y275D01*
X1523Y285D01*
X1702Y270D02*
X1663Y372D01*
X1625Y270D01*
X1639Y304D02*
X1687D01*
X1726Y338D02*
Y270D01*
Y309D02*
X1731Y323D01*
X1740Y333D01*
X1750Y338D01*
X1764D01*
X1774D02*
Y270D01*
Y318D02*
X1788Y333D01*
X1798Y338D01*
X1812D01*
X1822Y333D01*
X1827Y318D01*
Y270D01*
Y318D02*
X1841Y333D01*
X1851Y338D01*
X1865D01*
X1875Y333D01*
X1880Y318D01*
Y270D01*
X1970Y338D02*
Y270D01*
Y323D02*
X1960Y333D01*
X1951Y338D01*
X1936D01*
X1926Y333D01*
X1917Y323D01*
X1912Y309D01*
Y299D01*
X1917Y285D01*
X1926Y275D01*
X1936Y270D01*
X1951D01*
X1960Y275D01*
X1970Y285D01*
X2055Y372D02*
Y270D01*
Y323D02*
X2045Y333D01*
X2036Y338D01*
X2021D01*
X2012Y333D01*
X2002Y323D01*
X1997Y309D01*
Y299D01*
X2002Y285D01*
X2012Y275D01*
X2021Y270D01*
X2036D01*
X2045Y275D01*
X2055Y285D01*
X2082Y309D02*
X2140D01*
Y318D01*
X2135Y328D01*
X2131Y333D01*
X2121Y338D01*
X2106D01*
X2097Y333D01*
X2087Y323D01*
X2082Y309D01*
Y299D01*
X2087Y285D01*
X2097Y275D01*
X2106Y270D01*
X2121D01*
X2131Y275D01*
X2140Y285D01*
X2162Y338D02*
Y289D01*
X2167Y275D01*
X2177Y270D01*
X2191D01*
X2201Y275D01*
X2215Y289D01*
Y338D02*
Y270D01*
X2295Y323D02*
X2290Y333D01*
X2276Y338D01*
X2261D01*
X2247Y333D01*
X2242Y323D01*
X2247Y314D01*
X2256Y309D01*
X2281Y304D01*
X2290Y299D01*
X2295Y289D01*
Y285D01*
X2290Y275D01*
X2276Y270D01*
X2261D01*
X2247Y275D01*
X2242Y285D01*
X2396Y318D02*
X2440D01*
X2454Y323D01*
X2459Y328D01*
X2464Y338D01*
Y352D01*
X2459Y362D01*
X2454Y367D01*
X2440Y372D01*
X2396D01*
Y270D01*
X2487Y338D02*
Y270D01*
Y309D02*
X2491Y323D01*
X2501Y333D01*
X2511Y338D01*
X2525D01*
X2559D02*
X2549Y333D01*
X2539Y323D01*
X2534Y309D01*
Y299D01*
X2539Y285D01*
X2549Y275D01*
X2559Y270D01*
X2573D01*
X2583Y275D01*
X2592Y285D01*
X2597Y299D01*
Y309D01*
X2592Y323D01*
X2583Y333D01*
X2573Y338D01*
X2559D01*
X2639Y372D02*
X2644Y367D01*
X2649Y372D01*
X2644Y376D01*
X2639Y372D01*
X2644Y338D02*
Y255D01*
X2639Y241D01*
X2629Y236D01*
X2620D01*
X2667Y309D02*
X2726D01*
Y318D01*
X2721Y328D01*
X2716Y333D01*
X2706Y338D01*
X2692D01*
X2682Y333D01*
X2672Y323D01*
X2667Y309D01*
Y299D01*
X2672Y285D01*
X2682Y275D01*
X2692Y270D01*
X2706D01*
X2716Y275D01*
X2726Y285D01*
X2805Y323D02*
X2796Y333D01*
X2786Y338D01*
X2771D01*
X2762Y333D01*
X2752Y323D01*
X2747Y309D01*
Y299D01*
X2752Y285D01*
X2762Y275D01*
X2771Y270D01*
X2786D01*
X2796Y275D01*
X2805Y285D01*
X2842Y372D02*
Y289D01*
X2846Y275D01*
X2856Y270D01*
X2866D01*
X2827Y338D02*
X2861D01*
X4550Y610D02*
Y678D01*
X4584Y712D01*
X4618Y678D01*
Y610D01*
Y661D01*
X4550D01*
X4719Y678D02*
X4668D01*
X4652Y661D01*
Y627D01*
X4668Y610D01*
X4719D01*
X4821Y678D02*
X4770D01*
X4753Y661D01*
Y627D01*
X4770Y610D01*
X4821D01*
X4905D02*
X4872D01*
X4855Y627D01*
Y661D01*
X4872Y678D01*
X4905D01*
X4922Y661D01*
Y644D01*
X4855D01*
X4956Y576D02*
Y678D01*
X5007D01*
X5024Y661D01*
Y627D01*
X5007Y610D01*
X4956D01*
X5075Y695D02*
Y678D01*
X5058D01*
X5092D01*
X5075D01*
Y627D01*
X5092Y610D01*
X5193D02*
X5159D01*
X5142Y627D01*
Y661D01*
X5159Y678D01*
X5193D01*
X5210Y661D01*
Y644D01*
X5142D01*
X5312Y712D02*
Y610D01*
X5261D01*
X5244Y627D01*
Y661D01*
X5261Y678D01*
X5312D01*
X5346D02*
X5363D01*
Y661D01*
X5346D01*
Y678D01*
Y627D02*
X5363D01*
Y610D01*
X5346D01*
Y627D01*
X4550Y972D02*
Y870D01*
X4601D01*
X4618Y887D01*
Y955D01*
X4601Y972D01*
X4550D01*
X4652Y938D02*
Y870D01*
Y904D01*
X4668Y921D01*
X4685Y938D01*
X4702D01*
X4770D02*
X4804D01*
X4821Y921D01*
Y870D01*
X4770D01*
X4753Y887D01*
X4770Y904D01*
X4821D01*
X4855Y938D02*
Y887D01*
X4872Y870D01*
X4889Y887D01*
X4905Y870D01*
X4922Y887D01*
Y938D01*
X4956Y870D02*
Y938D01*
X5007D01*
X5024Y921D01*
Y870D01*
X5058Y938D02*
X5075D01*
Y921D01*
X5058D01*
Y938D01*
Y887D02*
X5075D01*
Y870D01*
X5058D01*
Y887D01*
X4618Y425D02*
X4601Y442D01*
X4567D01*
X4550Y425D01*
Y357D01*
X4567Y340D01*
X4601D01*
X4618Y357D01*
X4668Y340D02*
X4702D01*
X4719Y357D01*
Y391D01*
X4702Y408D01*
X4668D01*
X4652Y391D01*
Y357D01*
X4668Y340D01*
X4753D02*
Y408D01*
X4770D01*
X4787Y391D01*
Y340D01*
Y391D01*
X4804Y408D01*
X4821Y391D01*
Y340D01*
X4855D02*
Y408D01*
X4872D01*
X4889Y391D01*
Y340D01*
Y391D01*
X4905Y408D01*
X4922Y391D01*
Y340D01*
X5007D02*
X4973D01*
X4956Y357D01*
Y391D01*
X4973Y408D01*
X5007D01*
X5024Y391D01*
Y374D01*
X4956D01*
X5058Y340D02*
Y408D01*
X5109D01*
X5126Y391D01*
Y340D01*
X5176Y425D02*
Y408D01*
X5159D01*
X5193D01*
X5176D01*
Y357D01*
X5193Y340D01*
X5244Y408D02*
X5261D01*
Y391D01*
X5244D01*
Y408D01*
Y357D02*
X5261D01*
Y340D01*
X5244D01*
Y357D01*
X7708Y1385D02*
X7691Y1402D01*
X7657D01*
X7640Y1385D01*
Y1317D01*
X7657Y1300D01*
X7691D01*
X7708Y1317D01*
X7792Y1402D02*
X7758D01*
X7742Y1385D01*
Y1317D01*
X7758Y1300D01*
X7792D01*
X7809Y1317D01*
Y1385D01*
X7792Y1402D01*
X7843Y1300D02*
Y1402D01*
X7877Y1368D01*
X7911Y1402D01*
Y1300D01*
X7945D02*
Y1402D01*
X7995D01*
X8012Y1385D01*
Y1351D01*
X7995Y1334D01*
X7945D01*
X8046Y1300D02*
Y1368D01*
X8080Y1402D01*
X8114Y1368D01*
Y1300D01*
Y1351D01*
X8046D01*
X8148Y1300D02*
Y1402D01*
X8216Y1300D01*
Y1402D01*
X8249D02*
Y1385D01*
X8283Y1351D01*
X8317Y1385D01*
Y1402D01*
X8283Y1351D02*
Y1300D01*
X8520Y1385D02*
X8503Y1402D01*
X8469D01*
X8453Y1385D01*
Y1317D01*
X8469Y1300D01*
X8503D01*
X8520Y1317D01*
X8605Y1402D02*
X8571D01*
X8554Y1385D01*
Y1317D01*
X8571Y1300D01*
X8605D01*
X8622Y1317D01*
Y1385D01*
X8605Y1402D01*
X8656Y1300D02*
Y1402D01*
X8723Y1300D01*
Y1402D01*
X8825D02*
X8757D01*
Y1351D01*
X8791D01*
X8757D01*
Y1300D01*
X8859Y1402D02*
X8893D01*
X8876D01*
Y1300D01*
X8859D01*
X8893D01*
X8943Y1402D02*
Y1300D01*
X8994D01*
X9011Y1317D01*
Y1385D01*
X8994Y1402D01*
X8943D01*
X9113D02*
X9045D01*
Y1300D01*
X9113D01*
X9045Y1351D02*
X9079D01*
X9147Y1300D02*
Y1402D01*
X9214Y1300D01*
Y1402D01*
X9248D02*
X9316D01*
X9282D01*
Y1300D01*
X9350Y1402D02*
X9384D01*
X9367D01*
Y1300D01*
X9350D01*
X9384D01*
X9434D02*
Y1368D01*
X9468Y1402D01*
X9502Y1368D01*
Y1300D01*
Y1351D01*
X9434D01*
X9536Y1402D02*
Y1300D01*
X9604D01*
D32*
X7740Y497D02*
Y370D01*
X7803D01*
X7825Y391D01*
Y476D01*
X7803Y497D01*
X7740D01*
X7888Y455D02*
X7930D01*
X7952Y433D01*
Y370D01*
X7888D01*
X7867Y391D01*
X7888Y412D01*
X7952D01*
X8015Y476D02*
Y455D01*
X7994D01*
X8036D01*
X8015D01*
Y391D01*
X8036Y370D01*
X8163D02*
X8121D01*
X8100Y391D01*
Y433D01*
X8121Y455D01*
X8163D01*
X8184Y433D01*
Y412D01*
X8100D01*
X7730Y987D02*
X7772D01*
X7751D01*
Y860D01*
X7730D01*
X7772D01*
X7836D02*
X7899D01*
X7920Y881D01*
X7899Y902D01*
X7857D01*
X7836Y923D01*
X7857Y945D01*
X7920D01*
X7963Y860D02*
X8026D01*
X8047Y881D01*
X8026Y902D01*
X7984D01*
X7963Y923D01*
X7984Y945D01*
X8047D01*
X8090D02*
Y881D01*
X8111Y860D01*
X8174D01*
Y945D01*
X8280Y860D02*
X8238D01*
X8217Y881D01*
Y923D01*
X8238Y945D01*
X8280D01*
X8301Y923D01*
Y902D01*
X8217D01*
D33*
X5560Y2480D02*
D03*
X6340Y3130D02*
D03*
X5630Y2760D02*
D03*
X6292Y3133D02*
D03*
X5500Y2480D02*
D03*
X6240Y3130D02*
D03*
X5530Y2760D02*
D03*
X6190Y3130D02*
D03*
X5450Y2480D02*
D03*
X6090Y3130D02*
D03*
X5460Y2790D02*
D03*
X6040Y3130D02*
D03*
X5380Y2480D02*
D03*
X5990Y3130D02*
D03*
X5380Y2780D02*
D03*
X5940Y3130D02*
D03*
X5320Y2480D02*
D03*
X5790Y3130D02*
D03*
X5320Y3100D02*
D03*
X5260Y2480D02*
D03*
X5690Y3130D02*
D03*
X5260Y2810D02*
D03*
X5200Y3050D02*
D03*
X2640Y2550D02*
D03*
X2680Y4030D02*
D03*
X2710Y2550D02*
D03*
X2730Y4030D02*
D03*
X2770Y2550D02*
D03*
X2780Y4030D02*
D03*
X2830Y2550D02*
D03*
Y4030D02*
D03*
X4925Y4525D02*
D03*
X4480Y5600D02*
D03*
Y5670D02*
D03*
X4690Y5090D02*
D03*
X4610Y4860D02*
D03*
X3630Y4530D02*
D03*
X3590Y4390D02*
D03*
X3675Y4625D02*
D03*
X3710Y4730D02*
D03*
X3760Y4880D02*
D03*
X3960Y5490D02*
D03*
X3795Y5225D02*
D03*
X3895Y5225D02*
D03*
X4100Y5230D02*
D03*
X5890Y5380D02*
D03*
X5930Y5420D02*
D03*
X6340Y5410D02*
D03*
X3950Y4610D02*
D03*
X6400Y5730D02*
D03*
Y5390D02*
D03*
X4250Y4530D02*
D03*
X4200Y4460D02*
D03*
X6970Y5500D02*
D03*
X6940Y5450D02*
D03*
X6580Y5730D02*
D03*
X6640Y5460D02*
D03*
X6820Y5590D02*
D03*
X7200Y5620D02*
D03*
X6940Y5720D02*
D03*
X7000Y5730D02*
D03*
X7180Y5500D02*
D03*
X5980Y5380D02*
D03*
X6160D02*
D03*
X6280D02*
D03*
X6460D02*
D03*
X6700D02*
D03*
X6400Y2470D02*
D03*
X6460D02*
D03*
X4400Y5120D02*
D03*
X4050Y4530D02*
D03*
X4130D02*
D03*
X7350Y5060D02*
D03*
X7430Y4820D02*
D03*
X7510Y4820D02*
D03*
X7440Y4990D02*
D03*
X7590Y4580D02*
D03*
X7670Y4660D02*
D03*
X7750D02*
D03*
Y4740D02*
D03*
X7830Y4900D02*
D03*
X7750D02*
D03*
X8000Y4220D02*
D03*
Y4300D02*
D03*
Y4620D02*
D03*
X8000Y4700D02*
D03*
Y4780D02*
D03*
X8000Y4860D02*
D03*
X4900Y5730D02*
D03*
X4840D02*
D03*
X4780D02*
D03*
X4720Y5730D02*
D03*
X4660Y5730D02*
D03*
X4600D02*
D03*
X4540Y5730D02*
D03*
X4480Y5730D02*
D03*
X4420D02*
D03*
X3690Y2490D02*
D03*
X3480Y2450D02*
D03*
X4360Y2460D02*
D03*
X2945Y2885D02*
D03*
X2995Y2885D02*
D03*
X3595Y2885D02*
D03*
X4420Y2460D02*
D03*
X3690Y2880D02*
D03*
X3740D02*
D03*
X4480Y2460D02*
D03*
X4540D02*
D03*
X3795Y2885D02*
D03*
X3850Y2880D02*
D03*
X4600Y2460D02*
D03*
X3895Y2885D02*
D03*
X4395Y2885D02*
D03*
X4345Y2885D02*
D03*
X4195D02*
D03*
X4095D02*
D03*
X3945D02*
D03*
X4660Y2460D02*
D03*
X4720D02*
D03*
X4780D02*
D03*
X4840D02*
D03*
X4900D02*
D03*
X4960D02*
D03*
X3880Y3040D02*
D03*
X3940D02*
D03*
X4000D02*
D03*
X4060D02*
D03*
X4120D02*
D03*
X4180D02*
D03*
X4230Y3060D02*
D03*
X4300D02*
D03*
X4360D02*
D03*
X4420D02*
D03*
X4480D02*
D03*
X4540D02*
D03*
X4600D02*
D03*
X4660D02*
D03*
X4720D02*
D03*
X4780D02*
D03*
X4840D02*
D03*
X4900D02*
D03*
X4960D02*
D03*
X7430Y5140D02*
D03*
X7270D02*
D03*
X7030Y4980D02*
D03*
X7510Y5140D02*
D03*
X7590D02*
D03*
X7670D02*
D03*
X7750D02*
D03*
X7830D02*
D03*
X7910D02*
D03*
X7510Y5060D02*
D03*
X7590D02*
D03*
X7670D02*
D03*
X7750D02*
D03*
X7830D02*
D03*
X4580Y3780D02*
D03*
X2750Y3130D02*
D03*
X2780Y3170D02*
D03*
X2720Y3320D02*
D03*
X2760Y3370D02*
D03*
X2790Y3430D02*
D03*
X2830Y3470D02*
D03*
X2820Y3570D02*
D03*
X2860Y3620D02*
D03*
X3890Y3670D02*
D03*
X3935Y3725D02*
D03*
X4000Y3720D02*
D03*
X4050D02*
D03*
X4110D02*
D03*
X4170D02*
D03*
X4230Y3690D02*
D03*
X4280Y3720D02*
D03*
X4340Y3690D02*
D03*
X4380Y3730D02*
D03*
X4420Y3750D02*
D03*
X6710Y3800D02*
D03*
X7590Y4180D02*
D03*
X6780Y4220D02*
D03*
Y4140D02*
D03*
X6770Y4300D02*
D03*
X6770Y4380D02*
D03*
X6760Y4460D02*
D03*
Y4540D02*
D03*
X6750Y4620D02*
D03*
X6760Y4700D02*
D03*
X6770Y4060D02*
D03*
X6870Y4020D02*
D03*
X7110D02*
D03*
X7190D02*
D03*
X7270D02*
D03*
X7430D02*
D03*
X7590D02*
D03*
X6443Y3817D02*
D03*
X6340Y4260D02*
D03*
X6240Y4140D02*
D03*
X6540Y5050D02*
D03*
X6750Y4860D02*
D03*
X6450D02*
D03*
X6540Y4900D02*
D03*
X6760Y4780D02*
D03*
X6390D02*
D03*
X6340Y4740D02*
D03*
X6290Y4660D02*
D03*
X6240Y4700D02*
D03*
X6190Y4580D02*
D03*
X6090Y4620D02*
D03*
X5940Y4500D02*
D03*
X5740Y4420D02*
D03*
X5340Y3980D02*
D03*
X5290Y3940D02*
D03*
X5240Y3860D02*
D03*
X5190Y3780D02*
D03*
X6290Y3740D02*
D03*
X6190Y3700D02*
D03*
X6040Y3620D02*
D03*
X5940Y3500D02*
D03*
X5742Y3378D02*
D03*
X5490Y3130D02*
D03*
X5590Y4220D02*
D03*
X5490Y4180D02*
D03*
X5440Y4060D02*
D03*
X5390Y4100D02*
D03*
X5640Y4340D02*
D03*
X5792Y4017D02*
D03*
X5645Y3130D02*
D03*
X5690Y4380D02*
D03*
X5990Y4460D02*
D03*
X4905Y3425D02*
D03*
X4900Y3470D02*
D03*
X4885Y3625D02*
D03*
X4865Y4625D02*
D03*
Y4675D02*
D03*
X5015Y4475D02*
D03*
X4895Y4425D02*
D03*
Y4375D02*
D03*
X4885Y4325D02*
D03*
X4875Y4275D02*
D03*
X4865Y4875D02*
D03*
Y4925D02*
D03*
X4860Y4760D02*
D03*
X4840Y4710D02*
D03*
X5692Y3428D02*
D03*
X5070Y3380D02*
D03*
X5500Y3510D02*
D03*
X6320Y3500D02*
D03*
X7510Y4420D02*
D03*
X5540Y4300D02*
D03*
X5603Y4017D02*
D03*
X5580Y4140D02*
D03*
X4850Y3520D02*
D03*
X4840Y4180D02*
D03*
X5130Y4260D02*
D03*
X6520Y2470D02*
D03*
X6940Y2510D02*
D03*
X6880D02*
D03*
X6820Y2600D02*
D03*
X7000Y2680D02*
D03*
X7170Y2800D02*
D03*
X6870Y2780D02*
D03*
X6760Y2680D02*
D03*
X6580Y2540D02*
D03*
X7030Y4020D02*
D03*
X6510Y3900D02*
D03*
X6092Y4258D02*
D03*
X5992Y4178D02*
D03*
X5730Y4100D02*
D03*
D34*
X6870Y4900D02*
D03*
Y4820D02*
D03*
Y4740D02*
D03*
Y4660D02*
D03*
Y4580D02*
D03*
Y4500D02*
D03*
Y4420D02*
D03*
Y4260D02*
D03*
Y4180D02*
D03*
Y4100D02*
D03*
X6950D02*
D03*
X7030D02*
D03*
X7110D02*
D03*
X7190D02*
D03*
X6950Y4420D02*
D03*
Y4340D02*
D03*
X7270Y4100D02*
D03*
X7350D02*
D03*
X7430D02*
D03*
X7510D02*
D03*
X6870Y4340D02*
D03*
M02*
