M48
METRIC,LZ
;TYPE=PLATED
T1F00S00C0.20
%
T01
X00604Y00247
X0061
X00616
X00622
X00628
X00634
X00664
X00676Y00251
X0067Y00267
X00676Y00279
X00712Y00269
X00706Y00247
X00725Y00245
X00663Y00368
X00647Y00388
Y00426
X00639Y00418
X00622Y0043
X00617Y0041
X00607Y00402
X00592Y00379
Y00366
X00587Y00343
X00582Y00342
X00577Y00349
X00572Y00384
X00579Y00442
X00654Y00538
X00688
X00531Y00494
X00511Y00487
X00507Y00482
X00494Y00478
X00475Y00476
X00477Y0046
X0049Y00458
X00485Y0045
X00496Y00446
X00502Y00438
X00507Y00434
X00511Y00454
X00462Y00458
X00473Y00422
X00532Y0035
X00425Y00321
X0061Y00573
X00616
X00628
X00652
X00676
X00682
X00676Y00555
X00666Y0055
X00715Y00561
M30
