M48
METRIC,LZ
;TYPE=PLATED
T1F00S00C0.20
T2F00S00C0.80
T3F00S00C1.10
%
T01
X00549Y00313
X005645
X00604Y00345
X00619Y0037
X00629Y00374
X00671Y0038
X00688Y00303
X00694
X00695Y0049
X00687Y00498
Y00506
X00679
X00671Y00514
X00654Y00505
X00639Y00503
X00629
X00619Y00504
X00605Y00501
X00594Y00498
X00569Y00495
X00559Y00491
X00549Y00492
X00544Y00498
X00703Y00506
Y00514
X00711
Y00506
X00719
X00727
X00719Y00514
Y00498
Y0049
X00735
Y00498
X00743Y0049
Y00506
X00767Y00498
X00763Y00531
X00756Y00536
X00712Y00538
X00706
X00767Y0045
Y00434
X00775
X00783Y00426
Y00442
Y00458
X008Y00454
X00539Y00495
X00534Y00503
X00524
X00502Y00514
X00483Y00515
X00469Y00509
X00468Y00501
X00461Y00486
X0046Y00478
X00452Y00458
X00448Y00453
X00459Y00412
X00455Y00397
X00458Y00393
Y00388
Y00383
Y00378
X00453Y00374
X00459Y00367
X00461Y00318
X00484Y00323
X00485Y00333
X00524Y00342
X00537Y00346
X005392Y003127
X0052Y00248
X00513
X00453Y00266
X00443
X00433
X00419
X00409
X00399
X00389
X00375
X00365
X0035
X0034
X0033
X0032
X0031
X00325Y00276
X003245Y002885
X003195Y002885
X003145
X003045
X002995Y002885
X002945Y002885
X00293Y00276
X003295Y002885
X003445
X003495
X003545
X00357Y00281
X0037Y00276
X00383
X00425Y00277
X00438
X00519Y00378
X00524Y00386
X00529Y00394
X00534Y00398
X00292Y00361
X00293Y00353
Y00348
Y00343
Y00337
X00292Y00333
X00421Y00549
X00448Y00554
Y0056
Y00567
X00487Y00565
X00514Y00571
X0052
X00526
X00532
X00538
X00543
X00556
X00562
X00567
X00574
X00598Y00573
X00634
X0064
X00632Y00557
X00628Y00561
X00642Y00547
X00706Y00565
T02
X0034Y00249
Y00541
T03
X00742Y00249
Y00541
M30
