M48
METRIC,LZ
;TYPE=PLATED
T1F00S00C0.20
%
T01
X00231Y00322
X00231Y00344
X002725Y003525
Y003875
Y004175
Y004525
X00233Y00469
X00233Y00491
X00234Y00419
Y00397
X003195Y004995
X00355Y00528
X004145Y005005
X004295Y005005
X004845Y004575
X004835Y004225
X00462Y00391
X004845Y003575
X00508Y00329
Y00319
X004295Y002885
X004145Y002885
X00416Y00544
X00406
X00396
X00386
X00376
X00365
X0035Y00554
X00329Y00544
X00319
X00309Y00545
X00299
X00426Y00546
X00436
M30
