M48
METRIC,LZ
;TYPE=PLATED
T1F00S00C0.20
%
T01
X00573Y0041
X005992Y004178
X006092Y004258
X00695Y00426
Y00434
X00703
Y00426
X00711
Y00418
X00719
X00735
X00743
X00751
X00767
X00775
X00767Y0041
X00759
X00767Y00442
X00775Y0045
Y00458
X00767Y00458
Y00474
X00759Y00482
Y0049
X00751
X00751Y00498
X00759
X00767Y0049
X00775Y00498
Y00482
X00783
X00791Y00482
Y00474
X00783Y00466
X00791Y00458
Y0049
Y00498
X00735Y00482
X00703
X00695
Y00474
Y00466
X00703
Y00474
Y00458
X00695
Y0045
Y00442
X00703
Y0045
X00711Y00458
Y00498
X00695Y00506
Y00514
X00663Y00502
X00695Y00418
X00735Y00434
X00675Y00334
X00668Y00331
M30
