%FSLAX42Y42*%
%MOMM*%
G71*
G01*
G75*
%ADD10C,0.45*%
%ADD11R,0.30X1.60*%
%ADD12R,0.60X0.50*%
%ADD13R,0.50X0.60*%
%ADD14R,1.20X1.50*%
%ADD15R,1.50X1.20*%
%ADD16R,0.80X0.90*%
%ADD17R,1.60X0.30*%
%ADD18R,1.95X3.40*%
%ADD19R,1.95X1.10*%
%ADD20R,1.45X0.55*%
%ADD21R,0.90X0.80*%
%ADD22R,2.60X2.40*%
%ADD23R,1.00X2.50*%
%ADD24R,2.50X6.00*%
%ADD25R,3.50X3.20*%
%ADD26R,4.50X1.50*%
%ADD27R,1.50X0.35*%
%ADD28C,0.15*%
%ADD29C,0.25*%
%ADD30C,0.15*%
%ADD31C,0.13*%
%ADD32C,0.18*%
%ADD33C,0.30*%
%ADD34C,0.40*%
%ADD35R,0.35X1.60*%
%ADD36C,0.80*%
%ADD37C,1.10*%
%ADD38O,0.35X1.60*%
%ADD39R,0.95X1.00*%
%ADD40R,1.15X0.35*%
%ADD41R,1.15X0.35*%
%ADD42R,1.65X0.30*%
%ADD43R,0.30X1.00*%
%ADD44O,0.30X1.00*%
%ADD45R,0.40X1.55*%
%ADD46R,0.40X2.20*%
%ADD47C,0.25*%
%ADD48C,0.20*%
%ADD49C,0.10*%
D29*
X3330Y4127D02*
Y4000D01*
X3355Y3975D01*
X3406D01*
X3432Y4000D01*
Y4127D01*
X3482Y3975D02*
X3533D01*
X3508D01*
Y4127D01*
X3482Y4102D01*
X3609D02*
X3635Y4127D01*
X3685D01*
X3711Y4102D01*
Y4077D01*
X3685Y4051D01*
X3660D01*
X3685D01*
X3711Y4026D01*
Y4000D01*
X3685Y3975D01*
X3635D01*
X3609Y4000D01*
X5178Y2440D02*
X5305D01*
X5330Y2465D01*
Y2516D01*
X5305Y2542D01*
X5178D01*
X5330Y2592D02*
Y2643D01*
Y2618D01*
X5178D01*
X5203Y2592D01*
X5330Y2795D02*
X5178D01*
X5254Y2719D01*
Y2821D01*
X2212Y2445D02*
Y2547D01*
X2186Y2572D01*
X2135D01*
X2110Y2547D01*
Y2445D01*
X2135Y2420D01*
X2186D01*
X2161Y2471D02*
X2212Y2420D01*
X2186D02*
X2212Y2445D01*
X2364Y2420D02*
X2262D01*
X2364Y2522D01*
Y2547D01*
X2339Y2572D01*
X2288D01*
X2262Y2547D01*
X2132Y5567D02*
X2106Y5592D01*
X2055D01*
X2030Y5567D01*
Y5465D01*
X2055Y5440D01*
X2106D01*
X2132Y5465D01*
X2259Y5440D02*
Y5592D01*
X2182Y5516D01*
X2284D01*
X2436Y5592D02*
X2335D01*
Y5516D01*
X2385Y5542D01*
X2411D01*
X2436Y5516D01*
Y5465D01*
X2411Y5440D01*
X2360D01*
X2335Y5465D01*
X7670Y3012D02*
Y2860D01*
X7772D01*
X7822D02*
X7873D01*
X7848D01*
Y3012D01*
X7822Y2987D01*
X8282Y4945D02*
Y5047D01*
X8256Y5072D01*
X8205D01*
X8180Y5047D01*
Y4945D01*
X8205Y4920D01*
X8256D01*
X8231Y4971D02*
X8282Y4920D01*
X8256D02*
X8282Y4945D01*
X8332Y4920D02*
X8383D01*
X8358D01*
Y5072D01*
X8332Y5047D01*
X7320Y4722D02*
Y4595D01*
X7345Y4570D01*
X7396D01*
X7422Y4595D01*
Y4722D01*
X7472Y4570D02*
X7523D01*
X7498D01*
Y4722D01*
X7472Y4697D01*
X7800Y3372D02*
Y3245D01*
X7825Y3220D01*
X7876D01*
X7902Y3245D01*
Y3372D01*
X7952Y3347D02*
X7978Y3372D01*
X8029D01*
X8054Y3347D01*
Y3322D01*
X8029Y3296D01*
X8054Y3271D01*
Y3245D01*
X8029Y3220D01*
X7978D01*
X7952Y3245D01*
Y3271D01*
X7978Y3296D01*
X7952Y3322D01*
Y3347D01*
X7978Y3296D02*
X8029D01*
X5748Y4341D02*
Y4214D01*
X5774Y4188D01*
X5824D01*
X5850Y4214D01*
Y4341D01*
X5901Y4315D02*
X5926Y4341D01*
X5977D01*
X6002Y4315D01*
Y4290D01*
X5977Y4264D01*
X5951D01*
X5977D01*
X6002Y4239D01*
Y4214D01*
X5977Y4188D01*
X5926D01*
X5901Y4214D01*
X9060Y6051D02*
X9115D01*
X9065Y2251D02*
X9110D01*
X9090Y4502D02*
Y6051D01*
Y2251D02*
Y3710D01*
X9039Y5898D02*
X9090Y6051D01*
X9141Y5898D01*
X9090Y2251D02*
X9141Y2403D01*
X9039D02*
X9090Y2251D01*
X1457Y1815D02*
Y1865D01*
X8557Y1800D02*
Y1865D01*
X1457Y1840D02*
X4583D01*
X5350D02*
X8557D01*
X1457D02*
X1610Y1789D01*
X1457Y1840D02*
X1610Y1891D01*
X8405D02*
X8557Y1840D01*
X8405Y1789D02*
X8557Y1840D01*
X8530Y170D02*
Y1170D01*
X7480Y660D02*
X9900D01*
X7480Y180D02*
Y1170D01*
X4340Y190D02*
Y1170D01*
X9900D01*
Y170D02*
Y6540D01*
Y6510D02*
X9930Y6540D01*
X290D02*
X9930D01*
X290Y170D02*
Y6540D01*
Y170D02*
X9900D01*
X9090Y977D02*
X9115Y1002D01*
X9166D01*
X9192Y977D01*
Y875D01*
X9166Y850D01*
X9115D01*
X9090Y875D01*
Y977D01*
X9242Y850D02*
Y952D01*
X9293Y1002D01*
X9344Y952D01*
Y850D01*
Y926D01*
X9242D01*
D30*
X9078Y3751D02*
X9053Y3776D01*
Y3827D01*
X9078Y3852D01*
X9104D01*
X9129Y3827D01*
Y3801D01*
Y3827D01*
X9155Y3852D01*
X9180D01*
X9205Y3827D01*
Y3776D01*
X9180Y3751D01*
X9078Y3903D02*
X9053Y3928D01*
Y3979D01*
X9078Y4005D01*
X9104D01*
X9129Y3979D01*
X9155Y4005D01*
X9180D01*
X9205Y3979D01*
Y3928D01*
X9180Y3903D01*
X9155D01*
X9129Y3928D01*
X9104Y3903D01*
X9078D01*
X9129Y3928D02*
Y3979D01*
X9231Y4081D02*
X9205Y4106D01*
X9180D01*
Y4081D01*
X9205D01*
Y4106D01*
X9231Y4081D01*
X9256Y4055D01*
X9078Y4208D02*
X9053Y4233D01*
Y4284D01*
X9078Y4309D01*
X9180D01*
X9205Y4284D01*
Y4233D01*
X9180Y4208D01*
X9078D01*
Y4360D02*
X9053Y4385D01*
Y4436D01*
X9078Y4462D01*
X9180D01*
X9205Y4436D01*
Y4385D01*
X9180Y4360D01*
X9078D01*
X4624Y1876D02*
X4725D01*
Y1850D01*
X4624Y1749D01*
Y1723D01*
X4776D02*
X4827D01*
X4802D01*
Y1876D01*
X4776Y1850D01*
X4928Y1698D02*
X4954Y1723D01*
Y1749D01*
X4928D01*
Y1723D01*
X4954D01*
X4928Y1698D01*
X4903Y1672D01*
X5055Y1850D02*
X5081Y1876D01*
X5132D01*
X5157Y1850D01*
Y1749D01*
X5132Y1723D01*
X5081D01*
X5055Y1749D01*
Y1850D01*
X5208D02*
X5233Y1876D01*
X5284D01*
X5309Y1850D01*
Y1749D01*
X5284Y1723D01*
X5233D01*
X5208Y1749D01*
Y1850D01*
D31*
X8270Y4030D02*
Y4090D01*
X8110Y4030D02*
Y4090D01*
Y4030D02*
X8270D01*
X8110Y4090D02*
X8270D01*
X7190Y3410D02*
Y3470D01*
X7350Y3410D02*
Y3470D01*
X7190D02*
X7350D01*
X7190Y3410D02*
X7350D01*
X7690Y3770D02*
X7750D01*
X7690Y3930D02*
X7750D01*
X7690Y3770D02*
Y3930D01*
X7750Y3770D02*
Y3930D01*
X2440Y3250D02*
Y3310D01*
X2280Y3250D02*
Y3310D01*
Y3250D02*
X2440D01*
X2280Y3310D02*
X2440D01*
X2440Y3350D02*
Y3410D01*
X2280Y3350D02*
Y3410D01*
Y3350D02*
X2440D01*
X2280Y3410D02*
X2440D01*
X3070Y2840D02*
X3130D01*
X3070Y2680D02*
X3130D01*
Y2840D01*
X3070Y2680D02*
Y2840D01*
X2970D02*
X3030D01*
X2970Y2680D02*
X3030D01*
Y2840D01*
X2970Y2680D02*
Y2840D01*
X3720Y2840D02*
X3780D01*
X3720Y2680D02*
X3780D01*
Y2840D01*
X3720Y2680D02*
Y2840D01*
X3620Y2840D02*
X3680D01*
X3620Y2680D02*
X3680D01*
Y2840D01*
X3620Y2680D02*
Y2840D01*
X4400Y2850D02*
X4460D01*
X4400Y2690D02*
X4460D01*
Y2850D01*
X4400Y2690D02*
Y2850D01*
X4300D02*
X4360D01*
X4300Y2690D02*
X4360D01*
Y2850D01*
X4300Y2690D02*
Y2850D01*
X4890Y3260D02*
Y3320D01*
X5050Y3260D02*
Y3320D01*
X4890D02*
X5050D01*
X4890Y3260D02*
X5050D01*
X4890Y3160D02*
Y3220D01*
X5050Y3160D02*
Y3220D01*
X4890D02*
X5050D01*
X4890Y3160D02*
X5050D01*
X4900Y4040D02*
Y4100D01*
X5060Y4040D02*
Y4100D01*
X4900D02*
X5060D01*
X4900Y4040D02*
X5060D01*
X4900Y3930D02*
Y3990D01*
X5060Y3930D02*
Y3990D01*
X4900D02*
X5060D01*
X4900Y3930D02*
X5060D01*
X4900Y4790D02*
Y4850D01*
X5060Y4790D02*
Y4850D01*
X4900D02*
X5060D01*
X4900Y4790D02*
X5060D01*
X4900Y4690D02*
Y4750D01*
X5060Y4690D02*
Y4750D01*
X4900D02*
X5060D01*
X4900Y4690D02*
X5060D01*
X4230Y5280D02*
X4290D01*
X4230Y5440D02*
X4290D01*
X4230Y5280D02*
Y5440D01*
X4290Y5280D02*
Y5440D01*
X4330Y5280D02*
X4390D01*
X4330Y5440D02*
X4390D01*
X4330Y5280D02*
Y5440D01*
X4390Y5280D02*
Y5440D01*
X3620Y5260D02*
X3680D01*
X3620Y5420D02*
X3680D01*
X3620Y5260D02*
Y5420D01*
X3680Y5260D02*
Y5420D01*
X3730Y5260D02*
X3790D01*
X3730Y5420D02*
X3790D01*
X3730Y5260D02*
Y5420D01*
X3790Y5260D02*
Y5420D01*
X2960Y5270D02*
X3020D01*
X2960Y5430D02*
X3020D01*
X2960Y5270D02*
Y5430D01*
X3020Y5270D02*
Y5430D01*
X3060Y5270D02*
X3120D01*
X3060Y5430D02*
X3120D01*
X3060Y5270D02*
Y5430D01*
X3120Y5270D02*
Y5430D01*
X2460Y4720D02*
Y4780D01*
X2300Y4720D02*
Y4780D01*
Y4720D02*
X2460D01*
X2300Y4780D02*
X2460D01*
Y4820D02*
Y4880D01*
X2300Y4820D02*
Y4880D01*
Y4820D02*
X2460D01*
X2300Y4880D02*
X2460D01*
X2470Y4000D02*
Y4060D01*
X2310Y4000D02*
Y4060D01*
Y4000D02*
X2470D01*
X2310Y4060D02*
X2470D01*
X2470Y4100D02*
Y4160D01*
X2310Y4100D02*
Y4160D01*
Y4100D02*
X2470D01*
X2310Y4160D02*
X2470D01*
X4500Y2850D02*
X4560D01*
X4500Y2690D02*
X4560D01*
Y2850D01*
X4500Y2690D02*
Y2850D01*
X4030Y5260D02*
X4090D01*
X4030Y5420D02*
X4090D01*
X4030Y5260D02*
Y5420D01*
X4090Y5260D02*
Y5420D01*
X4130Y5260D02*
X4190D01*
X4130Y5420D02*
X4190D01*
X4130Y5260D02*
Y5420D01*
X4190Y5260D02*
Y5420D01*
X3160Y5260D02*
X3220D01*
X3160Y5420D02*
X3220D01*
X3160Y5260D02*
Y5420D01*
X3220Y5260D02*
Y5420D01*
X3260Y5260D02*
X3320D01*
X3260Y5420D02*
X3320D01*
X3260Y5260D02*
Y5420D01*
X3320Y5260D02*
Y5420D01*
X3270Y2840D02*
X3330D01*
X3270Y2680D02*
X3330D01*
Y2840D01*
X3270Y2680D02*
Y2840D01*
X3170Y2840D02*
X3230D01*
X3170Y2680D02*
X3230D01*
Y2840D01*
X3170Y2680D02*
Y2840D01*
X4160D02*
X4220D01*
X4160Y2680D02*
X4220D01*
Y2840D01*
X4160Y2680D02*
Y2840D01*
X4060D02*
X4120D01*
X4060Y2680D02*
X4120D01*
Y2840D01*
X4060Y2680D02*
Y2840D01*
X3830Y5260D02*
X3890D01*
X3830Y5420D02*
X3890D01*
X3830Y5260D02*
Y5420D01*
X3890Y5260D02*
Y5420D01*
X3930Y5260D02*
X3990D01*
X3930Y5420D02*
X3990D01*
X3930Y5260D02*
Y5420D01*
X3990Y5260D02*
Y5420D01*
X3360Y5250D02*
Y5310D01*
X3520Y5250D02*
Y5310D01*
X3360D02*
X3520D01*
X3360Y5250D02*
X3520D01*
X3470Y5350D02*
X3530D01*
X3470Y5510D02*
X3530D01*
X3470Y5350D02*
Y5510D01*
X3530Y5350D02*
Y5510D01*
X3470Y2840D02*
X3530D01*
X3470Y2680D02*
X3530D01*
Y2840D01*
X3470Y2680D02*
Y2840D01*
X3370Y2840D02*
X3430D01*
X3370Y2680D02*
X3430D01*
Y2840D01*
X3370Y2680D02*
Y2840D01*
X3960D02*
X4020D01*
X3960Y2680D02*
X4020D01*
Y2840D01*
X3960Y2680D02*
Y2840D01*
X3860D02*
X3920D01*
X3860Y2680D02*
X3920D01*
Y2840D01*
X3860Y2680D02*
Y2840D01*
X1620Y4030D02*
X1680D01*
X1620Y3870D02*
X1680D01*
Y4030D01*
X1620Y3870D02*
Y4030D01*
Y3610D02*
X1680D01*
X1620Y3450D02*
X1680D01*
Y3610D01*
X1620Y3450D02*
Y3610D01*
Y3820D02*
X1680D01*
X1620Y3660D02*
X1680D01*
Y3820D01*
X1620Y3660D02*
Y3820D01*
X2290Y3000D02*
X2350D01*
X2290Y2840D02*
X2350D01*
Y3000D01*
X2290Y2840D02*
Y3000D01*
X3280Y2440D02*
X3340D01*
X3280Y2600D02*
X3340D01*
X3280Y2440D02*
Y2600D01*
X3340Y2440D02*
Y2600D01*
X2410Y3000D02*
X2470D01*
X2410Y2840D02*
X2470D01*
Y3000D01*
X2410Y2840D02*
Y3000D01*
X4920Y5810D02*
Y5870D01*
X5080Y5810D02*
Y5870D01*
X4920D02*
X5080D01*
X4920Y5810D02*
X5080D01*
X5100Y5290D02*
Y5350D01*
X4940Y5290D02*
Y5350D01*
Y5290D02*
X5100D01*
X4940Y5350D02*
X5100D01*
Y5390D02*
Y5450D01*
X4940Y5390D02*
Y5450D01*
Y5390D02*
X5100D01*
X4940Y5450D02*
X5100D01*
X5250Y3020D02*
X5410D01*
X5250Y3080D02*
X5410D01*
Y3020D02*
Y3080D01*
X5250Y3020D02*
Y3080D01*
X5740Y5330D02*
X5900D01*
X5740Y5390D02*
X5900D01*
Y5330D02*
Y5390D01*
X5740Y5330D02*
Y5390D01*
X5680Y5430D02*
X5840D01*
X5680Y5490D02*
X5840D01*
Y5430D02*
Y5490D01*
X5680Y5430D02*
Y5490D01*
X6360Y3120D02*
X6520D01*
X6360Y3060D02*
X6520D01*
X6360D02*
Y3120D01*
X6520Y3060D02*
Y3120D01*
X1620Y4340D02*
Y4500D01*
X1680Y4340D02*
Y4500D01*
X1620Y4340D02*
X1680D01*
X1620Y4500D02*
X1680D01*
X5560Y3020D02*
X5720D01*
X5560Y3080D02*
X5720D01*
Y3020D02*
Y3080D01*
X5560Y3020D02*
Y3080D01*
X7190Y3610D02*
Y3770D01*
X7250Y3610D02*
Y3770D01*
X7190Y3610D02*
X7250D01*
X7190Y3770D02*
X7250D01*
X8100Y3730D02*
Y3890D01*
X8160Y3730D02*
Y3890D01*
X8100Y3730D02*
X8160D01*
X8100Y3890D02*
X8160D01*
X6990Y2740D02*
X7150D01*
X6990Y2800D02*
X7150D01*
Y2740D02*
Y2800D01*
X6990Y2740D02*
Y2800D01*
X8120Y4240D02*
X8280D01*
X8120Y4300D02*
X8280D01*
Y4240D02*
Y4300D01*
X8120Y4240D02*
Y4300D01*
X8320D02*
X8480D01*
X8320Y4240D02*
X8480D01*
X8320D02*
Y4300D01*
X8480Y4240D02*
Y4300D01*
X6940Y3050D02*
Y3210D01*
X7000Y3050D02*
Y3210D01*
X6940Y3050D02*
X7000D01*
X6940Y3210D02*
X7000D01*
X6140Y2810D02*
X6300D01*
X6140Y2750D02*
X6300D01*
X6140D02*
Y2810D01*
X6300Y2750D02*
Y2810D01*
X6140Y2930D02*
X6300D01*
X6140Y2870D02*
X6300D01*
X6140D02*
Y2930D01*
X6300Y2870D02*
Y2930D01*
X7040Y3050D02*
Y3210D01*
X7100Y3050D02*
Y3210D01*
X7040Y3050D02*
X7100D01*
X7040Y3210D02*
X7100D01*
X1620Y3220D02*
Y3380D01*
X1680Y3220D02*
Y3380D01*
X1620Y3220D02*
X1680D01*
X1620Y3380D02*
X1680D01*
X2080Y2840D02*
Y3000D01*
X2140Y2840D02*
Y3000D01*
X2080Y2840D02*
X2140D01*
X2080Y3000D02*
X2140D01*
X1740Y3210D02*
Y3370D01*
X1800Y3210D02*
Y3370D01*
X1740Y3210D02*
X1800D01*
X1740Y3370D02*
X1800D01*
X1620Y4120D02*
Y4280D01*
X1680Y4120D02*
Y4280D01*
X1620Y4120D02*
X1680D01*
X1620Y4280D02*
X1680D01*
X6170Y5310D02*
Y5470D01*
X6110Y5310D02*
Y5470D01*
X6170D01*
X6110Y5310D02*
X6170D01*
X7190Y3510D02*
X7350D01*
X7190Y3570D02*
X7350D01*
Y3510D02*
Y3570D01*
X7190Y3510D02*
Y3570D01*
X7350Y3610D02*
Y3770D01*
X7290Y3610D02*
Y3770D01*
X7350D01*
X7290Y3610D02*
X7350D01*
X8200Y3520D02*
X8360D01*
X8200Y3580D02*
X8360D01*
Y3520D02*
Y3580D01*
X8200Y3520D02*
Y3580D01*
Y3620D02*
X8360D01*
X8200Y3680D02*
X8360D01*
Y3620D02*
Y3680D01*
X8200Y3620D02*
Y3680D01*
Y3770D02*
X8360D01*
X8200Y3830D02*
X8360D01*
Y3770D02*
Y3830D01*
X8200Y3770D02*
Y3830D01*
X7630Y3150D02*
Y3310D01*
X7690Y3150D02*
Y3310D01*
X7630Y3150D02*
X7690D01*
X7630Y3310D02*
X7690D01*
X7520Y3150D02*
Y3310D01*
X7580Y3150D02*
Y3310D01*
X7520Y3150D02*
X7580D01*
X7520Y3310D02*
X7580D01*
X7370Y3150D02*
Y3310D01*
X7310Y3150D02*
Y3310D01*
X7370D01*
X7310Y3150D02*
X7370D01*
X7470D02*
Y3310D01*
X7410Y3150D02*
Y3310D01*
X7470D01*
X7410Y3150D02*
X7470D01*
X6860Y2900D02*
X7020D01*
X6860Y2840D02*
X7020D01*
X6860D02*
Y2900D01*
X7020Y2840D02*
Y2900D01*
X6790Y2800D02*
X6950D01*
X6790Y2740D02*
X6950D01*
X6790D02*
Y2800D01*
X6950Y2740D02*
Y2800D01*
X8750Y455D02*
X8767Y472D01*
X8801D01*
X8818Y455D01*
Y438D01*
X8801Y421D01*
X8784D01*
X8801D01*
X8818Y404D01*
Y387D01*
X8801Y370D01*
X8767D01*
X8750Y387D01*
X8852Y455D02*
X8868Y472D01*
X8902D01*
X8919Y455D01*
Y387D01*
X8902Y370D01*
X8868D01*
X8852Y387D01*
Y455D01*
X8953Y370D02*
Y387D01*
X8970D01*
Y370D01*
X8953D01*
X9038Y455D02*
X9055Y472D01*
X9089D01*
X9105Y455D01*
Y387D01*
X9089Y370D01*
X9055D01*
X9038Y387D01*
Y455D01*
X9139D02*
X9156Y472D01*
X9190D01*
X9207Y455D01*
Y438D01*
X9190Y421D01*
X9207Y404D01*
Y387D01*
X9190Y370D01*
X9156D01*
X9139Y387D01*
Y404D01*
X9156Y421D01*
X9139Y438D01*
Y455D01*
X9156Y421D02*
X9190D01*
X9241Y370D02*
Y387D01*
X9258D01*
Y370D01*
X9241D01*
X9393D02*
X9326D01*
X9393Y438D01*
Y455D01*
X9376Y472D01*
X9342D01*
X9326Y455D01*
X9427D02*
X9444Y472D01*
X9478D01*
X9495Y455D01*
Y387D01*
X9478Y370D01*
X9444D01*
X9427Y387D01*
Y455D01*
X9529D02*
X9546Y472D01*
X9579D01*
X9596Y455D01*
Y387D01*
X9579Y370D01*
X9546D01*
X9529Y387D01*
Y455D01*
X9698Y472D02*
X9630D01*
Y421D01*
X9664Y438D01*
X9681D01*
X9698Y421D01*
Y387D01*
X9681Y370D01*
X9647D01*
X9630Y387D01*
X5690Y870D02*
Y972D01*
X5758Y870D01*
Y972D01*
X5859Y955D02*
X5842Y972D01*
X5808D01*
X5792Y955D01*
Y887D01*
X5808Y870D01*
X5842D01*
X5859Y887D01*
X470Y318D02*
X514D01*
X528Y323D01*
X533Y328D01*
X538Y338D01*
Y352D01*
X533Y362D01*
X528Y367D01*
X514Y372D01*
X470D01*
Y270D01*
X560Y338D02*
Y270D01*
Y309D02*
X565Y323D01*
X575Y333D01*
X585Y338D01*
X599D01*
X633D02*
X623Y333D01*
X613Y323D01*
X608Y309D01*
Y299D01*
X613Y285D01*
X623Y275D01*
X633Y270D01*
X647D01*
X657Y275D01*
X666Y285D01*
X671Y299D01*
Y309D01*
X666Y323D01*
X657Y333D01*
X647Y338D01*
X633D01*
X693D02*
Y236D01*
Y323D02*
X703Y333D01*
X713Y338D01*
X727D01*
X737Y333D01*
X747Y323D01*
X752Y309D01*
Y299D01*
X747Y285D01*
X737Y275D01*
X727Y270D01*
X713D01*
X703Y275D01*
X693Y285D01*
X773Y309D02*
X831D01*
Y318D01*
X826Y328D01*
X822Y333D01*
X812Y338D01*
X797D01*
X788Y333D01*
X778Y323D01*
X773Y309D01*
Y299D01*
X778Y285D01*
X788Y275D01*
X797Y270D01*
X812D01*
X822Y275D01*
X831Y285D01*
X853Y338D02*
Y270D01*
Y309D02*
X858Y323D01*
X868Y333D01*
X877Y338D01*
X892D01*
X915Y372D02*
Y289D01*
X920Y275D01*
X930Y270D01*
X940D01*
X901Y338D02*
X935D01*
X959D02*
X988Y270D01*
X1017Y338D02*
X988Y270D01*
X978Y251D01*
X969Y241D01*
X959Y236D01*
X954D01*
X1138Y338D02*
X1128Y333D01*
X1119Y323D01*
X1114Y309D01*
Y299D01*
X1119Y285D01*
X1128Y275D01*
X1138Y270D01*
X1153D01*
X1162Y275D01*
X1172Y285D01*
X1177Y299D01*
Y309D01*
X1172Y323D01*
X1162Y333D01*
X1153Y338D01*
X1138D01*
X1238Y372D02*
X1228D01*
X1218Y367D01*
X1213Y352D01*
Y270D01*
X1199Y338D02*
X1233D01*
X1346Y372D02*
Y289D01*
X1351Y275D01*
X1361Y270D01*
X1371D01*
X1332Y338D02*
X1366D01*
X1385Y372D02*
Y270D01*
Y318D02*
X1400Y333D01*
X1409Y338D01*
X1424D01*
X1434Y333D01*
X1438Y318D01*
Y270D01*
X1465Y309D02*
X1523D01*
Y318D01*
X1518Y328D01*
X1513Y333D01*
X1504Y338D01*
X1489D01*
X1479Y333D01*
X1470Y323D01*
X1465Y309D01*
Y299D01*
X1470Y285D01*
X1479Y275D01*
X1489Y270D01*
X1504D01*
X1513Y275D01*
X1523Y285D01*
X1702Y270D02*
X1663Y372D01*
X1625Y270D01*
X1639Y304D02*
X1687D01*
X1726Y338D02*
Y270D01*
Y309D02*
X1731Y323D01*
X1740Y333D01*
X1750Y338D01*
X1764D01*
X1774D02*
Y270D01*
Y318D02*
X1788Y333D01*
X1798Y338D01*
X1812D01*
X1822Y333D01*
X1827Y318D01*
Y270D01*
Y318D02*
X1841Y333D01*
X1851Y338D01*
X1865D01*
X1875Y333D01*
X1880Y318D01*
Y270D01*
X1970Y338D02*
Y270D01*
Y323D02*
X1960Y333D01*
X1951Y338D01*
X1936D01*
X1926Y333D01*
X1917Y323D01*
X1912Y309D01*
Y299D01*
X1917Y285D01*
X1926Y275D01*
X1936Y270D01*
X1951D01*
X1960Y275D01*
X1970Y285D01*
X2055Y372D02*
Y270D01*
Y323D02*
X2045Y333D01*
X2036Y338D01*
X2021D01*
X2012Y333D01*
X2002Y323D01*
X1997Y309D01*
Y299D01*
X2002Y285D01*
X2012Y275D01*
X2021Y270D01*
X2036D01*
X2045Y275D01*
X2055Y285D01*
X2082Y309D02*
X2140D01*
Y318D01*
X2135Y328D01*
X2131Y333D01*
X2121Y338D01*
X2106D01*
X2097Y333D01*
X2087Y323D01*
X2082Y309D01*
Y299D01*
X2087Y285D01*
X2097Y275D01*
X2106Y270D01*
X2121D01*
X2131Y275D01*
X2140Y285D01*
X2162Y338D02*
Y289D01*
X2167Y275D01*
X2177Y270D01*
X2191D01*
X2201Y275D01*
X2215Y289D01*
Y338D02*
Y270D01*
X2295Y323D02*
X2290Y333D01*
X2276Y338D01*
X2261D01*
X2247Y333D01*
X2242Y323D01*
X2247Y314D01*
X2256Y309D01*
X2281Y304D01*
X2290Y299D01*
X2295Y289D01*
Y285D01*
X2290Y275D01*
X2276Y270D01*
X2261D01*
X2247Y275D01*
X2242Y285D01*
X2396Y318D02*
X2440D01*
X2454Y323D01*
X2459Y328D01*
X2464Y338D01*
Y352D01*
X2459Y362D01*
X2454Y367D01*
X2440Y372D01*
X2396D01*
Y270D01*
X2487Y338D02*
Y270D01*
Y309D02*
X2491Y323D01*
X2501Y333D01*
X2511Y338D01*
X2525D01*
X2559D02*
X2549Y333D01*
X2539Y323D01*
X2534Y309D01*
Y299D01*
X2539Y285D01*
X2549Y275D01*
X2559Y270D01*
X2573D01*
X2583Y275D01*
X2592Y285D01*
X2597Y299D01*
Y309D01*
X2592Y323D01*
X2583Y333D01*
X2573Y338D01*
X2559D01*
X2639Y372D02*
X2644Y367D01*
X2649Y372D01*
X2644Y376D01*
X2639Y372D01*
X2644Y338D02*
Y255D01*
X2639Y241D01*
X2629Y236D01*
X2620D01*
X2667Y309D02*
X2726D01*
Y318D01*
X2721Y328D01*
X2716Y333D01*
X2706Y338D01*
X2692D01*
X2682Y333D01*
X2672Y323D01*
X2667Y309D01*
Y299D01*
X2672Y285D01*
X2682Y275D01*
X2692Y270D01*
X2706D01*
X2716Y275D01*
X2726Y285D01*
X2805Y323D02*
X2796Y333D01*
X2786Y338D01*
X2771D01*
X2762Y333D01*
X2752Y323D01*
X2747Y309D01*
Y299D01*
X2752Y285D01*
X2762Y275D01*
X2771Y270D01*
X2786D01*
X2796Y275D01*
X2805Y285D01*
X2842Y372D02*
Y289D01*
X2846Y275D01*
X2856Y270D01*
X2866D01*
X2827Y338D02*
X2861D01*
X4550Y610D02*
Y678D01*
X4584Y712D01*
X4618Y678D01*
Y610D01*
Y661D01*
X4550D01*
X4719Y678D02*
X4668D01*
X4652Y661D01*
Y627D01*
X4668Y610D01*
X4719D01*
X4821Y678D02*
X4770D01*
X4753Y661D01*
Y627D01*
X4770Y610D01*
X4821D01*
X4905D02*
X4872D01*
X4855Y627D01*
Y661D01*
X4872Y678D01*
X4905D01*
X4922Y661D01*
Y644D01*
X4855D01*
X4956Y576D02*
Y678D01*
X5007D01*
X5024Y661D01*
Y627D01*
X5007Y610D01*
X4956D01*
X5075Y695D02*
Y678D01*
X5058D01*
X5092D01*
X5075D01*
Y627D01*
X5092Y610D01*
X5193D02*
X5159D01*
X5142Y627D01*
Y661D01*
X5159Y678D01*
X5193D01*
X5210Y661D01*
Y644D01*
X5142D01*
X5312Y712D02*
Y610D01*
X5261D01*
X5244Y627D01*
Y661D01*
X5261Y678D01*
X5312D01*
X5346D02*
X5363D01*
Y661D01*
X5346D01*
Y678D01*
Y627D02*
X5363D01*
Y610D01*
X5346D01*
Y627D01*
X4550Y972D02*
Y870D01*
X4601D01*
X4618Y887D01*
Y955D01*
X4601Y972D01*
X4550D01*
X4652Y938D02*
Y870D01*
Y904D01*
X4668Y921D01*
X4685Y938D01*
X4702D01*
X4770D02*
X4804D01*
X4821Y921D01*
Y870D01*
X4770D01*
X4753Y887D01*
X4770Y904D01*
X4821D01*
X4855Y938D02*
Y887D01*
X4872Y870D01*
X4889Y887D01*
X4905Y870D01*
X4922Y887D01*
Y938D01*
X4956Y870D02*
Y938D01*
X5007D01*
X5024Y921D01*
Y870D01*
X5058Y938D02*
X5075D01*
Y921D01*
X5058D01*
Y938D01*
Y887D02*
X5075D01*
Y870D01*
X5058D01*
Y887D01*
X4618Y425D02*
X4601Y442D01*
X4567D01*
X4550Y425D01*
Y357D01*
X4567Y340D01*
X4601D01*
X4618Y357D01*
X4668Y340D02*
X4702D01*
X4719Y357D01*
Y391D01*
X4702Y408D01*
X4668D01*
X4652Y391D01*
Y357D01*
X4668Y340D01*
X4753D02*
Y408D01*
X4770D01*
X4787Y391D01*
Y340D01*
Y391D01*
X4804Y408D01*
X4821Y391D01*
Y340D01*
X4855D02*
Y408D01*
X4872D01*
X4889Y391D01*
Y340D01*
Y391D01*
X4905Y408D01*
X4922Y391D01*
Y340D01*
X5007D02*
X4973D01*
X4956Y357D01*
Y391D01*
X4973Y408D01*
X5007D01*
X5024Y391D01*
Y374D01*
X4956D01*
X5058Y340D02*
Y408D01*
X5109D01*
X5126Y391D01*
Y340D01*
X5176Y425D02*
Y408D01*
X5159D01*
X5193D01*
X5176D01*
Y357D01*
X5193Y340D01*
X5244Y408D02*
X5261D01*
Y391D01*
X5244D01*
Y408D01*
Y357D02*
X5261D01*
Y340D01*
X5244D01*
Y357D01*
X7708Y1385D02*
X7691Y1402D01*
X7657D01*
X7640Y1385D01*
Y1317D01*
X7657Y1300D01*
X7691D01*
X7708Y1317D01*
X7792Y1402D02*
X7758D01*
X7742Y1385D01*
Y1317D01*
X7758Y1300D01*
X7792D01*
X7809Y1317D01*
Y1385D01*
X7792Y1402D01*
X7843Y1300D02*
Y1402D01*
X7877Y1368D01*
X7911Y1402D01*
Y1300D01*
X7945D02*
Y1402D01*
X7995D01*
X8012Y1385D01*
Y1351D01*
X7995Y1334D01*
X7945D01*
X8046Y1300D02*
Y1368D01*
X8080Y1402D01*
X8114Y1368D01*
Y1300D01*
Y1351D01*
X8046D01*
X8148Y1300D02*
Y1402D01*
X8216Y1300D01*
Y1402D01*
X8249D02*
Y1385D01*
X8283Y1351D01*
X8317Y1385D01*
Y1402D01*
X8283Y1351D02*
Y1300D01*
X8520Y1385D02*
X8503Y1402D01*
X8469D01*
X8453Y1385D01*
Y1317D01*
X8469Y1300D01*
X8503D01*
X8520Y1317D01*
X8605Y1402D02*
X8571D01*
X8554Y1385D01*
Y1317D01*
X8571Y1300D01*
X8605D01*
X8622Y1317D01*
Y1385D01*
X8605Y1402D01*
X8656Y1300D02*
Y1402D01*
X8723Y1300D01*
Y1402D01*
X8825D02*
X8757D01*
Y1351D01*
X8791D01*
X8757D01*
Y1300D01*
X8859Y1402D02*
X8893D01*
X8876D01*
Y1300D01*
X8859D01*
X8893D01*
X8943Y1402D02*
Y1300D01*
X8994D01*
X9011Y1317D01*
Y1385D01*
X8994Y1402D01*
X8943D01*
X9113D02*
X9045D01*
Y1300D01*
X9113D01*
X9045Y1351D02*
X9079D01*
X9147Y1300D02*
Y1402D01*
X9214Y1300D01*
Y1402D01*
X9248D02*
X9316D01*
X9282D01*
Y1300D01*
X9350Y1402D02*
X9384D01*
X9367D01*
Y1300D01*
X9350D01*
X9384D01*
X9434D02*
Y1368D01*
X9468Y1402D01*
X9502Y1368D01*
Y1300D01*
Y1351D01*
X9434D01*
X9536Y1402D02*
Y1300D01*
X9604D01*
D32*
X7740Y497D02*
Y370D01*
X7803D01*
X7825Y391D01*
Y476D01*
X7803Y497D01*
X7740D01*
X7888Y455D02*
X7930D01*
X7952Y433D01*
Y370D01*
X7888D01*
X7867Y391D01*
X7888Y412D01*
X7952D01*
X8015Y476D02*
Y455D01*
X7994D01*
X8036D01*
X8015D01*
Y391D01*
X8036Y370D01*
X8163D02*
X8121D01*
X8100Y391D01*
Y433D01*
X8121Y455D01*
X8163D01*
X8184Y433D01*
Y412D01*
X8100D01*
X7730Y987D02*
X7772D01*
X7751D01*
Y860D01*
X7730D01*
X7772D01*
X7836D02*
X7899D01*
X7920Y881D01*
X7899Y902D01*
X7857D01*
X7836Y923D01*
X7857Y945D01*
X7920D01*
X7963Y860D02*
X8026D01*
X8047Y881D01*
X8026Y902D01*
X7984D01*
X7963Y923D01*
X7984Y945D01*
X8047D01*
X8090D02*
Y881D01*
X8111Y860D01*
X8174D01*
Y945D01*
X8280Y860D02*
X8238D01*
X8217Y881D01*
Y923D01*
X8238Y945D01*
X8280D01*
X8301Y923D01*
Y902D01*
X8217D01*
D47*
X4742Y3105D02*
G03*
X4742Y3105I-12J0D01*
G01*
X5755Y2390D02*
G03*
X5755Y2390I-12J0D01*
G01*
X4283Y5505D02*
G03*
X4283Y5505I-12J0D01*
G01*
X2667Y5290D02*
G03*
X2667Y5290I-12J0D01*
G01*
X8153Y3135D02*
G03*
X8153Y3135I-12J0D01*
G01*
X6625Y5160D02*
G03*
X6625Y5160I-12J0D01*
G01*
X5020Y5460D02*
G03*
X5020Y5460I-12J0D01*
G01*
D48*
X6572Y4263D02*
G03*
X6572Y4137I0J-63D01*
G01*
X4831Y5477D02*
G03*
X4769Y5477I-31J0D01*
G01*
X2730Y4990D02*
X4610D01*
X2730Y3110D02*
X4610D01*
Y4990D01*
X2730Y3110D02*
Y4990D01*
X5088Y2285D02*
X5453D01*
X5453D02*
Y2955D01*
X5088D02*
X5453D01*
X5088Y2285D02*
Y2955D01*
X4605Y2795D02*
X4605Y2485D01*
X4670Y2485D02*
X4735D01*
X4735Y2640D02*
X4735Y2795D01*
Y2485D02*
Y2640D01*
X4605Y2485D02*
X4670Y2485D01*
X4605Y2795D02*
X4735D01*
X5935Y2805D02*
X5935Y2495D01*
X5805Y2805D02*
X5870D01*
X5805Y2495D02*
X5805Y2650D01*
X5805D02*
Y2805D01*
X5870D02*
X5935Y2805D01*
X5805Y2495D02*
X5935D01*
X3970Y5815D02*
X4150D01*
X3970Y5505D02*
X4150D01*
X3970D02*
Y5510D01*
X4150Y5505D02*
Y5510D01*
X3970Y5810D02*
Y5815D01*
X4150Y5810D02*
Y5815D01*
X3685Y5835D02*
X3685Y5525D01*
X3750Y5525D02*
X3815D01*
X3815Y5680D02*
X3815Y5835D01*
Y5525D02*
Y5680D01*
X3685Y5525D02*
X3750Y5525D01*
X3685Y5835D02*
X3815D01*
X4340Y5535D02*
Y5775D01*
X4420D01*
Y5535D02*
Y5775D01*
X4340Y5535D02*
X4420D01*
X2175Y5190D02*
X2415D01*
Y5110D02*
Y5190D01*
X2175Y5110D02*
X2415D01*
X2175D02*
Y5190D01*
X2360Y5290D02*
Y5750D01*
X2590Y5290D02*
Y5295D01*
Y5745D02*
Y5750D01*
X1830Y5290D02*
X2590D01*
X1830Y5750D02*
X2590D01*
X1830Y5745D02*
Y5750D01*
Y5290D02*
Y5295D01*
X1855Y5120D02*
X2095D01*
X1855D02*
Y5200D01*
X2095D01*
Y5120D02*
Y5200D01*
X8100Y5380D02*
X8460D01*
Y4360D02*
Y5380D01*
X8100Y4360D02*
Y5380D01*
Y4360D02*
X8460D01*
X6750Y5220D02*
X6790Y5260D01*
X8030D01*
Y3980D02*
Y5260D01*
X6750Y3980D02*
X8030D01*
X6750D02*
Y5220D01*
X8290Y2740D02*
Y3060D01*
X7490Y2740D02*
X8290D01*
X7490D02*
Y3060D01*
X8290D01*
X8020Y3440D02*
Y3445D01*
X7840Y3440D02*
Y3445D01*
X8020Y3135D02*
Y3140D01*
X7840Y3135D02*
Y3140D01*
Y3135D02*
X8020D01*
X7840Y3445D02*
X8020D01*
X5162Y3360D02*
X6572D01*
X5162Y5040D02*
X6572D01*
X5162Y3360D02*
Y5040D01*
X6572Y3360D02*
Y4137D01*
Y4263D02*
Y5040D01*
X1780Y2260D02*
Y2360D01*
Y2660D02*
Y2760D01*
X2855Y2260D02*
Y2360D01*
X1705Y2260D02*
Y2360D01*
Y2660D02*
Y2760D01*
Y2260D02*
X2855D01*
Y2660D02*
Y2760D01*
X1705D02*
X2855D01*
X4831Y5477D02*
X4892D01*
X4708D02*
X4769D01*
X4708Y5782D02*
X4892D01*
Y5477D02*
Y5782D01*
X4708Y5477D02*
Y5782D01*
X3055Y5725D02*
Y5855D01*
X2745Y5855D02*
X2745Y5790D01*
Y5725D02*
X2900D01*
Y5725D02*
X3055Y5725D01*
X2745D02*
Y5790D01*
X2745Y5855D02*
X3055Y5855D01*
X8210Y3365D02*
X8290D01*
X8210Y3125D02*
Y3365D01*
Y3125D02*
X8290D01*
Y3365D01*
X7275Y2745D02*
X7405D01*
X7340Y3055D02*
X7405Y3055D01*
X7275Y2900D02*
Y3055D01*
Y2745D02*
X7275Y2900D01*
X7275Y3055D02*
X7340D01*
X7405Y3055D02*
X7405Y2745D01*
X3950Y5690D02*
Y5632D01*
X3962Y5620D01*
X3985D01*
X3997Y5632D01*
Y5690D01*
X4020Y5620D02*
X4043D01*
X4032D01*
Y5690D01*
X4020Y5678D01*
X4125Y5690D02*
X4078D01*
Y5655D01*
X4102Y5667D01*
X4113D01*
X4125Y5655D01*
Y5632D01*
X4113Y5620D01*
X4090D01*
X4078Y5632D01*
X4720Y5680D02*
Y5622D01*
X4732Y5610D01*
X4755D01*
X4767Y5622D01*
Y5680D01*
X4790Y5610D02*
X4813D01*
X4802D01*
Y5680D01*
X4790Y5668D01*
X4848D02*
X4860Y5680D01*
X4883D01*
X4895Y5668D01*
Y5622D01*
X4883Y5610D01*
X4860D01*
X4848Y5622D01*
Y5668D01*
D49*
X4550Y2730D02*
X4520D01*
Y2745D01*
X4525Y2750D01*
X4535D01*
X4540Y2745D01*
Y2730D01*
Y2740D02*
X4550Y2750D01*
Y2775D02*
X4520D01*
X4535Y2760D01*
Y2780D01*
X4525Y2790D02*
X4520Y2795D01*
Y2805D01*
X4525Y2810D01*
X4545D01*
X4550Y2805D01*
Y2795D01*
X4545Y2790D01*
X4525D01*
X1660Y3500D02*
X1630D01*
Y3515D01*
X1635Y3520D01*
X1645D01*
X1650Y3515D01*
Y3500D01*
Y3510D02*
X1660Y3520D01*
X1635Y3530D02*
X1630Y3535D01*
Y3545D01*
X1635Y3550D01*
X1640D01*
X1645Y3545D01*
Y3540D01*
Y3545D01*
X1650Y3550D01*
X1655D01*
X1660Y3545D01*
Y3535D01*
X1655Y3530D01*
X1635Y3560D02*
X1630Y3565D01*
Y3575D01*
X1635Y3580D01*
X1640D01*
X1645Y3575D01*
X1650Y3580D01*
X1655D01*
X1660Y3575D01*
Y3565D01*
X1655Y3560D01*
X1650D01*
X1645Y3565D01*
X1640Y3560D01*
X1635D01*
X1645Y3565D02*
Y3575D01*
X1670Y3710D02*
X1640D01*
Y3725D01*
X1645Y3730D01*
X1655D01*
X1660Y3725D01*
Y3710D01*
Y3720D02*
X1670Y3730D01*
X1645Y3740D02*
X1640Y3745D01*
Y3755D01*
X1645Y3760D01*
X1650D01*
X1655Y3755D01*
Y3750D01*
Y3755D01*
X1660Y3760D01*
X1665D01*
X1670Y3755D01*
Y3745D01*
X1665Y3740D01*
X1640Y3770D02*
Y3790D01*
X1645D01*
X1665Y3770D01*
X1670D01*
X1670Y3900D02*
X1640D01*
Y3915D01*
X1645Y3920D01*
X1655D01*
X1660Y3915D01*
Y3900D01*
Y3910D02*
X1670Y3920D01*
X1645Y3930D02*
X1640Y3935D01*
Y3945D01*
X1645Y3950D01*
X1650D01*
X1655Y3945D01*
Y3940D01*
Y3945D01*
X1660Y3950D01*
X1665D01*
X1670Y3945D01*
Y3935D01*
X1665Y3930D01*
X1640Y3980D02*
X1645Y3970D01*
X1655Y3960D01*
X1665D01*
X1670Y3965D01*
Y3975D01*
X1665Y3980D01*
X1660D01*
X1655Y3975D01*
Y3960D01*
X2460Y2870D02*
X2430D01*
Y2885D01*
X2435Y2890D01*
X2445D01*
X2450Y2885D01*
Y2870D01*
Y2880D02*
X2460Y2890D01*
X2435Y2900D02*
X2430Y2905D01*
Y2915D01*
X2435Y2920D01*
X2440D01*
X2445Y2915D01*
Y2910D01*
Y2915D01*
X2450Y2920D01*
X2455D01*
X2460Y2915D01*
Y2905D01*
X2455Y2900D01*
X2460Y2950D02*
Y2930D01*
X2440Y2950D01*
X2435D01*
X2430Y2945D01*
Y2935D01*
X2435Y2930D01*
X3290Y2560D02*
X3320D01*
Y2545D01*
X3315Y2540D01*
X3305D01*
X3300Y2545D01*
Y2560D01*
Y2550D02*
X3290Y2540D01*
X3315Y2530D02*
X3320Y2525D01*
Y2515D01*
X3315Y2510D01*
X3310D01*
X3305Y2515D01*
Y2520D01*
Y2515D01*
X3300Y2510D01*
X3295D01*
X3290Y2515D01*
Y2525D01*
X3295Y2530D01*
X3290Y2500D02*
Y2490D01*
Y2495D01*
X3320D01*
X3315Y2500D01*
X5040Y5860D02*
Y5830D01*
X5025D01*
X5020Y5835D01*
Y5845D01*
X5025Y5850D01*
X5040D01*
X5030D02*
X5020Y5860D01*
X5010Y5835D02*
X5005Y5830D01*
X4995D01*
X4990Y5835D01*
Y5840D01*
X4995Y5845D01*
X5000D01*
X4995D01*
X4990Y5850D01*
Y5855D01*
X4995Y5860D01*
X5005D01*
X5010Y5855D01*
X4980Y5835D02*
X4975Y5830D01*
X4965D01*
X4960Y5835D01*
Y5855D01*
X4965Y5860D01*
X4975D01*
X4980Y5855D01*
Y5835D01*
X2000Y5140D02*
Y5170D01*
X1980D01*
X1970Y5145D02*
X1965Y5140D01*
X1955D01*
X1950Y5145D01*
Y5150D01*
X1955Y5155D01*
X1960D01*
X1955D01*
X1950Y5160D01*
Y5165D01*
X1955Y5170D01*
X1965D01*
X1970Y5165D01*
X2270Y5170D02*
Y5140D01*
X2290D01*
X2320D02*
X2300D01*
X2320Y5160D01*
Y5165D01*
X2315Y5170D01*
X2305D01*
X2300Y5165D01*
X3865Y5370D02*
X3870Y5375D01*
Y5385D01*
X3865Y5390D01*
X3845D01*
X3840Y5385D01*
Y5375D01*
X3845Y5370D01*
Y5360D02*
X3840Y5355D01*
Y5345D01*
X3845Y5340D01*
X3865D01*
X3870Y5345D01*
Y5355D01*
X3865Y5360D01*
X3860D01*
X3855Y5355D01*
Y5340D01*
X3870Y5310D02*
Y5330D01*
X3855D01*
X3860Y5320D01*
Y5315D01*
X3855Y5310D01*
X3845D01*
X3840Y5315D01*
Y5325D01*
X3845Y5330D01*
X3450Y5275D02*
X3455Y5270D01*
X3465D01*
X3470Y5275D01*
Y5295D01*
X3465Y5300D01*
X3455D01*
X3450Y5295D01*
X3440D02*
X3435Y5300D01*
X3425D01*
X3420Y5295D01*
Y5275D01*
X3425Y5270D01*
X3435D01*
X3440Y5275D01*
Y5280D01*
X3435Y5285D01*
X3420D01*
X3395Y5300D02*
Y5270D01*
X3410Y5285D01*
X3390D01*
X3505Y2780D02*
X3510Y2785D01*
Y2795D01*
X3505Y2800D01*
X3485D01*
X3480Y2795D01*
Y2785D01*
X3485Y2780D01*
Y2770D02*
X3480Y2765D01*
Y2755D01*
X3485Y2750D01*
X3505D01*
X3510Y2755D01*
Y2765D01*
X3505Y2770D01*
X3500D01*
X3495Y2765D01*
Y2750D01*
X3505Y2740D02*
X3510Y2735D01*
Y2725D01*
X3505Y2720D01*
X3500D01*
X3495Y2725D01*
Y2730D01*
Y2725D01*
X3490Y2720D01*
X3485D01*
X3480Y2725D01*
Y2735D01*
X3485Y2740D01*
X3995Y2780D02*
X4000Y2785D01*
Y2795D01*
X3995Y2800D01*
X3975D01*
X3970Y2795D01*
Y2785D01*
X3975Y2780D01*
Y2770D02*
X3970Y2765D01*
Y2755D01*
X3975Y2750D01*
X3995D01*
X4000Y2755D01*
Y2765D01*
X3995Y2770D01*
X3990D01*
X3985Y2765D01*
Y2750D01*
X3970Y2720D02*
Y2740D01*
X3990Y2720D01*
X3995D01*
X4000Y2725D01*
Y2735D01*
X3995Y2740D01*
X4075Y5350D02*
X4080Y5355D01*
Y5365D01*
X4075Y5370D01*
X4055D01*
X4050Y5365D01*
Y5355D01*
X4055Y5350D01*
Y5340D02*
X4050Y5335D01*
Y5325D01*
X4055Y5320D01*
X4075D01*
X4080Y5325D01*
Y5335D01*
X4075Y5340D01*
X4070D01*
X4065Y5335D01*
Y5320D01*
X4050Y5310D02*
Y5300D01*
Y5305D01*
X4080D01*
X4075Y5310D01*
X3195Y5360D02*
X3200Y5365D01*
Y5375D01*
X3195Y5380D01*
X3175D01*
X3170Y5375D01*
Y5365D01*
X3175Y5360D01*
Y5350D02*
X3170Y5345D01*
Y5335D01*
X3175Y5330D01*
X3195D01*
X3200Y5335D01*
Y5345D01*
X3195Y5350D01*
X3190D01*
X3185Y5345D01*
Y5330D01*
X3195Y5320D02*
X3200Y5315D01*
Y5305D01*
X3195Y5300D01*
X3175D01*
X3170Y5305D01*
Y5315D01*
X3175Y5320D01*
X3195D01*
X3295Y2740D02*
X3290Y2735D01*
Y2725D01*
X3295Y2720D01*
X3315D01*
X3320Y2725D01*
Y2735D01*
X3315Y2740D01*
X3295Y2750D02*
X3290Y2755D01*
Y2765D01*
X3295Y2770D01*
X3300D01*
X3305Y2765D01*
X3310Y2770D01*
X3315D01*
X3320Y2765D01*
Y2755D01*
X3315Y2750D01*
X3310D01*
X3305Y2755D01*
X3300Y2750D01*
X3295D01*
X3305Y2755D02*
Y2765D01*
X3315Y2780D02*
X3320Y2785D01*
Y2795D01*
X3315Y2800D01*
X3295D01*
X3290Y2795D01*
Y2785D01*
X3295Y2780D01*
X3300D01*
X3305Y2785D01*
Y2800D01*
X4185Y2740D02*
X4180Y2735D01*
Y2725D01*
X4185Y2720D01*
X4205D01*
X4210Y2725D01*
Y2735D01*
X4205Y2740D01*
X4185Y2750D02*
X4180Y2755D01*
Y2765D01*
X4185Y2770D01*
X4190D01*
X4195Y2765D01*
X4200Y2770D01*
X4205D01*
X4210Y2765D01*
Y2755D01*
X4205Y2750D01*
X4200D01*
X4195Y2755D01*
X4190Y2750D01*
X4185D01*
X4195Y2755D02*
Y2765D01*
X4185Y2780D02*
X4180Y2785D01*
Y2795D01*
X4185Y2800D01*
X4190D01*
X4195Y2795D01*
X4200Y2800D01*
X4205D01*
X4210Y2795D01*
Y2785D01*
X4205Y2780D01*
X4200D01*
X4195Y2785D01*
X4190Y2780D01*
X4185D01*
X4195Y2785D02*
Y2795D01*
X4960Y4825D02*
X4955Y4830D01*
X4945D01*
X4940Y4825D01*
Y4805D01*
X4945Y4800D01*
X4955D01*
X4960Y4805D01*
X4970Y4825D02*
X4975Y4830D01*
X4985D01*
X4990Y4825D01*
Y4820D01*
X4985Y4815D01*
X4990Y4810D01*
Y4805D01*
X4985Y4800D01*
X4975D01*
X4970Y4805D01*
Y4810D01*
X4975Y4815D01*
X4970Y4820D01*
Y4825D01*
X4975Y4815D02*
X4985D01*
X5000Y4830D02*
X5020D01*
Y4825D01*
X5000Y4805D01*
Y4800D01*
X4265Y5380D02*
X4270Y5385D01*
Y5395D01*
X4265Y5400D01*
X4245D01*
X4240Y5395D01*
Y5385D01*
X4245Y5380D01*
X4265Y5370D02*
X4270Y5365D01*
Y5355D01*
X4265Y5350D01*
X4260D01*
X4255Y5355D01*
X4250Y5350D01*
X4245D01*
X4240Y5355D01*
Y5365D01*
X4245Y5370D01*
X4250D01*
X4255Y5365D01*
X4260Y5370D01*
X4265D01*
X4255Y5365D02*
Y5355D01*
X4270Y5320D02*
X4265Y5330D01*
X4255Y5340D01*
X4245D01*
X4240Y5335D01*
Y5325D01*
X4245Y5320D01*
X4250D01*
X4255Y5325D01*
Y5340D01*
X3655Y5350D02*
X3660Y5355D01*
Y5365D01*
X3655Y5370D01*
X3635D01*
X3630Y5365D01*
Y5355D01*
X3635Y5350D01*
X3655Y5340D02*
X3660Y5335D01*
Y5325D01*
X3655Y5320D01*
X3650D01*
X3645Y5325D01*
X3640Y5320D01*
X3635D01*
X3630Y5325D01*
Y5335D01*
X3635Y5340D01*
X3640D01*
X3645Y5335D01*
X3650Y5340D01*
X3655D01*
X3645Y5335D02*
Y5325D01*
X3660Y5290D02*
Y5310D01*
X3645D01*
X3650Y5300D01*
Y5295D01*
X3645Y5290D01*
X3635D01*
X3630Y5295D01*
Y5305D01*
X3635Y5310D01*
X2995Y5360D02*
X3000Y5365D01*
Y5375D01*
X2995Y5380D01*
X2975D01*
X2970Y5375D01*
Y5365D01*
X2975Y5360D01*
X2995Y5350D02*
X3000Y5345D01*
Y5335D01*
X2995Y5330D01*
X2990D01*
X2985Y5335D01*
X2980Y5330D01*
X2975D01*
X2970Y5335D01*
Y5345D01*
X2975Y5350D01*
X2980D01*
X2985Y5345D01*
X2990Y5350D01*
X2995D01*
X2985Y5345D02*
Y5335D01*
X2970Y5305D02*
X3000D01*
X2985Y5320D01*
Y5300D01*
X2360Y4755D02*
X2355Y4760D01*
X2345D01*
X2340Y4755D01*
Y4735D01*
X2345Y4730D01*
X2355D01*
X2360Y4735D01*
X2370Y4755D02*
X2375Y4760D01*
X2385D01*
X2390Y4755D01*
Y4750D01*
X2385Y4745D01*
X2390Y4740D01*
Y4735D01*
X2385Y4730D01*
X2375D01*
X2370Y4735D01*
Y4740D01*
X2375Y4745D01*
X2370Y4750D01*
Y4755D01*
X2375Y4745D02*
X2385D01*
X2400Y4755D02*
X2405Y4760D01*
X2415D01*
X2420Y4755D01*
Y4750D01*
X2415Y4745D01*
X2410D01*
X2415D01*
X2420Y4740D01*
Y4735D01*
X2415Y4730D01*
X2405D01*
X2400Y4735D01*
X2370Y4035D02*
X2365Y4040D01*
X2355D01*
X2350Y4035D01*
Y4015D01*
X2355Y4010D01*
X2365D01*
X2370Y4015D01*
X2380Y4035D02*
X2385Y4040D01*
X2395D01*
X2400Y4035D01*
Y4030D01*
X2395Y4025D01*
X2400Y4020D01*
Y4015D01*
X2395Y4010D01*
X2385D01*
X2380Y4015D01*
Y4020D01*
X2385Y4025D01*
X2380Y4030D01*
Y4035D01*
X2385Y4025D02*
X2395D01*
X2430Y4010D02*
X2410D01*
X2430Y4030D01*
Y4035D01*
X2425Y4040D01*
X2415D01*
X2410Y4035D01*
X2350Y3285D02*
X2345Y3290D01*
X2335D01*
X2330Y3285D01*
Y3265D01*
X2335Y3260D01*
X2345D01*
X2350Y3265D01*
X2360Y3285D02*
X2365Y3290D01*
X2375D01*
X2380Y3285D01*
Y3280D01*
X2375Y3275D01*
X2380Y3270D01*
Y3265D01*
X2375Y3260D01*
X2365D01*
X2360Y3265D01*
Y3270D01*
X2365Y3275D01*
X2360Y3280D01*
Y3285D01*
X2365Y3275D02*
X2375D01*
X2390Y3260D02*
X2400D01*
X2395D01*
Y3290D01*
X2390Y3285D01*
X3095Y2750D02*
X3090Y2745D01*
Y2735D01*
X3095Y2730D01*
X3115D01*
X3120Y2735D01*
Y2745D01*
X3115Y2750D01*
X3095Y2760D02*
X3090Y2765D01*
Y2775D01*
X3095Y2780D01*
X3100D01*
X3105Y2775D01*
X3110Y2780D01*
X3115D01*
X3120Y2775D01*
Y2765D01*
X3115Y2760D01*
X3110D01*
X3105Y2765D01*
X3100Y2760D01*
X3095D01*
X3105Y2765D02*
Y2775D01*
X3095Y2790D02*
X3090Y2795D01*
Y2805D01*
X3095Y2810D01*
X3115D01*
X3120Y2805D01*
Y2795D01*
X3115Y2790D01*
X3095D01*
X3745Y2750D02*
X3740Y2745D01*
Y2735D01*
X3745Y2730D01*
X3765D01*
X3770Y2735D01*
Y2745D01*
X3765Y2750D01*
X3740Y2760D02*
Y2780D01*
X3745D01*
X3765Y2760D01*
X3770D01*
X3765Y2790D02*
X3770Y2795D01*
Y2805D01*
X3765Y2810D01*
X3745D01*
X3740Y2805D01*
Y2795D01*
X3745Y2790D01*
X3750D01*
X3755Y2795D01*
Y2810D01*
X4425Y2750D02*
X4420Y2745D01*
Y2735D01*
X4425Y2730D01*
X4445D01*
X4450Y2735D01*
Y2745D01*
X4445Y2750D01*
X4420Y2760D02*
Y2780D01*
X4425D01*
X4445Y2760D01*
X4450D01*
X4425Y2790D02*
X4420Y2795D01*
Y2805D01*
X4425Y2810D01*
X4430D01*
X4435Y2805D01*
X4440Y2810D01*
X4445D01*
X4450Y2805D01*
Y2795D01*
X4445Y2790D01*
X4440D01*
X4435Y2795D01*
X4430Y2790D01*
X4425D01*
X4435Y2795D02*
Y2805D01*
X4950Y3295D02*
X4945Y3300D01*
X4935D01*
X4930Y3295D01*
Y3275D01*
X4935Y3270D01*
X4945D01*
X4950Y3275D01*
X4960Y3300D02*
X4980D01*
Y3295D01*
X4960Y3275D01*
Y3270D01*
X4990Y3300D02*
X5010D01*
Y3295D01*
X4990Y3275D01*
Y3270D01*
X4960Y4075D02*
X4955Y4080D01*
X4945D01*
X4940Y4075D01*
Y4055D01*
X4945Y4050D01*
X4955D01*
X4960Y4055D01*
X4970Y4080D02*
X4990D01*
Y4075D01*
X4970Y4055D01*
Y4050D01*
X5020Y4080D02*
X5010Y4075D01*
X5000Y4065D01*
Y4055D01*
X5005Y4050D01*
X5015D01*
X5020Y4055D01*
Y4060D01*
X5015Y4065D01*
X5000D01*
X3765Y5690D02*
X3770Y5695D01*
Y5705D01*
X3765Y5710D01*
X3745D01*
X3740Y5705D01*
Y5695D01*
X3745Y5690D01*
X3770Y5680D02*
Y5660D01*
X3765D01*
X3745Y5680D01*
X3740D01*
X3770Y5630D02*
Y5650D01*
X3755D01*
X3760Y5640D01*
Y5635D01*
X3755Y5630D01*
X3745D01*
X3740Y5635D01*
Y5645D01*
X3745Y5650D01*
X4685Y2650D02*
X4690Y2655D01*
Y2665D01*
X4685Y2670D01*
X4665D01*
X4660Y2665D01*
Y2655D01*
X4665Y2650D01*
X4690Y2640D02*
Y2620D01*
X4685D01*
X4665Y2640D01*
X4660D01*
X4685Y2610D02*
X4690Y2605D01*
Y2595D01*
X4685Y2590D01*
X4680D01*
X4675Y2595D01*
Y2600D01*
Y2595D01*
X4670Y2590D01*
X4665D01*
X4660Y2595D01*
Y2605D01*
X4665Y2610D01*
X5855Y2640D02*
X5850Y2635D01*
Y2625D01*
X5855Y2620D01*
X5875D01*
X5880Y2625D01*
Y2635D01*
X5875Y2640D01*
X5850Y2650D02*
Y2670D01*
X5855D01*
X5875Y2650D01*
X5880D01*
Y2700D02*
Y2680D01*
X5860Y2700D01*
X5855D01*
X5850Y2695D01*
Y2685D01*
X5855Y2680D01*
X4365Y5630D02*
X4360Y5625D01*
Y5615D01*
X4365Y5610D01*
X4385D01*
X4390Y5615D01*
Y5625D01*
X4385Y5630D01*
X4360Y5660D02*
X4365Y5650D01*
X4375Y5640D01*
X4385D01*
X4390Y5645D01*
Y5655D01*
X4385Y5660D01*
X4380D01*
X4375Y5655D01*
Y5640D01*
X4360Y5690D02*
X4365Y5680D01*
X4375Y5670D01*
X4385D01*
X4390Y5675D01*
Y5685D01*
X4385Y5690D01*
X4380D01*
X4375Y5685D01*
Y5670D01*
X3965Y5370D02*
X3970Y5375D01*
Y5385D01*
X3965Y5390D01*
X3945D01*
X3940Y5385D01*
Y5375D01*
X3945Y5370D01*
X3970Y5340D02*
X3965Y5350D01*
X3955Y5360D01*
X3945D01*
X3940Y5355D01*
Y5345D01*
X3945Y5340D01*
X3950D01*
X3955Y5345D01*
Y5360D01*
X3970Y5310D02*
Y5330D01*
X3955D01*
X3960Y5320D01*
Y5315D01*
X3955Y5310D01*
X3945D01*
X3940Y5315D01*
Y5325D01*
X3945Y5330D01*
X3505Y5450D02*
X3510Y5455D01*
Y5465D01*
X3505Y5470D01*
X3485D01*
X3480Y5465D01*
Y5455D01*
X3485Y5450D01*
X3510Y5420D02*
X3505Y5430D01*
X3495Y5440D01*
X3485D01*
X3480Y5435D01*
Y5425D01*
X3485Y5420D01*
X3490D01*
X3495Y5425D01*
Y5440D01*
X3480Y5395D02*
X3510D01*
X3495Y5410D01*
Y5390D01*
X3405Y2780D02*
X3410Y2785D01*
Y2795D01*
X3405Y2800D01*
X3385D01*
X3380Y2795D01*
Y2785D01*
X3385Y2780D01*
X3410Y2750D02*
X3405Y2760D01*
X3395Y2770D01*
X3385D01*
X3380Y2765D01*
Y2755D01*
X3385Y2750D01*
X3390D01*
X3395Y2755D01*
Y2770D01*
X3405Y2740D02*
X3410Y2735D01*
Y2725D01*
X3405Y2720D01*
X3400D01*
X3395Y2725D01*
Y2730D01*
Y2725D01*
X3390Y2720D01*
X3385D01*
X3380Y2725D01*
Y2735D01*
X3385Y2740D01*
X3895Y2780D02*
X3900Y2785D01*
Y2795D01*
X3895Y2800D01*
X3875D01*
X3870Y2795D01*
Y2785D01*
X3875Y2780D01*
X3900Y2750D02*
X3895Y2760D01*
X3885Y2770D01*
X3875D01*
X3870Y2765D01*
Y2755D01*
X3875Y2750D01*
X3880D01*
X3885Y2755D01*
Y2770D01*
X3870Y2720D02*
Y2740D01*
X3890Y2720D01*
X3895D01*
X3900Y2725D01*
Y2735D01*
X3895Y2740D01*
X4175Y5350D02*
X4180Y5355D01*
Y5365D01*
X4175Y5370D01*
X4155D01*
X4150Y5365D01*
Y5355D01*
X4155Y5350D01*
X4180Y5320D02*
X4175Y5330D01*
X4165Y5340D01*
X4155D01*
X4150Y5335D01*
Y5325D01*
X4155Y5320D01*
X4160D01*
X4165Y5325D01*
Y5340D01*
X4150Y5310D02*
Y5300D01*
Y5305D01*
X4180D01*
X4175Y5310D01*
X3295Y5360D02*
X3300Y5365D01*
Y5375D01*
X3295Y5380D01*
X3275D01*
X3270Y5375D01*
Y5365D01*
X3275Y5360D01*
X3300Y5330D02*
X3295Y5340D01*
X3285Y5350D01*
X3275D01*
X3270Y5345D01*
Y5335D01*
X3275Y5330D01*
X3280D01*
X3285Y5335D01*
Y5350D01*
X3295Y5320D02*
X3300Y5315D01*
Y5305D01*
X3295Y5300D01*
X3275D01*
X3270Y5305D01*
Y5315D01*
X3275Y5320D01*
X3295D01*
X3195Y2750D02*
X3190Y2745D01*
Y2735D01*
X3195Y2730D01*
X3215D01*
X3220Y2735D01*
Y2745D01*
X3215Y2750D01*
X3190Y2780D02*
Y2760D01*
X3205D01*
X3200Y2770D01*
Y2775D01*
X3205Y2780D01*
X3215D01*
X3220Y2775D01*
Y2765D01*
X3215Y2760D01*
Y2790D02*
X3220Y2795D01*
Y2805D01*
X3215Y2810D01*
X3195D01*
X3190Y2805D01*
Y2795D01*
X3195Y2790D01*
X3200D01*
X3205Y2795D01*
Y2810D01*
X4085Y2740D02*
X4080Y2735D01*
Y2725D01*
X4085Y2720D01*
X4105D01*
X4110Y2725D01*
Y2735D01*
X4105Y2740D01*
X4080Y2770D02*
Y2750D01*
X4095D01*
X4090Y2760D01*
Y2765D01*
X4095Y2770D01*
X4105D01*
X4110Y2765D01*
Y2755D01*
X4105Y2750D01*
X4085Y2780D02*
X4080Y2785D01*
Y2795D01*
X4085Y2800D01*
X4090D01*
X4095Y2795D01*
X4100Y2800D01*
X4105D01*
X4110Y2795D01*
Y2785D01*
X4105Y2780D01*
X4100D01*
X4095Y2785D01*
X4090Y2780D01*
X4085D01*
X4095Y2785D02*
Y2795D01*
X4970Y4725D02*
X4965Y4730D01*
X4955D01*
X4950Y4725D01*
Y4705D01*
X4955Y4700D01*
X4965D01*
X4970Y4705D01*
X5000Y4730D02*
X4980D01*
Y4715D01*
X4990Y4720D01*
X4995D01*
X5000Y4715D01*
Y4705D01*
X4995Y4700D01*
X4985D01*
X4980Y4705D01*
X5010Y4730D02*
X5030D01*
Y4725D01*
X5010Y4705D01*
Y4700D01*
X4365Y5380D02*
X4370Y5385D01*
Y5395D01*
X4365Y5400D01*
X4345D01*
X4340Y5395D01*
Y5385D01*
X4345Y5380D01*
X4370Y5350D02*
Y5370D01*
X4355D01*
X4360Y5360D01*
Y5355D01*
X4355Y5350D01*
X4345D01*
X4340Y5355D01*
Y5365D01*
X4345Y5370D01*
X4370Y5320D02*
X4365Y5330D01*
X4355Y5340D01*
X4345D01*
X4340Y5335D01*
Y5325D01*
X4345Y5320D01*
X4350D01*
X4355Y5325D01*
Y5340D01*
X3765Y5360D02*
X3770Y5365D01*
Y5375D01*
X3765Y5380D01*
X3745D01*
X3740Y5375D01*
Y5365D01*
X3745Y5360D01*
X3770Y5330D02*
Y5350D01*
X3755D01*
X3760Y5340D01*
Y5335D01*
X3755Y5330D01*
X3745D01*
X3740Y5335D01*
Y5345D01*
X3745Y5350D01*
X3770Y5300D02*
Y5320D01*
X3755D01*
X3760Y5310D01*
Y5305D01*
X3755Y5300D01*
X3745D01*
X3740Y5305D01*
Y5315D01*
X3745Y5320D01*
X3095Y5360D02*
X3100Y5365D01*
Y5375D01*
X3095Y5380D01*
X3075D01*
X3070Y5375D01*
Y5365D01*
X3075Y5360D01*
X3100Y5330D02*
Y5350D01*
X3085D01*
X3090Y5340D01*
Y5335D01*
X3085Y5330D01*
X3075D01*
X3070Y5335D01*
Y5345D01*
X3075Y5350D01*
X3070Y5305D02*
X3100D01*
X3085Y5320D01*
Y5300D01*
X2360Y4855D02*
X2355Y4860D01*
X2345D01*
X2340Y4855D01*
Y4835D01*
X2345Y4830D01*
X2355D01*
X2360Y4835D01*
X2390Y4860D02*
X2370D01*
Y4845D01*
X2380Y4850D01*
X2385D01*
X2390Y4845D01*
Y4835D01*
X2385Y4830D01*
X2375D01*
X2370Y4835D01*
X2400Y4855D02*
X2405Y4860D01*
X2415D01*
X2420Y4855D01*
Y4850D01*
X2415Y4845D01*
X2410D01*
X2415D01*
X2420Y4840D01*
Y4835D01*
X2415Y4830D01*
X2405D01*
X2400Y4835D01*
X2380Y4135D02*
X2375Y4140D01*
X2365D01*
X2360Y4135D01*
Y4115D01*
X2365Y4110D01*
X2375D01*
X2380Y4115D01*
X2410Y4140D02*
X2390D01*
Y4125D01*
X2400Y4130D01*
X2405D01*
X2410Y4125D01*
Y4115D01*
X2405Y4110D01*
X2395D01*
X2390Y4115D01*
X2440Y4110D02*
X2420D01*
X2440Y4130D01*
Y4135D01*
X2435Y4140D01*
X2425D01*
X2420Y4135D01*
X2350Y3385D02*
X2345Y3390D01*
X2335D01*
X2330Y3385D01*
Y3365D01*
X2335Y3360D01*
X2345D01*
X2350Y3365D01*
X2380Y3390D02*
X2360D01*
Y3375D01*
X2370Y3380D01*
X2375D01*
X2380Y3375D01*
Y3365D01*
X2375Y3360D01*
X2365D01*
X2360Y3365D01*
X2390Y3360D02*
X2400D01*
X2395D01*
Y3390D01*
X2390Y3385D01*
X2995Y2740D02*
X2990Y2735D01*
Y2725D01*
X2995Y2720D01*
X3015D01*
X3020Y2725D01*
Y2735D01*
X3015Y2740D01*
X2990Y2770D02*
Y2750D01*
X3005D01*
X3000Y2760D01*
Y2765D01*
X3005Y2770D01*
X3015D01*
X3020Y2765D01*
Y2755D01*
X3015Y2750D01*
X2995Y2780D02*
X2990Y2785D01*
Y2795D01*
X2995Y2800D01*
X3015D01*
X3020Y2795D01*
Y2785D01*
X3015Y2780D01*
X2995D01*
X3645Y2740D02*
X3640Y2735D01*
Y2725D01*
X3645Y2720D01*
X3665D01*
X3670Y2725D01*
Y2735D01*
X3665Y2740D01*
X3670Y2765D02*
X3640D01*
X3655Y2750D01*
Y2770D01*
X3665Y2780D02*
X3670Y2785D01*
Y2795D01*
X3665Y2800D01*
X3645D01*
X3640Y2795D01*
Y2785D01*
X3645Y2780D01*
X3650D01*
X3655Y2785D01*
Y2800D01*
X4325Y2750D02*
X4320Y2745D01*
Y2735D01*
X4325Y2730D01*
X4345D01*
X4350Y2735D01*
Y2745D01*
X4345Y2750D01*
X4350Y2775D02*
X4320D01*
X4335Y2760D01*
Y2780D01*
X4325Y2790D02*
X4320Y2795D01*
Y2805D01*
X4325Y2810D01*
X4330D01*
X4335Y2805D01*
X4340Y2810D01*
X4345D01*
X4350Y2805D01*
Y2795D01*
X4345Y2790D01*
X4340D01*
X4335Y2795D01*
X4330Y2790D01*
X4325D01*
X4335Y2795D02*
Y2805D01*
X4950Y3195D02*
X4945Y3200D01*
X4935D01*
X4930Y3195D01*
Y3175D01*
X4935Y3170D01*
X4945D01*
X4950Y3175D01*
X4975Y3170D02*
Y3200D01*
X4960Y3185D01*
X4980D01*
X4990Y3200D02*
X5010D01*
Y3195D01*
X4990Y3175D01*
Y3170D01*
X4970Y3965D02*
X4965Y3970D01*
X4955D01*
X4950Y3965D01*
Y3945D01*
X4955Y3940D01*
X4965D01*
X4970Y3945D01*
X4995Y3940D02*
Y3970D01*
X4980Y3955D01*
X5000D01*
X5030Y3970D02*
X5020Y3965D01*
X5010Y3955D01*
Y3945D01*
X5015Y3940D01*
X5025D01*
X5030Y3945D01*
Y3950D01*
X5025Y3955D01*
X5010D01*
X2315Y2900D02*
X2310Y2895D01*
Y2885D01*
X2315Y2880D01*
X2335D01*
X2340Y2885D01*
Y2895D01*
X2335Y2900D01*
X2340Y2925D02*
X2310D01*
X2325Y2910D01*
Y2930D01*
X2315Y2940D02*
X2310Y2945D01*
Y2955D01*
X2315Y2960D01*
X2320D01*
X2325Y2955D01*
Y2950D01*
Y2955D01*
X2330Y2960D01*
X2335D01*
X2340Y2955D01*
Y2945D01*
X2335Y2940D01*
X5010Y5435D02*
X5005Y5440D01*
X4995D01*
X4990Y5435D01*
Y5415D01*
X4995Y5410D01*
X5005D01*
X5010Y5415D01*
X5020Y5435D02*
X5025Y5440D01*
X5035D01*
X5040Y5435D01*
Y5430D01*
X5035Y5425D01*
X5030D01*
X5035D01*
X5040Y5420D01*
Y5415D01*
X5035Y5410D01*
X5025D01*
X5020Y5415D01*
X5050Y5410D02*
X5060D01*
X5055D01*
Y5440D01*
X5050Y5435D01*
X5010Y5335D02*
X5005Y5340D01*
X4995D01*
X4990Y5335D01*
Y5315D01*
X4995Y5310D01*
X5005D01*
X5010Y5315D01*
X5040Y5310D02*
X5020D01*
X5040Y5330D01*
Y5335D01*
X5035Y5340D01*
X5025D01*
X5020Y5335D01*
X5050Y5315D02*
X5055Y5310D01*
X5065D01*
X5070Y5315D01*
Y5335D01*
X5065Y5340D01*
X5055D01*
X5050Y5335D01*
Y5330D01*
X5055Y5325D01*
X5070D01*
X8183Y4067D02*
X8178Y4072D01*
X8168D01*
X8163Y4067D01*
Y4047D01*
X8168Y4042D01*
X8178D01*
X8183Y4047D01*
X8193Y4067D02*
X8198Y4072D01*
X8208D01*
X8213Y4067D01*
Y4062D01*
X8208Y4057D01*
X8203D01*
X8208D01*
X8213Y4052D01*
Y4047D01*
X8208Y4042D01*
X8198D01*
X8193Y4047D01*
X7290Y3435D02*
X7295Y3430D01*
X7305D01*
X7310Y3435D01*
Y3455D01*
X7305Y3460D01*
X7295D01*
X7290Y3455D01*
X7260Y3460D02*
X7280D01*
X7260Y3440D01*
Y3435D01*
X7265Y3430D01*
X7275D01*
X7280Y3435D01*
X7250D02*
X7245Y3430D01*
X7235D01*
X7230Y3435D01*
Y3455D01*
X7235Y3460D01*
X7245D01*
X7250Y3455D01*
Y3435D01*
X6400Y3070D02*
Y3100D01*
X6415D01*
X6420Y3095D01*
Y3085D01*
X6415Y3080D01*
X6400D01*
X6410D02*
X6420Y3070D01*
X6450D02*
X6430D01*
X6450Y3090D01*
Y3095D01*
X6445Y3100D01*
X6435D01*
X6430Y3095D01*
X6460D02*
X6465Y3100D01*
X6475D01*
X6480Y3095D01*
Y3075D01*
X6475Y3070D01*
X6465D01*
X6460Y3075D01*
Y3095D01*
X5790Y5480D02*
Y5450D01*
X5775D01*
X5770Y5455D01*
Y5465D01*
X5775Y5470D01*
X5790D01*
X5780D02*
X5770Y5480D01*
X5740D02*
X5760D01*
X5740Y5460D01*
Y5455D01*
X5745Y5450D01*
X5755D01*
X5760Y5455D01*
X5730Y5480D02*
X5720D01*
X5725D01*
Y5450D01*
X5730Y5455D01*
X5850Y5380D02*
Y5350D01*
X5835D01*
X5830Y5355D01*
Y5365D01*
X5835Y5370D01*
X5850D01*
X5840D02*
X5830Y5380D01*
X5800D02*
X5820D01*
X5800Y5360D01*
Y5355D01*
X5805Y5350D01*
X5815D01*
X5820Y5355D01*
X5770Y5380D02*
X5790D01*
X5770Y5360D01*
Y5355D01*
X5775Y5350D01*
X5785D01*
X5790Y5355D01*
X5290Y3030D02*
Y3060D01*
X5305D01*
X5310Y3055D01*
Y3045D01*
X5305Y3040D01*
X5290D01*
X5300D02*
X5310Y3030D01*
X5340D02*
X5320D01*
X5340Y3050D01*
Y3055D01*
X5335Y3060D01*
X5325D01*
X5320Y3055D01*
X5350D02*
X5355Y3060D01*
X5365D01*
X5370Y3055D01*
Y3050D01*
X5365Y3045D01*
X5360D01*
X5365D01*
X5370Y3040D01*
Y3035D01*
X5365Y3030D01*
X5355D01*
X5350Y3035D01*
X5640Y3045D02*
X5645Y3040D01*
X5655D01*
X5660Y3045D01*
Y3065D01*
X5655Y3070D01*
X5645D01*
X5640Y3065D01*
X5630D02*
X5625Y3070D01*
X5615D01*
X5610Y3065D01*
Y3045D01*
X5615Y3040D01*
X5625D01*
X5630Y3045D01*
Y3050D01*
X5625Y3055D01*
X5610D01*
X8125Y3790D02*
X8120Y3785D01*
Y3775D01*
X8125Y3770D01*
X8145D01*
X8150Y3775D01*
Y3785D01*
X8145Y3790D01*
X8150Y3800D02*
Y3810D01*
Y3805D01*
X8120D01*
X8125Y3800D01*
X8120Y3845D02*
Y3825D01*
X8135D01*
X8130Y3835D01*
Y3840D01*
X8135Y3845D01*
X8145D01*
X8150Y3840D01*
Y3830D01*
X8145Y3825D01*
X7090Y2790D02*
Y2760D01*
X7075D01*
X7070Y2765D01*
Y2775D01*
X7075Y2780D01*
X7090D01*
X7080D02*
X7070Y2790D01*
X7060D02*
X7050D01*
X7055D01*
Y2760D01*
X7060Y2765D01*
X7240Y3650D02*
X7210D01*
Y3665D01*
X7215Y3670D01*
X7225D01*
X7230Y3665D01*
Y3650D01*
Y3660D02*
X7240Y3670D01*
Y3700D02*
Y3680D01*
X7220Y3700D01*
X7215D01*
X7210Y3695D01*
Y3685D01*
X7215Y3680D01*
X7240Y3725D02*
X7210D01*
X7225Y3710D01*
Y3730D01*
X1670Y4370D02*
X1640D01*
Y4385D01*
X1645Y4390D01*
X1655D01*
X1660Y4385D01*
Y4370D01*
Y4380D02*
X1670Y4390D01*
X1645Y4400D02*
X1640Y4405D01*
Y4415D01*
X1645Y4420D01*
X1650D01*
X1655Y4415D01*
Y4410D01*
Y4415D01*
X1660Y4420D01*
X1665D01*
X1670Y4415D01*
Y4405D01*
X1665Y4400D01*
X1645Y4430D02*
X1640Y4435D01*
Y4445D01*
X1645Y4450D01*
X1650D01*
X1655Y4445D01*
Y4440D01*
Y4445D01*
X1660Y4450D01*
X1665D01*
X1670Y4445D01*
Y4435D01*
X1665Y4430D01*
X8200Y4255D02*
X8205Y4250D01*
X8215D01*
X8220Y4255D01*
Y4275D01*
X8215Y4280D01*
X8205D01*
X8200Y4275D01*
X8190Y4250D02*
X8170D01*
Y4255D01*
X8190Y4275D01*
Y4280D01*
X8400Y4285D02*
X8395Y4290D01*
X8385D01*
X8380Y4285D01*
Y4265D01*
X8385Y4260D01*
X8395D01*
X8400Y4265D01*
X8410Y4285D02*
X8415Y4290D01*
X8425D01*
X8430Y4285D01*
Y4280D01*
X8425Y4275D01*
X8430Y4270D01*
Y4265D01*
X8425Y4260D01*
X8415D01*
X8410Y4265D01*
Y4270D01*
X8415Y4275D01*
X8410Y4280D01*
Y4285D01*
X8415Y4275D02*
X8425D01*
X6145Y5410D02*
X6150Y5415D01*
Y5425D01*
X6145Y5430D01*
X6125D01*
X6120Y5425D01*
Y5415D01*
X6125Y5410D01*
X6120Y5400D02*
Y5390D01*
Y5395D01*
X6150D01*
X6145Y5400D01*
Y5375D02*
X6150Y5370D01*
Y5360D01*
X6145Y5355D01*
X6125D01*
X6120Y5360D01*
Y5370D01*
X6125Y5375D01*
X6145D01*
X8300Y3795D02*
X8305Y3790D01*
X8315D01*
X8320Y3795D01*
Y3815D01*
X8315Y3820D01*
X8305D01*
X8300Y3815D01*
X8290Y3820D02*
X8280D01*
X8285D01*
Y3790D01*
X8290Y3795D01*
X8245Y3790D02*
X8255Y3795D01*
X8265Y3805D01*
Y3815D01*
X8260Y3820D01*
X8250D01*
X8245Y3815D01*
Y3810D01*
X8250Y3805D01*
X8265D01*
X8290Y3645D02*
X8295Y3640D01*
X8305D01*
X8310Y3645D01*
Y3665D01*
X8305Y3670D01*
X8295D01*
X8290Y3665D01*
X8280Y3670D02*
X8270D01*
X8275D01*
Y3640D01*
X8280Y3645D01*
X8255Y3640D02*
X8235D01*
Y3645D01*
X8255Y3665D01*
Y3670D01*
X8290Y3545D02*
X8295Y3540D01*
X8305D01*
X8310Y3545D01*
Y3565D01*
X8305Y3570D01*
X8295D01*
X8290Y3565D01*
X8280Y3570D02*
X8270D01*
X8275D01*
Y3540D01*
X8280Y3545D01*
X8255D02*
X8250Y3540D01*
X8240D01*
X8235Y3545D01*
Y3550D01*
X8240Y3555D01*
X8235Y3560D01*
Y3565D01*
X8240Y3570D01*
X8250D01*
X8255Y3565D01*
Y3560D01*
X8250Y3555D01*
X8255Y3550D01*
Y3545D01*
X8250Y3555D02*
X8240D01*
X7725Y3870D02*
X7730Y3875D01*
Y3885D01*
X7725Y3890D01*
X7705D01*
X7700Y3885D01*
Y3875D01*
X7705Y3870D01*
X7700Y3860D02*
Y3850D01*
Y3855D01*
X7730D01*
X7725Y3860D01*
X7705Y3835D02*
X7700Y3830D01*
Y3820D01*
X7705Y3815D01*
X7725D01*
X7730Y3820D01*
Y3830D01*
X7725Y3835D01*
X7720D01*
X7715Y3830D01*
Y3815D01*
X8255Y3280D02*
X8260Y3285D01*
Y3295D01*
X8255Y3300D01*
X8235D01*
X8230Y3295D01*
Y3285D01*
X8235Y3280D01*
X8230Y3250D02*
Y3270D01*
X8250Y3250D01*
X8255D01*
X8260Y3255D01*
Y3265D01*
X8255Y3270D01*
X8230Y3225D02*
X8260D01*
X8245Y3240D01*
Y3220D01*
X7345Y3270D02*
X7350Y3275D01*
Y3285D01*
X7345Y3290D01*
X7325D01*
X7320Y3285D01*
Y3275D01*
X7325Y3270D01*
X7320Y3240D02*
Y3260D01*
X7340Y3240D01*
X7345D01*
X7350Y3245D01*
Y3255D01*
X7345Y3260D01*
X7350Y3210D02*
Y3230D01*
X7335D01*
X7340Y3220D01*
Y3215D01*
X7335Y3210D01*
X7325D01*
X7320Y3215D01*
Y3225D01*
X7325Y3230D01*
X7325Y2860D02*
X7320Y2855D01*
Y2845D01*
X7325Y2840D01*
X7345D01*
X7350Y2845D01*
Y2855D01*
X7345Y2860D01*
X7350Y2890D02*
Y2870D01*
X7330Y2890D01*
X7325D01*
X7320Y2885D01*
Y2875D01*
X7325Y2870D01*
X7320Y2920D02*
X7325Y2910D01*
X7335Y2900D01*
X7345D01*
X7350Y2905D01*
Y2915D01*
X7345Y2920D01*
X7340D01*
X7335Y2915D01*
Y2900D01*
X7655Y3200D02*
X7650Y3195D01*
Y3185D01*
X7655Y3180D01*
X7675D01*
X7680Y3185D01*
Y3195D01*
X7675Y3200D01*
X7680Y3230D02*
Y3210D01*
X7660Y3230D01*
X7655D01*
X7650Y3225D01*
Y3215D01*
X7655Y3210D01*
X7650Y3240D02*
Y3260D01*
X7655D01*
X7675Y3240D01*
X7680D01*
X1765Y3280D02*
X1760Y3275D01*
Y3265D01*
X1765Y3260D01*
X1785D01*
X1790Y3265D01*
Y3275D01*
X1785Y3280D01*
X1790Y3305D02*
X1760D01*
X1775Y3290D01*
Y3310D01*
X1790Y3320D02*
Y3330D01*
Y3325D01*
X1760D01*
X1765Y3320D01*
X2890Y5815D02*
X2885Y5820D01*
X2875D01*
X2870Y5815D01*
Y5795D01*
X2875Y5790D01*
X2885D01*
X2890Y5795D01*
X2915Y5790D02*
Y5820D01*
X2900Y5805D01*
X2920D01*
X2950Y5790D02*
X2930D01*
X2950Y5810D01*
Y5815D01*
X2945Y5820D01*
X2935D01*
X2930Y5815D01*
X2105Y2900D02*
X2100Y2895D01*
Y2885D01*
X2105Y2880D01*
X2125D01*
X2130Y2885D01*
Y2895D01*
X2125Y2900D01*
X2130Y2925D02*
X2100D01*
X2115Y2910D01*
Y2930D01*
X2130Y2955D02*
X2100D01*
X2115Y2940D01*
Y2960D01*
X6920Y2850D02*
Y2880D01*
X6935D01*
X6940Y2875D01*
Y2865D01*
X6935Y2860D01*
X6920D01*
X6930D02*
X6940Y2850D01*
X6970D02*
X6950D01*
X6970Y2870D01*
Y2875D01*
X6965Y2880D01*
X6955D01*
X6950Y2875D01*
X6840Y2750D02*
Y2780D01*
X6855D01*
X6860Y2775D01*
Y2765D01*
X6855Y2760D01*
X6840D01*
X6850D02*
X6860Y2750D01*
X6870Y2775D02*
X6875Y2780D01*
X6885D01*
X6890Y2775D01*
Y2770D01*
X6885Y2765D01*
X6880D01*
X6885D01*
X6890Y2760D01*
Y2755D01*
X6885Y2750D01*
X6875D01*
X6870Y2755D01*
X6200Y2770D02*
Y2800D01*
X6215D01*
X6220Y2795D01*
Y2785D01*
X6215Y2780D01*
X6200D01*
X6210D02*
X6220Y2770D01*
X6230Y2775D02*
X6235Y2770D01*
X6245D01*
X6250Y2775D01*
Y2795D01*
X6245Y2800D01*
X6235D01*
X6230Y2795D01*
Y2790D01*
X6235Y2785D01*
X6250D01*
X6180Y2880D02*
Y2910D01*
X6195D01*
X6200Y2905D01*
Y2895D01*
X6195Y2890D01*
X6180D01*
X6190D02*
X6200Y2880D01*
X6210D02*
X6220D01*
X6215D01*
Y2910D01*
X6210Y2905D01*
X6235D02*
X6240Y2910D01*
X6250D01*
X6255Y2905D01*
Y2885D01*
X6250Y2880D01*
X6240D01*
X6235Y2885D01*
Y2905D01*
X7090Y3100D02*
X7060D01*
Y3115D01*
X7065Y3120D01*
X7075D01*
X7080Y3115D01*
Y3100D01*
Y3110D02*
X7090Y3120D01*
Y3130D02*
Y3140D01*
Y3135D01*
X7060D01*
X7065Y3130D01*
X7090Y3155D02*
Y3165D01*
Y3160D01*
X7060D01*
X7065Y3155D01*
X6990Y3100D02*
X6960D01*
Y3115D01*
X6965Y3120D01*
X6975D01*
X6980Y3115D01*
Y3100D01*
Y3110D02*
X6990Y3120D01*
Y3130D02*
Y3140D01*
Y3135D01*
X6960D01*
X6965Y3130D01*
X6990Y3175D02*
Y3155D01*
X6970Y3175D01*
X6965D01*
X6960Y3170D01*
Y3160D01*
X6965Y3155D01*
X7300Y3730D02*
X7330D01*
Y3715D01*
X7325Y3710D01*
X7315D01*
X7310Y3715D01*
Y3730D01*
Y3720D02*
X7300Y3710D01*
Y3680D02*
Y3700D01*
X7320Y3680D01*
X7325D01*
X7330Y3685D01*
Y3695D01*
X7325Y3700D01*
X7330Y3650D02*
Y3670D01*
X7315D01*
X7320Y3660D01*
Y3655D01*
X7315Y3650D01*
X7305D01*
X7300Y3655D01*
Y3665D01*
X7305Y3670D01*
X7310Y3560D02*
Y3530D01*
X7295D01*
X7290Y3535D01*
Y3545D01*
X7295Y3550D01*
X7310D01*
X7300D02*
X7290Y3560D01*
X7260D02*
X7280D01*
X7260Y3540D01*
Y3535D01*
X7265Y3530D01*
X7275D01*
X7280Y3535D01*
X7230Y3530D02*
X7240Y3535D01*
X7250Y3545D01*
Y3555D01*
X7245Y3560D01*
X7235D01*
X7230Y3555D01*
Y3550D01*
X7235Y3545D01*
X7250D01*
X7420Y3280D02*
X7450D01*
Y3265D01*
X7445Y3260D01*
X7435D01*
X7430Y3265D01*
Y3280D01*
Y3270D02*
X7420Y3260D01*
Y3230D02*
Y3250D01*
X7440Y3230D01*
X7445D01*
X7450Y3235D01*
Y3245D01*
X7445Y3250D01*
Y3220D02*
X7450Y3215D01*
Y3205D01*
X7445Y3200D01*
X7440D01*
X7435Y3205D01*
X7430Y3200D01*
X7425D01*
X7420Y3205D01*
Y3215D01*
X7425Y3220D01*
X7430D01*
X7435Y3215D01*
X7440Y3220D01*
X7445D01*
X7435Y3215D02*
Y3205D01*
X7570Y3170D02*
X7540D01*
Y3185D01*
X7545Y3190D01*
X7555D01*
X7560Y3185D01*
Y3170D01*
Y3180D02*
X7570Y3190D01*
Y3220D02*
Y3200D01*
X7550Y3220D01*
X7545D01*
X7540Y3215D01*
Y3205D01*
X7545Y3200D01*
X7565Y3230D02*
X7570Y3235D01*
Y3245D01*
X7565Y3250D01*
X7545D01*
X7540Y3245D01*
Y3235D01*
X7545Y3230D01*
X7550D01*
X7555Y3235D01*
Y3250D01*
X1670Y4150D02*
X1640D01*
Y4165D01*
X1645Y4170D01*
X1655D01*
X1660Y4165D01*
Y4150D01*
Y4160D02*
X1670Y4170D01*
X1645Y4180D02*
X1640Y4185D01*
Y4195D01*
X1645Y4200D01*
X1650D01*
X1655Y4195D01*
Y4190D01*
Y4195D01*
X1660Y4200D01*
X1665D01*
X1670Y4195D01*
Y4185D01*
X1665Y4180D01*
X1640Y4230D02*
Y4210D01*
X1655D01*
X1650Y4220D01*
Y4225D01*
X1655Y4230D01*
X1665D01*
X1670Y4225D01*
Y4215D01*
X1665Y4210D01*
X1680Y3260D02*
X1650D01*
Y3275D01*
X1655Y3280D01*
X1665D01*
X1670Y3275D01*
Y3260D01*
Y3270D02*
X1680Y3280D01*
X1655Y3290D02*
X1650Y3295D01*
Y3305D01*
X1655Y3310D01*
X1660D01*
X1665Y3305D01*
Y3300D01*
Y3305D01*
X1670Y3310D01*
X1675D01*
X1680Y3305D01*
Y3295D01*
X1675Y3290D01*
Y3320D02*
X1680Y3325D01*
Y3335D01*
X1675Y3340D01*
X1655D01*
X1650Y3335D01*
Y3325D01*
X1655Y3320D01*
X1660D01*
X1665Y3325D01*
Y3340D01*
M02*
