M48
METRIC,LZ
;TYPE=PLATED
T1F00S00C0.20
%
T01
X00569Y00313
X00579
X00594
X00599
X00604
X00609
X00619
X00624
X006292Y003133
X00634Y00313
X00594Y0035
X00604Y00362
X005742Y003378
X005692Y003428
X005603Y004017
X00558Y00414
X00559Y00422
X00549Y00418
X00544Y00406
X005792Y004017
X00574Y00442
X00569Y00438
X00564Y00434
X00594Y0045
X00599Y00446
X00609Y00462
X00619Y00458
X00624Y0047
X00629Y00466
X00634Y00474
X00639Y00478
X00645Y00486
X00654Y0049
X00675Y00486
X00676Y00478
Y0047
X00675Y00462
X00676Y00454
Y00446
X00677Y00438
X00677Y0043
X00678Y00422
Y00414
X00677Y00406
X00687Y0041
Y00402
Y00418
Y00426
Y00434
Y00442
Y0045
Y00458
Y00466
Y00474
Y00482
Y0049
X00703Y00498
X00727Y00514
X00735Y00506
X00743Y00514
X00751
Y00506
X00759
Y00514
X00767
Y00506
X00775
Y00514
X00783
X00791
X00783Y00506
Y0049
X00775
Y00474
Y00466
X00767
X00759Y00458
X00751Y00442
Y00426
X00759Y00418
Y00402
X00751Y0041
X00743
Y00402
X00735Y0041
X00727
X00719
Y00402
X00727
X00711
X00703
X00703Y0041
X00695
X00711
X00651Y0039
X006443Y003817
X00624Y00414
X00634Y00426
X00743Y00482
X00751Y00482
X00744Y00499
X008Y00486
X008Y00478
Y0047
X008Y00462
Y0043
Y00422
X00539Y0041
X00513Y00426
X004875Y004275
X004885Y004325
X004895Y004375
Y004425
X004925Y004525
X005015Y004475
X004865Y004625
Y004675
X00484Y00471
X00486Y00476
X004865Y004875
Y004925
X00484Y00418
X004885Y003625
X00485Y00352
X0049Y00347
X004905Y003425
X00507Y00338
X00442Y00375
X00438Y00373
X00434Y00369
X00428Y00372
X00423Y00369
X00417Y00372
X00411
X00405
X004
X003935Y003725
X00389Y00367
X003895Y002885
X00385Y00288
X003795Y002885
X00374Y00288
X00369
X003595Y002885
X003945
X004095
X004195
X004345
X004395Y002885
X00275Y00313
X00278Y00317
X00272Y00332
X00276Y00337
X00279Y00343
X00283Y00347
X00282Y00357
X00286Y00362
X00359Y00439
X00363Y00453
X003675Y004625
X00371Y00473
X00376Y00488
X003795Y005225
X003895Y005225
X0041Y00523
X00396Y00549
M30
