%FSLAX42Y42*%
%MOMM*%
G71*
G01*
G75*
G04 Layer_Physical_Order=1*
%ADD10C,0.45*%
%ADD11R,0.30X1.60*%
%ADD12R,0.60X0.50*%
%ADD13R,0.50X0.60*%
%ADD14R,1.20X1.50*%
%ADD15R,1.50X1.20*%
%ADD16R,0.80X0.90*%
%ADD17R,1.60X0.30*%
%ADD18R,1.95X3.40*%
%ADD19R,1.95X1.10*%
%ADD20R,1.45X0.55*%
%ADD21R,0.90X0.80*%
%ADD22R,2.60X2.40*%
%ADD23R,1.00X2.50*%
%ADD24R,2.50X6.00*%
%ADD25R,3.50X3.20*%
%ADD26R,4.50X1.50*%
%ADD27R,1.50X0.35*%
%ADD28C,0.15*%
%ADD29C,0.25*%
%ADD30C,0.15*%
%ADD31C,0.13*%
%ADD32C,0.18*%
%ADD33C,0.30*%
%ADD34C,0.40*%
D10*
X7470Y4220D02*
D03*
X7550Y4300D02*
D03*
X7070Y4060D02*
D03*
X7310Y4380D02*
D03*
Y4300D02*
D03*
Y4220D02*
D03*
X7390Y4300D02*
D03*
X6830Y5180D02*
D03*
Y5100D02*
D03*
Y5020D02*
D03*
Y4940D02*
D03*
Y4860D02*
D03*
Y4780D02*
D03*
Y4700D02*
D03*
Y4620D02*
D03*
Y4540D02*
D03*
Y4460D02*
D03*
Y4380D02*
D03*
Y4300D02*
D03*
Y4220D02*
D03*
Y4140D02*
D03*
Y4060D02*
D03*
X6910Y5180D02*
D03*
Y5100D02*
D03*
Y5020D02*
D03*
Y4940D02*
D03*
Y4860D02*
D03*
Y4780D02*
D03*
Y4700D02*
D03*
Y4620D02*
D03*
Y4540D02*
D03*
Y4460D02*
D03*
Y4380D02*
D03*
Y4300D02*
D03*
Y4220D02*
D03*
Y4140D02*
D03*
Y4060D02*
D03*
X6990Y5180D02*
D03*
Y5100D02*
D03*
Y5020D02*
D03*
Y4940D02*
D03*
Y4860D02*
D03*
Y4780D02*
D03*
Y4700D02*
D03*
Y4620D02*
D03*
Y4540D02*
D03*
Y4460D02*
D03*
Y4380D02*
D03*
Y4300D02*
D03*
Y4220D02*
D03*
Y4140D02*
D03*
X6990Y4060D02*
D03*
X7070Y5180D02*
D03*
Y5100D02*
D03*
Y5020D02*
D03*
Y4940D02*
D03*
Y4860D02*
D03*
Y4780D02*
D03*
Y4700D02*
D03*
Y4620D02*
D03*
Y4540D02*
D03*
Y4460D02*
D03*
Y4380D02*
D03*
Y4300D02*
D03*
Y4220D02*
D03*
Y4140D02*
D03*
X7150Y5180D02*
D03*
Y5100D02*
D03*
Y5020D02*
D03*
Y4940D02*
D03*
Y4860D02*
D03*
Y4780D02*
D03*
Y4700D02*
D03*
Y4620D02*
D03*
Y4540D02*
D03*
Y4460D02*
D03*
Y4380D02*
D03*
Y4300D02*
D03*
Y4220D02*
D03*
Y4140D02*
D03*
Y4060D02*
D03*
X7230Y5180D02*
D03*
Y5100D02*
D03*
Y5020D02*
D03*
Y4940D02*
D03*
Y4860D02*
D03*
Y4780D02*
D03*
Y4700D02*
D03*
Y4620D02*
D03*
Y4540D02*
D03*
Y4460D02*
D03*
Y4380D02*
D03*
Y4300D02*
D03*
Y4220D02*
D03*
Y4140D02*
D03*
Y4060D02*
D03*
X7310Y5180D02*
D03*
Y5100D02*
D03*
Y5020D02*
D03*
Y4940D02*
D03*
Y4860D02*
D03*
Y4780D02*
D03*
Y4700D02*
D03*
Y4620D02*
D03*
Y4540D02*
D03*
Y4460D02*
D03*
Y4140D02*
D03*
Y4060D02*
D03*
X7390Y5180D02*
D03*
Y5100D02*
D03*
Y5020D02*
D03*
Y4940D02*
D03*
Y4860D02*
D03*
Y4780D02*
D03*
Y4700D02*
D03*
Y4620D02*
D03*
Y4540D02*
D03*
Y4460D02*
D03*
Y4380D02*
D03*
Y4220D02*
D03*
Y4140D02*
D03*
Y4060D02*
D03*
X7470Y5180D02*
D03*
Y5100D02*
D03*
Y5020D02*
D03*
Y4940D02*
D03*
Y4860D02*
D03*
Y4780D02*
D03*
Y4700D02*
D03*
Y4620D02*
D03*
Y4540D02*
D03*
Y4460D02*
D03*
Y4380D02*
D03*
Y4300D02*
D03*
Y4140D02*
D03*
Y4060D02*
D03*
X7550Y5180D02*
D03*
Y5100D02*
D03*
Y5020D02*
D03*
Y4940D02*
D03*
Y4860D02*
D03*
Y4780D02*
D03*
Y4700D02*
D03*
Y4620D02*
D03*
Y4540D02*
D03*
Y4460D02*
D03*
Y4380D02*
D03*
Y4220D02*
D03*
Y4140D02*
D03*
Y4060D02*
D03*
X7630Y5180D02*
D03*
Y5100D02*
D03*
Y5020D02*
D03*
Y4940D02*
D03*
Y4860D02*
D03*
Y4780D02*
D03*
Y4700D02*
D03*
Y4620D02*
D03*
Y4460D02*
D03*
Y4380D02*
D03*
Y4300D02*
D03*
Y4220D02*
D03*
Y4140D02*
D03*
Y4060D02*
D03*
X7710Y5180D02*
D03*
Y5100D02*
D03*
Y5020D02*
D03*
Y4940D02*
D03*
Y4860D02*
D03*
Y4780D02*
D03*
Y4700D02*
D03*
Y4620D02*
D03*
Y4540D02*
D03*
Y4460D02*
D03*
Y4380D02*
D03*
Y4300D02*
D03*
Y4220D02*
D03*
Y4140D02*
D03*
Y4060D02*
D03*
X7790Y5180D02*
D03*
Y5100D02*
D03*
Y5020D02*
D03*
Y4940D02*
D03*
Y4860D02*
D03*
Y4780D02*
D03*
Y4700D02*
D03*
Y4620D02*
D03*
Y4540D02*
D03*
Y4460D02*
D03*
Y4380D02*
D03*
Y4300D02*
D03*
Y4220D02*
D03*
Y4140D02*
D03*
Y4060D02*
D03*
X7870Y5180D02*
D03*
Y5100D02*
D03*
Y5020D02*
D03*
Y4940D02*
D03*
Y4860D02*
D03*
Y4780D02*
D03*
Y4700D02*
D03*
Y4540D02*
D03*
Y4460D02*
D03*
Y4380D02*
D03*
Y4300D02*
D03*
Y4220D02*
D03*
Y4140D02*
D03*
Y4060D02*
D03*
X7950Y5180D02*
D03*
Y5100D02*
D03*
Y5020D02*
D03*
Y4940D02*
D03*
Y4860D02*
D03*
Y4780D02*
D03*
Y4700D02*
D03*
Y4620D02*
D03*
Y4540D02*
D03*
Y4460D02*
D03*
Y4380D02*
D03*
Y4300D02*
D03*
Y4220D02*
D03*
Y4140D02*
D03*
Y4060D02*
D03*
X7630Y4540D02*
D03*
X7870Y4620D02*
D03*
D11*
X6493Y3240D02*
D03*
X3445Y5110D02*
D03*
X4545D02*
D03*
X4495D02*
D03*
X4445D02*
D03*
X4395D02*
D03*
X4345D02*
D03*
X4295D02*
D03*
X4245D02*
D03*
X4195D02*
D03*
X4145D02*
D03*
X4095D02*
D03*
X4045D02*
D03*
X3995D02*
D03*
X3945D02*
D03*
X3895D02*
D03*
X3845D02*
D03*
X3795D02*
D03*
X3745D02*
D03*
X3695D02*
D03*
X3645D02*
D03*
X3595D02*
D03*
X3545D02*
D03*
X3495D02*
D03*
X3395D02*
D03*
X3345D02*
D03*
X3295D02*
D03*
X3245D02*
D03*
X3195D02*
D03*
X3145D02*
D03*
X3095D02*
D03*
X3045D02*
D03*
X2995D02*
D03*
X2945D02*
D03*
X2895D02*
D03*
X2845D02*
D03*
X2795D02*
D03*
X4545Y2990D02*
D03*
X4495D02*
D03*
X4445D02*
D03*
X4395D02*
D03*
X4345D02*
D03*
X4295D02*
D03*
X4245D02*
D03*
X4195D02*
D03*
X4145D02*
D03*
X4095D02*
D03*
X4045D02*
D03*
X3995D02*
D03*
X3945D02*
D03*
X3895D02*
D03*
X3845D02*
D03*
X3795D02*
D03*
X3745D02*
D03*
X3695D02*
D03*
X3645D02*
D03*
X3595D02*
D03*
X3545D02*
D03*
X3495D02*
D03*
X3445D02*
D03*
X3395D02*
D03*
X3345D02*
D03*
X3295D02*
D03*
X3245D02*
D03*
X3195D02*
D03*
X3145D02*
D03*
X3095D02*
D03*
X3045D02*
D03*
X2995D02*
D03*
X2945D02*
D03*
X2895D02*
D03*
X2845D02*
D03*
X2795D02*
D03*
X5192Y3240D02*
D03*
X5242D02*
D03*
X5292D02*
D03*
X5342D02*
D03*
X5392D02*
D03*
X5442D02*
D03*
X5492D02*
D03*
X5542D02*
D03*
X5592D02*
D03*
X5642D02*
D03*
X5692D02*
D03*
X5742D02*
D03*
X5792D02*
D03*
X5842D02*
D03*
X5892D02*
D03*
X5942D02*
D03*
X5992D02*
D03*
X6042D02*
D03*
X6092D02*
D03*
X6142D02*
D03*
X6192D02*
D03*
X6242D02*
D03*
X6292D02*
D03*
X6342D02*
D03*
X6392D02*
D03*
X6443D02*
D03*
X6543D02*
D03*
X5192Y5160D02*
D03*
X5242D02*
D03*
X5292D02*
D03*
X5342D02*
D03*
X5392D02*
D03*
X5442D02*
D03*
X5492D02*
D03*
X5542D02*
D03*
X5592D02*
D03*
X5642D02*
D03*
X5692D02*
D03*
X5742D02*
D03*
X5792D02*
D03*
X5842D02*
D03*
X5892D02*
D03*
X5942D02*
D03*
X5992D02*
D03*
X6042D02*
D03*
X6092D02*
D03*
X6142D02*
D03*
X6192D02*
D03*
X6242D02*
D03*
X6292D02*
D03*
X6342D02*
D03*
X6392D02*
D03*
X6443D02*
D03*
X6493D02*
D03*
X6543D02*
D03*
D12*
X1650Y3350D02*
D03*
Y3250D02*
D03*
Y4250D02*
D03*
Y4150D02*
D03*
Y4470D02*
D03*
Y4370D02*
D03*
X7550Y3280D02*
D03*
Y3180D02*
D03*
X7440Y3180D02*
D03*
Y3280D02*
D03*
X7320Y3640D02*
D03*
Y3740D02*
D03*
X7220Y3740D02*
D03*
Y3640D02*
D03*
X6970Y3180D02*
D03*
Y3080D02*
D03*
X7070Y3180D02*
D03*
Y3080D02*
D03*
X2110Y2970D02*
D03*
Y2870D02*
D03*
X1770Y3340D02*
D03*
Y3240D02*
D03*
X7660Y3280D02*
D03*
Y3180D02*
D03*
X7340Y3180D02*
D03*
Y3280D02*
D03*
X7720Y3800D02*
D03*
Y3900D02*
D03*
X8130Y3860D02*
D03*
Y3760D02*
D03*
X6140Y5340D02*
D03*
Y5440D02*
D03*
X3100Y2810D02*
D03*
Y2710D02*
D03*
X3000Y2810D02*
D03*
Y2710D02*
D03*
X3750Y2810D02*
D03*
Y2710D02*
D03*
X3650Y2810D02*
D03*
Y2710D02*
D03*
X4430Y2820D02*
D03*
Y2720D02*
D03*
X4330Y2820D02*
D03*
Y2720D02*
D03*
X4260Y5310D02*
D03*
Y5410D02*
D03*
X4360Y5310D02*
D03*
Y5410D02*
D03*
X3650Y5290D02*
D03*
Y5390D02*
D03*
X3760Y5290D02*
D03*
Y5390D02*
D03*
X2990Y5300D02*
D03*
Y5400D02*
D03*
X3090Y5300D02*
D03*
Y5400D02*
D03*
X4530Y2820D02*
D03*
Y2720D02*
D03*
X4060Y5290D02*
D03*
Y5390D02*
D03*
X4160Y5290D02*
D03*
Y5390D02*
D03*
X3190Y5290D02*
D03*
Y5390D02*
D03*
X3290Y5290D02*
D03*
Y5390D02*
D03*
X3300Y2810D02*
D03*
Y2710D02*
D03*
X3200Y2810D02*
D03*
Y2710D02*
D03*
X4190Y2810D02*
D03*
Y2710D02*
D03*
X4090Y2810D02*
D03*
Y2710D02*
D03*
X3860Y5290D02*
D03*
Y5390D02*
D03*
X3960Y5290D02*
D03*
Y5390D02*
D03*
X3500Y5380D02*
D03*
Y5480D02*
D03*
X3500Y2810D02*
D03*
Y2710D02*
D03*
X3400Y2810D02*
D03*
Y2710D02*
D03*
X3990Y2810D02*
D03*
Y2710D02*
D03*
X3890Y2810D02*
D03*
Y2710D02*
D03*
X1650Y4000D02*
D03*
Y3900D02*
D03*
Y3580D02*
D03*
Y3480D02*
D03*
Y3790D02*
D03*
Y3690D02*
D03*
X2320Y2970D02*
D03*
Y2870D02*
D03*
X3310Y2470D02*
D03*
Y2570D02*
D03*
X2440Y2970D02*
D03*
Y2870D02*
D03*
D13*
X7220Y3540D02*
D03*
X7320D02*
D03*
X6270Y2900D02*
D03*
Y2780D02*
D03*
X6920Y2770D02*
D03*
X6820D02*
D03*
X6990Y2870D02*
D03*
X6890D02*
D03*
X7120Y2770D02*
D03*
X8230Y3550D02*
D03*
X8330D02*
D03*
X8230Y3650D02*
D03*
X8330D02*
D03*
X8230Y3800D02*
D03*
X8330D02*
D03*
X8450Y4270D02*
D03*
X8350D02*
D03*
X8150D02*
D03*
X8250D02*
D03*
X7020Y2770D02*
D03*
X5590Y3050D02*
D03*
X5690D02*
D03*
X8240Y4060D02*
D03*
X8140D02*
D03*
X7220Y3440D02*
D03*
X7320D02*
D03*
X2410Y3280D02*
D03*
X2310D02*
D03*
X2410Y3380D02*
D03*
X2310D02*
D03*
X4920Y3290D02*
D03*
X5020D02*
D03*
X4920Y3190D02*
D03*
X5020D02*
D03*
X4930Y4070D02*
D03*
X5030D02*
D03*
X4930Y3960D02*
D03*
X5030D02*
D03*
X4930Y4820D02*
D03*
X5030D02*
D03*
X4930Y4720D02*
D03*
X5030D02*
D03*
X2430Y4750D02*
D03*
X2330D02*
D03*
X2430Y4850D02*
D03*
X2330D02*
D03*
X2440Y4030D02*
D03*
X2340D02*
D03*
X2440Y4130D02*
D03*
X2340D02*
D03*
X3390Y5280D02*
D03*
X3490D02*
D03*
X4950Y5840D02*
D03*
X5050D02*
D03*
X5070Y5320D02*
D03*
X4970D02*
D03*
X5070Y5420D02*
D03*
X4970D02*
D03*
X5380Y3050D02*
D03*
X5280D02*
D03*
X5870Y5360D02*
D03*
X5770D02*
D03*
X5810Y5460D02*
D03*
X5710D02*
D03*
X6390Y3090D02*
D03*
X6490D02*
D03*
X6170Y2780D02*
D03*
Y2900D02*
D03*
D14*
X2800Y5790D02*
D03*
X3000D02*
D03*
D15*
X7340Y3000D02*
D03*
Y2800D02*
D03*
X4670Y2740D02*
D03*
Y2540D02*
D03*
X5870Y2550D02*
D03*
Y2750D02*
D03*
X3750Y5780D02*
D03*
Y5580D02*
D03*
D16*
X8250Y3160D02*
D03*
Y3330D02*
D03*
X4380Y5740D02*
D03*
Y5570D02*
D03*
D17*
X4730Y4125D02*
D03*
Y4025D02*
D03*
Y3975D02*
D03*
Y3875D02*
D03*
Y3825D02*
D03*
Y3775D02*
D03*
Y3725D02*
D03*
Y3675D02*
D03*
Y3625D02*
D03*
Y3525D02*
D03*
Y3475D02*
D03*
Y3425D02*
D03*
Y3375D02*
D03*
Y3325D02*
D03*
Y3225D02*
D03*
Y3175D02*
D03*
Y3275D02*
D03*
Y3575D02*
D03*
Y3925D02*
D03*
Y4075D02*
D03*
Y4225D02*
D03*
Y4575D02*
D03*
Y4825D02*
D03*
X2610Y3175D02*
D03*
Y3225D02*
D03*
Y3275D02*
D03*
Y3325D02*
D03*
Y3375D02*
D03*
Y3425D02*
D03*
Y3475D02*
D03*
Y3525D02*
D03*
Y3575D02*
D03*
Y3625D02*
D03*
Y3675D02*
D03*
Y3725D02*
D03*
Y3775D02*
D03*
Y3825D02*
D03*
Y3875D02*
D03*
Y3925D02*
D03*
Y3975D02*
D03*
Y4025D02*
D03*
Y4075D02*
D03*
Y4125D02*
D03*
Y4175D02*
D03*
Y4225D02*
D03*
Y4275D02*
D03*
Y4325D02*
D03*
Y4375D02*
D03*
Y4425D02*
D03*
Y4475D02*
D03*
Y4525D02*
D03*
Y4575D02*
D03*
Y4625D02*
D03*
Y4675D02*
D03*
Y4725D02*
D03*
Y4775D02*
D03*
Y4825D02*
D03*
Y4875D02*
D03*
Y4925D02*
D03*
X4730Y4175D02*
D03*
Y4275D02*
D03*
Y4325D02*
D03*
Y4375D02*
D03*
Y4425D02*
D03*
Y4475D02*
D03*
Y4525D02*
D03*
Y4625D02*
D03*
Y4675D02*
D03*
Y4725D02*
D03*
Y4775D02*
D03*
Y4875D02*
D03*
Y4925D02*
D03*
D18*
X4950Y2620D02*
D03*
D19*
X5590Y2850D02*
D03*
Y2620D02*
D03*
Y2390D02*
D03*
D20*
X3953Y5565D02*
D03*
Y5755D02*
D03*
X4167D02*
D03*
Y5660D02*
D03*
Y5565D02*
D03*
X8038Y3195D02*
D03*
Y3290D02*
D03*
Y3385D02*
D03*
X7822D02*
D03*
Y3195D02*
D03*
D21*
X2380Y5150D02*
D03*
X2210D02*
D03*
X2060Y5160D02*
D03*
X1890D02*
D03*
D22*
X2530Y5520D02*
D03*
X1890D02*
D03*
D23*
X8153Y4480D02*
D03*
X8407D02*
D03*
D24*
X8280Y5080D02*
D03*
D25*
X7665Y2900D02*
D03*
X8115D02*
D03*
D26*
X1855Y2510D02*
D03*
X2705D02*
D03*
D27*
X5008Y5532D02*
D03*
Y5598D02*
D03*
Y5662D02*
D03*
X4592Y5532D02*
D03*
Y5598D02*
D03*
Y5662D02*
D03*
X5008Y5728D02*
D03*
X4592D02*
D03*
D28*
X6342Y3133D02*
Y4258D01*
X6870Y4260D02*
X6910Y4300D01*
X6340Y4260D02*
X6342Y4258D01*
X6340Y3130D02*
X6342Y3133D01*
X5040Y4260D02*
X5130D01*
X4730Y4125D02*
X4905D01*
X6292Y3133D02*
Y3738D01*
X2935Y3625D02*
X4885D01*
X7190Y4020D02*
X7230Y4060D01*
X6290Y3740D02*
X6292Y3738D01*
X2920Y3610D02*
X2935Y3625D01*
X6242Y3133D02*
Y4138D01*
X4605Y4025D02*
X4840D01*
X6780Y4140D02*
X6830D01*
X6240Y4140D02*
X6242Y4138D01*
X5580Y4060D02*
Y4140D01*
X6240Y3130D02*
X6242Y3133D01*
X4550Y3970D02*
X4605Y4025D01*
X2935Y3525D02*
X4845D01*
X7270Y4100D02*
X7310Y4140D01*
X6190Y3242D02*
X6192Y3240D01*
Y3133D02*
Y3240D01*
X6190Y3130D02*
X6192Y3133D01*
X6190Y3242D02*
Y3700D01*
X4845Y3525D02*
X4850Y3520D01*
X2930Y3530D02*
X2935Y3525D01*
X6042Y3133D02*
Y3420D01*
X7350Y4100D02*
X7390Y4140D01*
X6042Y3450D02*
Y3617D01*
X6040Y3422D02*
Y3450D01*
Y3130D02*
X6042Y3133D01*
X4730Y3475D02*
X4895D01*
X5942Y3133D02*
Y3497D01*
X2935Y3425D02*
X4905D01*
X7430Y4020D02*
X7470Y4060D01*
X5940Y3130D02*
X5942Y3133D01*
X5792D02*
Y4017D01*
X4585Y3825D02*
X4890D01*
X6870Y4020D02*
X6910Y4060D01*
X5790Y3130D02*
X5792Y3133D01*
X4580Y3830D02*
X4585Y3825D01*
X5275Y3690D02*
X5603Y4017D01*
X2935Y3375D02*
X5065D01*
X7590Y4020D02*
X7630Y4060D01*
X5742Y3240D02*
Y3378D01*
X5065Y3375D02*
X5070Y3380D01*
X2930Y3370D02*
X2935Y3375D01*
X5692Y3133D02*
Y3428D01*
X5690Y3130D02*
X5692Y3133D01*
X4585Y3775D02*
X4730D01*
X4580Y3780D02*
X4585Y3775D01*
X5642Y3133D02*
Y3240D01*
Y3133D02*
X5645Y3130D01*
X4845Y3325D02*
X4850Y3330D01*
X4730Y3325D02*
X4845D01*
X5542Y3033D02*
Y3240D01*
X5200Y2480D02*
Y2690D01*
X5542Y3033D01*
X5442Y2992D02*
Y3240D01*
X7190Y4180D02*
X7230Y4220D01*
X5440Y3410D02*
X5442Y3240D01*
X5370Y3460D02*
X5390D01*
X4595Y3675D02*
X4730D01*
X5130Y2480D02*
Y2680D01*
X5442Y2992D01*
X5492Y3133D02*
Y3240D01*
X5490Y3130D02*
X5492Y3133D01*
X4835Y3225D02*
X4840Y3230D01*
X4730Y3225D02*
X4835D01*
X7510Y4180D02*
X7550Y4220D01*
X5392Y3127D02*
Y3240D01*
X4730Y3175D02*
X4778Y3127D01*
X5392D01*
X2945Y2885D02*
Y2990D01*
X2995Y2885D02*
Y2990D01*
X7750Y4180D02*
X7790Y4220D01*
X7070Y4940D02*
X7110Y4980D01*
X7350Y4820D02*
X7390Y4780D01*
X5842Y5160D02*
Y5278D01*
X5810Y5460D02*
X5820Y5450D01*
Y5300D02*
Y5450D01*
Y5300D02*
X5842Y5278D01*
X5892Y4392D02*
Y5338D01*
X6630Y5020D02*
X6830D01*
X6950Y4500D02*
X6990Y4540D01*
X7030Y4420D02*
X7070Y4460D01*
X4730Y4525D02*
X4925D01*
X5440Y4980D02*
X5442Y4983D01*
X6770Y4060D02*
X6830D01*
X5442Y4062D02*
Y4980D01*
X7030Y4500D02*
X7070Y4540D01*
X7030Y4580D02*
X7070Y4620D01*
X6420Y5470D02*
X6620D01*
X6910Y5180D01*
X5980Y5730D02*
X6040Y5670D01*
X6159D01*
X6309Y5520D01*
X4480Y5540D02*
X4488Y5532D01*
X4592D01*
X4482Y5598D02*
X4592D01*
X4480Y5600D02*
X4482Y5598D01*
X4480Y5670D02*
X4488Y5662D01*
X4592D01*
X4195Y5005D02*
Y5235D01*
X4210Y5250D02*
Y5490D01*
X4195Y5235D02*
X4210Y5250D01*
X4480Y5260D02*
X4870Y5650D01*
X4380Y5260D02*
X4480D01*
X4345Y5225D02*
X4380Y5260D01*
X4345Y5110D02*
Y5225D01*
X4395Y5225D02*
X4950D01*
X5020Y5140D02*
Y5155D01*
X4950Y5225D02*
X5020Y5155D01*
X4395Y5110D02*
Y5225D01*
X4540Y4870D02*
X4680Y5010D01*
X2610Y4925D02*
X3790D01*
X4531Y4900D02*
X4630Y4999D01*
X4670Y5090D02*
X4690D01*
X4630Y4999D02*
Y5050D01*
X3745Y5015D02*
Y5110D01*
X4630Y5050D02*
X4670Y5090D01*
X4660Y5150D02*
X4830D01*
X4598Y5008D02*
Y5088D01*
X3845Y4965D02*
Y5110D01*
X4520Y4930D02*
X4598Y5008D01*
Y5088D02*
X4660Y5150D01*
X4500Y4680D02*
X4600Y4780D01*
X2610Y4675D02*
X4250Y4679D01*
X4525Y4775D02*
X4610Y4860D01*
X2610Y4775D02*
X4525D01*
X3845Y4965D02*
X3880Y4930D01*
X4520D01*
X3860Y4900D02*
X4531D01*
X3745Y5015D02*
X3860Y4900D01*
X3790Y4925D02*
X3845Y4870D01*
X4540D01*
X3390Y5910D02*
X5850D01*
X2900Y5420D02*
X3390Y5910D01*
X2900Y5280D02*
Y5420D01*
X2845Y5426D02*
X3371Y5953D01*
X6112D01*
X2845Y5110D02*
Y5426D01*
X2795Y5415D02*
X3360Y5980D01*
X5800D01*
X2795Y5110D02*
Y5415D01*
X3630Y4490D02*
Y4530D01*
X3617Y4478D02*
X3630Y4490D01*
X2610Y4475D02*
X3617Y4478D01*
X3575Y4375D02*
X3590Y4390D01*
X2610Y4375D02*
X3575D01*
X2610Y4625D02*
X3675D01*
X3705Y4725D02*
X3710Y4730D01*
X2610Y4725D02*
X3705D01*
X3755Y4875D02*
X3760Y4880D01*
X2610Y4875D02*
X3755D01*
X3630Y5490D02*
X3960D01*
X3595Y5110D02*
Y5455D01*
X3630Y5490D01*
X3795Y5110D02*
Y5225D01*
X4045Y5110D02*
Y5225D01*
X3895Y5110D02*
Y5225D01*
X4095Y5225D02*
X4100Y5230D01*
X4095Y5110D02*
Y5225D01*
X3495Y5110D02*
Y5205D01*
X3445Y5025D02*
X3500Y4970D01*
X3445Y5025D02*
Y5110D01*
X3145D02*
Y5225D01*
X2995Y5110D02*
Y5185D01*
X2900Y5280D02*
X2995Y5185D01*
X7430Y4820D02*
X7470Y4780D01*
X7030Y4980D02*
X7070Y5020D01*
X7430Y5140D02*
X7470Y5100D01*
X6950Y5060D02*
X6990Y5020D01*
X7510Y4900D02*
X7550Y4860D01*
X7510Y4980D02*
X7550Y4940D01*
X6950Y5140D02*
X6990Y5100D01*
X7550Y5180D02*
Y5220D01*
X6400Y5730D02*
X6460Y5670D01*
X6320Y5570D02*
X6649D01*
X7260Y5230D02*
X7310Y5180D01*
X6280Y5610D02*
X6660D01*
X6309Y5520D02*
X6660D01*
X6500Y4940D02*
X6830D01*
X6490Y4930D02*
X6500Y4940D01*
X6490Y4630D02*
Y4930D01*
X5240Y3420D02*
Y3490D01*
Y3420D02*
X5242Y3417D01*
Y3240D02*
Y3417D01*
X6543Y5053D02*
Y5160D01*
X6870Y4820D02*
X6910Y4860D01*
X6540Y5050D02*
X6543Y5053D01*
X6870Y4900D02*
X6910Y4940D01*
X6540Y4900D02*
X6543Y4897D01*
Y3240D02*
Y4897D01*
X7430Y4100D02*
X7470Y4140D01*
X7030Y4820D02*
X7070Y4860D01*
X7590Y4900D02*
X7630Y4860D01*
X7590Y4980D02*
X7630Y4940D01*
X7670Y4900D02*
X7710Y4860D01*
X6420Y5640D02*
X6680D01*
X7470Y5180D02*
Y5230D01*
X6340Y5720D02*
Y5730D01*
Y5720D02*
X6420Y5640D01*
X6460Y5670D02*
X6690D01*
X7630Y5180D02*
Y5310D01*
X7560Y5360D02*
X7630D01*
X7710Y5180D02*
Y5280D01*
X7750Y4980D02*
X7790Y4940D01*
X7830Y5140D02*
X7870Y5100D01*
X7670Y5060D02*
X7710Y5020D01*
X7590Y5140D02*
X7630Y5100D01*
X7590Y5060D02*
X7630Y5020D01*
X7550Y4780D02*
X7590Y4820D01*
X7710Y4780D02*
X7750Y4820D01*
X7830Y5060D02*
X7870Y5020D01*
X7750Y5140D02*
X7790Y5100D01*
X7670Y4980D02*
X7710Y4940D01*
X7790Y4780D02*
X7830Y4820D01*
X7750Y5060D02*
X7790Y5020D01*
X7910Y5140D02*
X7950Y5100D01*
X7910Y4980D02*
X7950Y4940D01*
X7670Y5140D02*
X7710Y5100D01*
X7510Y5140D02*
X7550Y5100D01*
X7510Y5060D02*
X7550Y5020D01*
X7610Y5530D02*
X7870Y5270D01*
Y5180D02*
Y5270D01*
X7060Y5380D02*
Y5470D01*
X7120Y5530D01*
X7610D01*
X7180Y5490D02*
X7570D01*
X7790Y5180D02*
Y5270D01*
X7120Y5380D02*
Y5430D01*
X7180Y5490D01*
X7010Y5260D02*
X7330D01*
X6660Y5610D02*
X7010Y5260D01*
X7018Y5303D02*
X7397D01*
X6680Y5640D02*
X7018Y5303D01*
X7030Y5330D02*
X7440D01*
X6690Y5670D02*
X7030Y5330D01*
X6989Y5230D02*
X7260D01*
X6649Y5570D02*
X6989Y5230D01*
X7270Y5140D02*
X7310Y5100D01*
X7350Y5060D02*
X7390Y5020D01*
X6830Y5180D02*
Y5190D01*
X6750Y5180D02*
X6830D01*
X6710Y5140D02*
X6750Y5180D01*
X7390D02*
Y5200D01*
X7330Y5260D02*
X7390Y5200D01*
X7397Y5303D02*
X7470Y5230D01*
X7440Y5330D02*
X7550Y5220D01*
X6660Y5520D02*
X6990Y5190D01*
X7570Y5490D02*
X7790Y5270D01*
X6790Y5060D02*
X6830Y5100D01*
X6870Y5060D02*
X6910Y5100D01*
X6870Y4980D02*
X6910Y5020D01*
X6950Y4900D02*
X6990Y4940D01*
X7030Y5140D02*
X7070Y5180D01*
X7190Y4900D02*
X7230Y4940D01*
X7190Y4980D02*
X7230Y5020D01*
X7030Y5060D02*
X7070Y5100D01*
X7110Y5060D02*
X7150Y5100D01*
X7190Y5140D02*
X7230Y5180D01*
X7110Y5140D02*
X7150Y5180D01*
X7440Y4990D02*
X7470Y5020D01*
X7470Y4860D02*
X7510Y4820D01*
X7670Y4420D02*
X7710Y4460D01*
X7670Y4420D02*
X7670D01*
X7120Y2770D02*
Y2860D01*
X6940Y2990D02*
Y3030D01*
X7040Y2940D02*
X7120Y2860D01*
X6990Y2940D02*
X7040D01*
X6940Y2990D02*
X6990Y2940D01*
X6880Y2880D02*
X6890Y2870D01*
X7950Y4540D02*
X8000D01*
X7870Y4780D02*
X7910Y4820D01*
X7870Y4860D02*
X7910Y4900D01*
X7230Y5100D02*
X7270Y5060D01*
X7390Y5100D02*
X7430Y5060D01*
X2610Y4425D02*
X4375D01*
X4480Y4530D01*
X4450Y4580D02*
X4520D01*
X2610Y4575D02*
X4450Y4580D01*
X4250Y4680D02*
X4500D01*
X7630Y4700D02*
Y4700D01*
X7950Y4060D02*
X7990Y4020D01*
X7830Y4100D02*
X7870Y4140D01*
X7830Y4100D02*
X7830D01*
X7790Y4300D02*
X7790D01*
X7750Y4260D02*
X7790Y4300D01*
X7670Y4340D02*
X7710Y4380D01*
X7550Y4380D02*
X7590Y4420D01*
X7550Y4380D02*
Y4380D01*
X7630Y4380D02*
X7630D01*
X7590Y4340D02*
X7630Y4380D01*
X7630Y4300D02*
X7630D01*
X7590Y4260D02*
X7630Y4300D01*
X7710Y4380D02*
X7710D01*
X7670Y4500D02*
Y4500D01*
X7630Y4460D02*
X7670Y4500D01*
X7710Y4540D02*
X7710D01*
X7790Y4620D02*
X7790D01*
X7830Y4260D02*
X7870Y4220D01*
X7710Y4300D02*
X7750Y4340D01*
X7710Y4300D02*
Y4300D01*
X7790Y4460D02*
X7830Y4420D01*
X7830Y4580D02*
X7870Y4540D01*
X7630D02*
X7630D01*
X7550D02*
Y4540D01*
X7710Y4700D02*
Y4700D01*
X7870Y4860D02*
Y4860D01*
X8407Y4237D02*
Y4480D01*
Y4270D02*
X8450D01*
X7950Y4380D02*
X8000D01*
X8380Y4210D02*
X8407Y4237D01*
X8100Y4210D02*
X8380D01*
X8060Y4250D02*
X8100Y4210D01*
X8060Y4250D02*
Y4320D01*
X8000Y4380D02*
X8060Y4320D01*
X8133Y4460D02*
X8153Y4480D01*
X8133Y4287D02*
X8150Y4270D01*
X8133Y4287D02*
Y4460D01*
X7950D02*
X8133D01*
X7310Y4380D02*
X7310D01*
X7298Y4368D02*
X7310Y4380D01*
X2410Y3280D02*
Y3380D01*
X2360Y3330D02*
X2410D01*
X2440Y4030D02*
Y4130D01*
X2390Y4080D02*
X2440D01*
X2430Y4750D02*
Y4850D01*
X2380Y4800D02*
X2430D01*
X2990Y5300D02*
X3090D01*
X3040D02*
Y5350D01*
X3650Y5290D02*
X3760D01*
X3690Y5330D02*
X3700Y5340D01*
X3690Y5290D02*
Y5330D01*
Y5290D02*
X3695Y5285D01*
Y5110D02*
Y5285D01*
X4260Y5310D02*
X4360D01*
X4310D02*
Y5360D01*
X4930Y4720D02*
Y4820D01*
X4925Y4825D02*
X4930Y4820D01*
X4930Y4720D02*
X4930Y4720D01*
X4730Y4825D02*
X4925D01*
X4730Y4575D02*
X4845D01*
X4730Y4225D02*
X4835D01*
X4930Y3960D02*
Y4070D01*
X4730Y4075D02*
X4925D01*
X4930Y4070D02*
X4930Y4070D01*
X4925Y4075D02*
X4930Y4070D01*
X4635Y3925D02*
X4730D01*
X4620Y3910D02*
X4635Y3925D01*
X4730Y3575D02*
X4845D01*
X5020Y3190D02*
X5080D01*
X5020Y3290D02*
X5080D01*
X4920Y3190D02*
Y3290D01*
X4905Y3275D02*
X4920Y3290D01*
X4730Y3275D02*
X4905D01*
X4295Y2885D02*
Y2990D01*
X4145Y2885D02*
Y2990D01*
X2310Y3220D02*
Y3280D01*
X2310Y3380D02*
Y3440D01*
X2415Y3275D02*
X2610D01*
X2410Y3380D02*
X2410Y3380D01*
X2410Y3280D02*
X2415Y3275D01*
X2610Y3525D02*
X2725D01*
X2610Y3875D02*
X2725D01*
X2340Y3970D02*
Y4030D01*
Y3970D02*
X2340Y3970D01*
X2340Y4130D02*
Y4190D01*
X2445Y4025D02*
X2610D01*
X2440Y4030D02*
X2440Y4030D01*
X2440Y4030D02*
X2445Y4025D01*
X2610Y4175D02*
X2725D01*
X2610Y4525D02*
X2725D01*
X2330Y4690D02*
Y4750D01*
Y4850D02*
Y4910D01*
X2430Y4850D02*
X2455Y4825D01*
X2610D01*
X3345Y5235D02*
X3490Y5380D01*
X3500D01*
X3345Y5110D02*
Y5235D01*
X3490Y5280D02*
X3550D01*
X3500Y5480D02*
Y5540D01*
X4360Y5410D02*
Y5460D01*
X4260D02*
X4260Y5460D01*
Y5410D02*
Y5460D01*
X4060Y5290D02*
X4160D01*
X3995Y5225D02*
X4060Y5290D01*
X3995Y5110D02*
Y5225D01*
X3945Y5110D02*
Y5275D01*
X3860Y5290D02*
X3960D01*
X3945Y5275D02*
X3960Y5290D01*
X3295Y5110D02*
Y5285D01*
X3190Y5290D02*
X3290D01*
X3290Y5290D01*
X3295Y5285D01*
X3090Y5300D02*
X3095Y5295D01*
Y5110D02*
Y5295D01*
X2990Y5400D02*
Y5450D01*
X3090Y5400D02*
Y5450D01*
X3190Y5440D02*
X3190Y5440D01*
Y5390D02*
Y5440D01*
X3290Y5390D02*
Y5440D01*
X3650Y5390D02*
Y5440D01*
X3760Y5390D02*
Y5440D01*
X3860Y5390D02*
Y5440D01*
X3960Y5390D02*
Y5440D01*
X4160Y5390D02*
Y5440D01*
X4060Y5390D02*
Y5440D01*
X3195Y4995D02*
Y5110D01*
X4145Y5005D02*
Y5110D01*
X4245D02*
Y5295D01*
X4260Y5310D02*
X4260Y5310D01*
X4245Y5295D02*
X4260Y5310D01*
X4295Y5005D02*
Y5110D01*
X3295Y2885D02*
Y2990D01*
X3445Y2885D02*
Y2990D01*
X3495Y2885D02*
Y2990D01*
X3400Y2810D02*
X3570D01*
X3145Y2885D02*
Y2990D01*
X3245Y2885D02*
Y2990D01*
X3545Y2885D02*
Y2990D01*
X2930Y2760D02*
X2980Y2810D01*
X3595Y2885D02*
Y2990D01*
X3045Y2885D02*
Y2990D01*
X3195Y2885D02*
Y2990D01*
X3345Y2855D02*
Y2990D01*
X3200Y2810D02*
X3300D01*
X3300Y2810D02*
X3345Y2855D01*
X3300Y2810D02*
X3300Y2810D01*
X3250Y2760D02*
Y2810D01*
X3740Y2880D02*
Y2985D01*
X3695Y2885D02*
Y2990D01*
X3690Y2880D02*
X3695Y2885D01*
X3740Y2985D02*
X3745Y2990D01*
X3795Y2885D02*
Y2990D01*
X3845D02*
X3850Y2985D01*
Y2880D02*
Y2985D01*
X3895Y2885D02*
Y2990D01*
X3945Y2885D02*
Y2990D01*
X4395Y2885D02*
Y2990D01*
X4345Y2885D02*
Y2990D01*
X4195Y2885D02*
Y2990D01*
X4095Y2885D02*
Y2990D01*
X2980Y2810D02*
X3100D01*
Y2660D02*
Y2710D01*
X3200Y2660D02*
Y2710D01*
X3300Y2660D02*
Y2710D01*
Y2660D02*
X3300Y2660D01*
X3400Y2660D02*
Y2710D01*
X3500Y2660D02*
Y2710D01*
Y2660D02*
X3500Y2660D01*
X3650Y2810D02*
X3750D01*
X3700Y2760D02*
Y2810D01*
X3650Y2660D02*
Y2710D01*
X3650Y2660D02*
X3650Y2660D01*
X3750Y2660D02*
Y2710D01*
X3880Y2810D02*
X3990D01*
X3830Y2760D02*
X3880Y2810D01*
X4530Y2660D02*
Y2720D01*
X4430Y2660D02*
Y2720D01*
X4330Y2660D02*
Y2720D01*
X3890Y2660D02*
Y2710D01*
X3990Y2660D02*
Y2710D01*
X4090Y2660D02*
Y2710D01*
X4190Y2660D02*
Y2710D01*
X4290Y2820D02*
X4430D01*
X4380Y2770D02*
Y2820D01*
X4245Y2865D02*
Y2990D01*
X4230Y2770D02*
X4250D01*
X4190Y2810D02*
X4230Y2770D01*
X4090Y2810D02*
X4190D01*
X4530Y2820D02*
Y2860D01*
X4445Y2905D02*
Y2990D01*
X4500Y2890D02*
X4530Y2860D01*
X4460Y2890D02*
X4500D01*
X4445Y2905D02*
X4460Y2890D01*
X2705Y3175D02*
X2750Y3130D01*
X2610Y3175D02*
X2705D01*
X2725Y3225D02*
X2780Y3170D01*
X2610Y3225D02*
X2725D01*
X2715Y3325D02*
X2720Y3320D01*
X2610Y3325D02*
X2715D01*
X2755Y3375D02*
X2760Y3370D01*
X2610Y3375D02*
X2755D01*
X2785Y3425D02*
X2790Y3430D01*
X2610Y3425D02*
X2785D01*
X2825Y3475D02*
X2830Y3470D01*
X2610Y3475D02*
X2825D01*
X2815Y3575D02*
X2820Y3570D01*
X2610Y3575D02*
X2815D01*
X2855Y3625D02*
X2860Y3620D01*
X2610Y3625D02*
X2855D01*
X3885Y3675D02*
X3890Y3670D01*
X2610Y3675D02*
X3885D01*
X2610Y3725D02*
X3935D01*
X3945Y3775D02*
X4000Y3720D01*
X2610Y3775D02*
X3945D01*
X3945Y3825D02*
X4050Y3720D01*
X2610Y3825D02*
X3945D01*
X3905Y3925D02*
X4110Y3720D01*
X2610Y3925D02*
X3905D01*
X3915Y3975D02*
X4170Y3720D01*
X2610Y3975D02*
X3915D01*
X4230Y3690D02*
Y3720D01*
X2610Y4075D02*
X3875D01*
X3875Y4125D02*
X4280Y3720D01*
X2610Y4125D02*
X3875D01*
X4340Y3690D02*
Y3720D01*
X2610Y4225D02*
X3835D01*
X3835Y4275D02*
X4380Y3730D01*
X2610Y4275D02*
X3835D01*
X3845Y4325D02*
X4420Y3750D01*
X2610Y4325D02*
X3845D01*
X4245Y2865D02*
X4290Y2820D01*
X4045Y2855D02*
Y2990D01*
Y2855D02*
X4090Y2810D01*
X3995Y2815D02*
Y2990D01*
X3990Y2810D02*
X3995Y2815D01*
X3750Y2810D02*
X3750Y2810D01*
X3645Y2815D02*
Y2990D01*
Y2815D02*
X3650Y2810D01*
X3395Y2815D02*
X3400Y2810D01*
X3395Y2815D02*
Y2990D01*
X3095Y2815D02*
Y2990D01*
Y2815D02*
X3100Y2810D01*
X5592Y5022D02*
Y5160D01*
X6443Y4867D02*
Y5347D01*
X6750Y4860D02*
X6830D01*
X6443Y4867D02*
X6450Y4860D01*
X5740Y5650D02*
Y5710D01*
X6342Y4742D02*
Y5397D01*
X6870Y4740D02*
X6910Y4780D01*
X6340Y4740D02*
X6342Y4742D01*
X5670Y5630D02*
Y5710D01*
X6242Y4703D02*
Y5450D01*
X6760Y4700D02*
X6830D01*
X6240Y4700D02*
X6242Y4703D01*
X5620Y5610D02*
Y5710D01*
X6092Y4622D02*
Y5267D01*
X6750Y4620D02*
X6830D01*
X6090Y4620D02*
X6092Y4622D01*
X5560Y5620D02*
Y5710D01*
X5430Y5550D02*
Y5710D01*
X5640Y4340D02*
Y5250D01*
X5380Y5510D02*
X5640Y5250D01*
X6870Y4340D02*
X6910Y4380D01*
X5380Y5510D02*
Y5710D01*
X4730Y4725D02*
X4825D01*
X4840Y4710D01*
X5492Y5033D02*
Y5247D01*
X5320Y5420D02*
Y5710D01*
X5392Y5033D02*
Y5247D01*
X5260Y5380D02*
Y5710D01*
X5292Y3942D02*
Y5267D01*
X7030Y4100D02*
X7070Y4140D01*
X5200Y5710D02*
X5230Y5680D01*
X4730Y4375D02*
X4895D01*
X5192Y3783D02*
Y5658D01*
X7190Y4100D02*
X7230Y4140D01*
X5140Y5710D02*
X5192Y5658D01*
X5190Y3780D02*
X5192Y3783D01*
X4730Y4275D02*
X4875D01*
X5740Y5650D02*
X5760Y5630D01*
X6160D01*
X6443Y5347D01*
X5670Y5630D02*
X5700Y5600D01*
X6140D01*
X6342Y5397D01*
X6122Y5570D02*
X6242Y5450D01*
X5620Y5610D02*
X5660Y5570D01*
X6122D01*
X5560Y5620D02*
X5640Y5540D01*
X5820D01*
X6092Y5267D01*
X5870Y5360D02*
X5892Y5338D01*
X5742Y4422D02*
Y5238D01*
X5740Y5158D02*
X5742Y5160D01*
X6870Y4420D02*
X6910Y4460D01*
X5740Y4420D02*
X5742Y4422D01*
X4730Y4875D02*
X4865D01*
X5430Y5550D02*
X5742Y5238D01*
X5640Y5158D02*
X5642Y5160D01*
X5490Y5158D02*
X5492Y5160D01*
X5320Y5420D02*
X5492Y5247D01*
X5390Y5158D02*
X5392Y5160D01*
X5260Y5380D02*
X5392Y5247D01*
X5290Y5158D02*
X5292Y5160D01*
X5230Y5330D02*
Y5680D01*
Y5330D02*
X5292Y5267D01*
X5240Y5158D02*
X5242Y5160D01*
X5190Y5158D02*
X5192Y5160D01*
X7550Y3180D02*
X7660D01*
X7340Y3180D02*
X7440D01*
X7340Y3000D02*
Y3180D01*
Y3000D02*
X7565D01*
X7665Y2900D01*
X8215Y3195D02*
X8250Y3160D01*
X8038Y3195D02*
X8215D01*
X8115Y2900D02*
Y2905D01*
X7822Y3195D02*
X7825D01*
X8115Y2905D01*
X7765Y3385D02*
X7822D01*
X7340Y3280D02*
X7440D01*
X7440Y3280D01*
X7550D01*
X7660D01*
X7765Y3385D01*
X7550Y4460D02*
X7550D01*
X7710Y4780D02*
Y4780D01*
X7790Y4780D02*
Y4780D01*
X6990Y5180D02*
Y5190D01*
X7950Y5180D02*
Y5290D01*
X7060Y5640D02*
Y5650D01*
X7630Y5360D02*
X7710Y5280D01*
X7060Y5640D02*
X7140Y5560D01*
X7680D01*
X7950Y5290D01*
X7950Y5100D02*
X7950D01*
X3875Y4075D02*
X4230Y3720D01*
X3835Y4225D02*
X4340Y3720D01*
X2920Y3330D02*
X4725D01*
X2930Y3480D02*
X4725D01*
X7670Y4180D02*
X7710Y4220D01*
X6950Y4740D02*
X6990Y4780D01*
X6760Y3920D02*
X7620D01*
X6710Y3870D02*
X6760Y3920D01*
X7790Y4220D02*
X7790D01*
X7620Y3920D02*
X7710Y4010D01*
X7710Y4220D02*
X7710D01*
X7630D02*
X7630D01*
X7710Y4140D02*
X7710D01*
X6390Y3238D02*
X6392Y3240D01*
X6390Y3090D02*
Y3238D01*
X5740Y5040D02*
Y5158D01*
X7070Y4140D02*
X7070D01*
X7150D02*
X7150D01*
X7230D02*
X7230D01*
X7310D02*
X7310D01*
X7390D02*
X7390D01*
X7150Y4220D02*
X7150D01*
X7230D02*
X7230D01*
X7390D02*
X7390D01*
X7070Y4300D02*
X7070D01*
X7150D02*
X7150D01*
X7550Y4220D02*
X7550D01*
X7470Y4140D02*
X7470D01*
X7550D02*
X7550D01*
X7390Y4380D02*
X7390D01*
X7630Y4140D02*
X7630D01*
X6760Y4540D02*
X6830D01*
X6910Y4060D02*
X6910D01*
X7150D02*
X7150D01*
X7230D02*
X7230D01*
X7310D02*
X7310D01*
X7390D02*
X7390D01*
X7470D02*
X7470D01*
X7630D02*
X7630D01*
X6190Y5158D02*
X6192Y5160D01*
X5340Y5158D02*
X5342Y5160D01*
X7030Y4260D02*
X7070Y4300D01*
X7350Y4180D02*
X7390Y4220D01*
X5640Y4080D02*
X5980Y4420D01*
X6280D01*
X6490Y4630D01*
X6443Y3240D02*
Y3817D01*
X7110Y4020D02*
X7150Y4060D01*
X5990Y4460D02*
X5992Y4462D01*
X6760Y4460D02*
X6830D01*
X5992Y4462D02*
Y5160D01*
X4725Y3480D02*
X4730Y3475D01*
X4725Y3330D02*
X4730Y3325D01*
X3245Y4975D02*
Y5110D01*
Y4975D02*
X3250Y4970D01*
X3395Y4985D02*
Y5110D01*
Y4985D02*
X3400Y4980D01*
X3645Y4985D02*
X3650Y4980D01*
X3645Y4985D02*
Y5110D01*
X7790Y4540D02*
X7790D01*
X6950Y4340D02*
X6990Y4380D01*
X7030Y4340D02*
X7070Y4380D01*
X7110Y4580D02*
X7150Y4620D01*
X6950Y4580D02*
X6990Y4620D01*
X7110Y4260D02*
X7150Y4300D01*
X4825Y4775D02*
X4840Y4760D01*
X7030Y4740D02*
X7070Y4780D01*
X6950Y4820D02*
X6990Y4860D01*
X7030Y4660D02*
X7070Y4700D01*
X6950Y4660D02*
X6990Y4700D01*
X4615Y3175D02*
X4730D01*
X4610Y3180D02*
X4615Y3175D01*
X6710Y3800D02*
Y3870D01*
X7710Y4010D02*
Y4060D01*
X5240Y3490D02*
X5350Y3600D01*
Y3600D02*
X5640Y3890D01*
Y4080D01*
X5390Y3460D02*
X5440Y3410D01*
X7570Y3340D02*
X7870Y3640D01*
X6040Y3422D02*
X6042Y3420D01*
X6680Y3310D02*
Y3330D01*
X7555Y3405D02*
X7790Y3640D01*
X6740Y3390D02*
X7540D01*
X7540D02*
X7555Y3405D01*
X7790Y3640D02*
Y4060D01*
X6680Y3330D02*
X6740Y3390D01*
X6750Y3340D02*
X7570D01*
X7870Y3640D02*
Y4060D01*
X6950Y4420D02*
X6990Y4460D01*
X7350Y4340D02*
X7390Y4380D01*
X7590Y4100D02*
X7630Y4140D01*
X6670Y3950D02*
X7280D01*
X7390Y4060D01*
X7590Y4180D02*
X7630Y4220D01*
X7510Y4100D02*
X7550Y4140D01*
X7670Y4100D02*
X7710Y4140D01*
X7510Y4420D02*
X7550Y4460D01*
X6770Y4300D02*
X6830D01*
X4840Y4025D02*
X4850Y4015D01*
X5025Y3690D02*
X5275D01*
X4890Y3825D02*
X5025Y3690D01*
X5540Y3730D02*
X5730Y3920D01*
X5540Y3460D02*
Y3730D01*
X4835Y4175D02*
X4840Y4180D01*
X7270Y4020D02*
X7310Y4060D01*
X4730Y4175D02*
X4835D01*
X5050Y3730D02*
X5250D01*
X4850Y3930D02*
X5050Y3730D01*
X4850Y3930D02*
Y4015D01*
X5250Y3730D02*
X5580Y4060D01*
X4905Y4125D02*
X5040Y4260D01*
X4590Y4120D02*
X4725D01*
X4730Y4125D01*
Y4475D02*
X5015D01*
X6870Y4100D02*
X6910Y4140D01*
X5390Y4100D02*
Y5030D01*
X4730Y4325D02*
X4885D01*
X7110Y4100D02*
X7150Y4140D01*
X5240Y3860D02*
Y5158D01*
X4730Y4425D02*
X4895D01*
X5342Y3983D02*
Y5030D01*
Y5070D02*
Y5160D01*
X5340Y5030D02*
Y5067D01*
X5342Y5070D01*
X6950Y4100D02*
X6990Y4140D01*
X5442Y4983D02*
Y5022D01*
Y5030D02*
Y5160D01*
X5690Y5047D02*
X5692Y5050D01*
X6192Y5080D02*
Y5160D01*
X6190Y5078D02*
X6192Y5080D01*
X5940Y5158D02*
X5942Y5160D01*
X6192Y4583D02*
Y5040D01*
X6190D02*
Y5078D01*
X6870Y4580D02*
X6910Y4620D01*
X6392Y4783D02*
Y5030D01*
Y5080D02*
Y5160D01*
X6390Y5030D02*
Y5078D01*
X6760Y4780D02*
X6830D01*
X6390Y5078D02*
X6392Y5080D01*
X6292Y4662D02*
Y5030D01*
Y5070D02*
Y5160D01*
X6870Y4660D02*
X6910Y4700D01*
X6290Y5030D02*
Y5067D01*
X6292Y5070D01*
X6042Y5017D02*
X6050Y5010D01*
X6042Y5017D02*
Y5160D01*
X4730Y4925D02*
X4865D01*
X5942Y4503D02*
Y4980D01*
X6870Y4500D02*
X6910Y4540D01*
X5940Y4980D02*
X5942Y4983D01*
Y5160D01*
X4840Y4760D02*
X4860D01*
X4730Y4775D02*
X4825D01*
X6770Y4380D02*
X6830D01*
X5692Y5050D02*
Y5160D01*
X5690Y4380D02*
Y5047D01*
X4730Y4675D02*
X4865D01*
X6780Y4220D02*
X6830D01*
X5590D02*
Y5020D01*
X4730Y4625D02*
X4865D01*
X6870Y4180D02*
X6910Y4220D01*
X5490Y4180D02*
Y5030D01*
X7830Y4900D02*
X7870Y4940D01*
X7950Y4860D02*
X8000D01*
X7750Y4900D02*
X7790Y4860D01*
X7950Y4780D02*
X8000D01*
X7950Y4700D02*
X8000D01*
X7950Y4300D02*
X8000D01*
X7950Y4620D02*
X8000D01*
X7710Y4700D02*
X7750Y4740D01*
X7630Y4620D02*
X7670Y4660D01*
X7550Y4540D02*
X7590Y4580D01*
X7790Y4700D02*
X7830Y4660D01*
X7630Y4700D02*
X7670Y4740D01*
X7870Y4700D02*
X7910Y4740D01*
Y4740D01*
X7870Y4620D02*
X7910Y4580D01*
X7750Y4580D02*
X7790Y4620D01*
X6880Y2880D02*
Y3030D01*
X7670Y4580D02*
X7710Y4540D01*
X7750Y4500D02*
X7790Y4540D01*
X7950Y4220D02*
X8000D01*
X7710Y4620D02*
X7750Y4660D01*
Y4660D01*
X7150Y5020D02*
X7190Y5060D01*
X7350Y4900D02*
X7390Y4940D01*
X7390Y4860D02*
X7430Y4900D01*
X7310Y5020D02*
X7350Y4980D01*
X6493Y3240D02*
Y3883D01*
X6510Y3900D01*
X7030Y4020D02*
X7070Y4060D01*
X7510Y4260D02*
X7550Y4300D01*
X7510Y4260D02*
X7510D01*
X7430Y4180D02*
X7470Y4220D01*
X7430Y4180D02*
X7430D01*
X4580Y3930D02*
X4625Y3975D01*
X4730D01*
X6090Y3130D02*
X6092Y3133D01*
X6950Y4260D02*
X6990Y4300D01*
X6092Y3133D02*
Y4258D01*
X4585Y3875D02*
X4730D01*
X5990Y3130D02*
X5992Y3133D01*
X6950Y4180D02*
X6990Y4220D01*
X5992Y3133D02*
Y4178D01*
X4530Y3740D02*
X4545Y3725D01*
X5540Y3460D02*
X5542Y3240D01*
X4545Y3725D02*
X4730D01*
X7110Y4180D02*
X7150Y4220D01*
X5730Y3920D02*
Y4100D01*
D29*
X7650Y2450D02*
X7701D01*
X7675D01*
Y2602D01*
X7650Y2577D01*
X9060Y6051D02*
X9115D01*
X9065Y2251D02*
X9110D01*
X9090Y4502D02*
Y6051D01*
Y2251D02*
Y3710D01*
X9039Y5898D02*
X9090Y6051D01*
X9141Y5898D01*
X9090Y2251D02*
X9141Y2403D01*
X9039D02*
X9090Y2251D01*
X1457Y1815D02*
Y1865D01*
X8557Y1800D02*
Y1865D01*
X1457Y1840D02*
X4583D01*
X5350D02*
X8557D01*
X1457D02*
X1610Y1789D01*
X1457Y1840D02*
X1610Y1891D01*
X8405D02*
X8557Y1840D01*
X8405Y1789D02*
X8557Y1840D01*
X8530Y170D02*
Y1170D01*
X7480Y660D02*
X9900D01*
X7480Y180D02*
Y1170D01*
X4340Y190D02*
Y1170D01*
X9900D01*
Y170D02*
Y6540D01*
Y6510D02*
X9930Y6540D01*
X290D02*
X9930D01*
X290Y170D02*
Y6540D01*
Y170D02*
X9900D01*
X9090Y977D02*
X9115Y1002D01*
X9166D01*
X9192Y977D01*
Y875D01*
X9166Y850D01*
X9115D01*
X9090Y875D01*
Y977D01*
X9242Y850D02*
Y952D01*
X9293Y1002D01*
X9344Y952D01*
Y850D01*
Y926D01*
X9242D01*
D30*
X9078Y3751D02*
X9053Y3776D01*
Y3827D01*
X9078Y3852D01*
X9104D01*
X9129Y3827D01*
Y3801D01*
Y3827D01*
X9155Y3852D01*
X9180D01*
X9205Y3827D01*
Y3776D01*
X9180Y3751D01*
X9078Y3903D02*
X9053Y3928D01*
Y3979D01*
X9078Y4005D01*
X9104D01*
X9129Y3979D01*
X9155Y4005D01*
X9180D01*
X9205Y3979D01*
Y3928D01*
X9180Y3903D01*
X9155D01*
X9129Y3928D01*
X9104Y3903D01*
X9078D01*
X9129Y3928D02*
Y3979D01*
X9231Y4081D02*
X9205Y4106D01*
X9180D01*
Y4081D01*
X9205D01*
Y4106D01*
X9231Y4081D01*
X9256Y4055D01*
X9078Y4208D02*
X9053Y4233D01*
Y4284D01*
X9078Y4309D01*
X9180D01*
X9205Y4284D01*
Y4233D01*
X9180Y4208D01*
X9078D01*
Y4360D02*
X9053Y4385D01*
Y4436D01*
X9078Y4462D01*
X9180D01*
X9205Y4436D01*
Y4385D01*
X9180Y4360D01*
X9078D01*
X4624Y1876D02*
X4725D01*
Y1850D01*
X4624Y1749D01*
Y1723D01*
X4776D02*
X4827D01*
X4802D01*
Y1876D01*
X4776Y1850D01*
X4928Y1698D02*
X4954Y1723D01*
Y1749D01*
X4928D01*
Y1723D01*
X4954D01*
X4928Y1698D01*
X4903Y1672D01*
X5055Y1850D02*
X5081Y1876D01*
X5132D01*
X5157Y1850D01*
Y1749D01*
X5132Y1723D01*
X5081D01*
X5055Y1749D01*
Y1850D01*
X5208D02*
X5233Y1876D01*
X5284D01*
X5309Y1850D01*
Y1749D01*
X5284Y1723D01*
X5233D01*
X5208Y1749D01*
Y1850D01*
D31*
X8750Y455D02*
X8767Y472D01*
X8801D01*
X8818Y455D01*
Y438D01*
X8801Y421D01*
X8784D01*
X8801D01*
X8818Y404D01*
Y387D01*
X8801Y370D01*
X8767D01*
X8750Y387D01*
X8852Y455D02*
X8868Y472D01*
X8902D01*
X8919Y455D01*
Y387D01*
X8902Y370D01*
X8868D01*
X8852Y387D01*
Y455D01*
X8953Y370D02*
Y387D01*
X8970D01*
Y370D01*
X8953D01*
X9038Y455D02*
X9055Y472D01*
X9089D01*
X9105Y455D01*
Y387D01*
X9089Y370D01*
X9055D01*
X9038Y387D01*
Y455D01*
X9139D02*
X9156Y472D01*
X9190D01*
X9207Y455D01*
Y438D01*
X9190Y421D01*
X9207Y404D01*
Y387D01*
X9190Y370D01*
X9156D01*
X9139Y387D01*
Y404D01*
X9156Y421D01*
X9139Y438D01*
Y455D01*
X9156Y421D02*
X9190D01*
X9241Y370D02*
Y387D01*
X9258D01*
Y370D01*
X9241D01*
X9393D02*
X9326D01*
X9393Y438D01*
Y455D01*
X9376Y472D01*
X9342D01*
X9326Y455D01*
X9427D02*
X9444Y472D01*
X9478D01*
X9495Y455D01*
Y387D01*
X9478Y370D01*
X9444D01*
X9427Y387D01*
Y455D01*
X9529D02*
X9546Y472D01*
X9579D01*
X9596Y455D01*
Y387D01*
X9579Y370D01*
X9546D01*
X9529Y387D01*
Y455D01*
X9698Y472D02*
X9630D01*
Y421D01*
X9664Y438D01*
X9681D01*
X9698Y421D01*
Y387D01*
X9681Y370D01*
X9647D01*
X9630Y387D01*
X5690Y870D02*
Y972D01*
X5758Y870D01*
Y972D01*
X5859Y955D02*
X5842Y972D01*
X5808D01*
X5792Y955D01*
Y887D01*
X5808Y870D01*
X5842D01*
X5859Y887D01*
X470Y318D02*
X514D01*
X528Y323D01*
X533Y328D01*
X538Y338D01*
Y352D01*
X533Y362D01*
X528Y367D01*
X514Y372D01*
X470D01*
Y270D01*
X560Y338D02*
Y270D01*
Y309D02*
X565Y323D01*
X575Y333D01*
X585Y338D01*
X599D01*
X633D02*
X623Y333D01*
X613Y323D01*
X608Y309D01*
Y299D01*
X613Y285D01*
X623Y275D01*
X633Y270D01*
X647D01*
X657Y275D01*
X666Y285D01*
X671Y299D01*
Y309D01*
X666Y323D01*
X657Y333D01*
X647Y338D01*
X633D01*
X693D02*
Y236D01*
Y323D02*
X703Y333D01*
X713Y338D01*
X727D01*
X737Y333D01*
X747Y323D01*
X752Y309D01*
Y299D01*
X747Y285D01*
X737Y275D01*
X727Y270D01*
X713D01*
X703Y275D01*
X693Y285D01*
X773Y309D02*
X831D01*
Y318D01*
X826Y328D01*
X822Y333D01*
X812Y338D01*
X797D01*
X788Y333D01*
X778Y323D01*
X773Y309D01*
Y299D01*
X778Y285D01*
X788Y275D01*
X797Y270D01*
X812D01*
X822Y275D01*
X831Y285D01*
X853Y338D02*
Y270D01*
Y309D02*
X858Y323D01*
X868Y333D01*
X877Y338D01*
X892D01*
X915Y372D02*
Y289D01*
X920Y275D01*
X930Y270D01*
X940D01*
X901Y338D02*
X935D01*
X959D02*
X988Y270D01*
X1017Y338D02*
X988Y270D01*
X978Y251D01*
X969Y241D01*
X959Y236D01*
X954D01*
X1138Y338D02*
X1128Y333D01*
X1119Y323D01*
X1114Y309D01*
Y299D01*
X1119Y285D01*
X1128Y275D01*
X1138Y270D01*
X1153D01*
X1162Y275D01*
X1172Y285D01*
X1177Y299D01*
Y309D01*
X1172Y323D01*
X1162Y333D01*
X1153Y338D01*
X1138D01*
X1238Y372D02*
X1228D01*
X1218Y367D01*
X1213Y352D01*
Y270D01*
X1199Y338D02*
X1233D01*
X1346Y372D02*
Y289D01*
X1351Y275D01*
X1361Y270D01*
X1371D01*
X1332Y338D02*
X1366D01*
X1385Y372D02*
Y270D01*
Y318D02*
X1400Y333D01*
X1409Y338D01*
X1424D01*
X1434Y333D01*
X1438Y318D01*
Y270D01*
X1465Y309D02*
X1523D01*
Y318D01*
X1518Y328D01*
X1513Y333D01*
X1504Y338D01*
X1489D01*
X1479Y333D01*
X1470Y323D01*
X1465Y309D01*
Y299D01*
X1470Y285D01*
X1479Y275D01*
X1489Y270D01*
X1504D01*
X1513Y275D01*
X1523Y285D01*
X1702Y270D02*
X1663Y372D01*
X1625Y270D01*
X1639Y304D02*
X1687D01*
X1726Y338D02*
Y270D01*
Y309D02*
X1731Y323D01*
X1740Y333D01*
X1750Y338D01*
X1764D01*
X1774D02*
Y270D01*
Y318D02*
X1788Y333D01*
X1798Y338D01*
X1812D01*
X1822Y333D01*
X1827Y318D01*
Y270D01*
Y318D02*
X1841Y333D01*
X1851Y338D01*
X1865D01*
X1875Y333D01*
X1880Y318D01*
Y270D01*
X1970Y338D02*
Y270D01*
Y323D02*
X1960Y333D01*
X1951Y338D01*
X1936D01*
X1926Y333D01*
X1917Y323D01*
X1912Y309D01*
Y299D01*
X1917Y285D01*
X1926Y275D01*
X1936Y270D01*
X1951D01*
X1960Y275D01*
X1970Y285D01*
X2055Y372D02*
Y270D01*
Y323D02*
X2045Y333D01*
X2036Y338D01*
X2021D01*
X2012Y333D01*
X2002Y323D01*
X1997Y309D01*
Y299D01*
X2002Y285D01*
X2012Y275D01*
X2021Y270D01*
X2036D01*
X2045Y275D01*
X2055Y285D01*
X2082Y309D02*
X2140D01*
Y318D01*
X2135Y328D01*
X2131Y333D01*
X2121Y338D01*
X2106D01*
X2097Y333D01*
X2087Y323D01*
X2082Y309D01*
Y299D01*
X2087Y285D01*
X2097Y275D01*
X2106Y270D01*
X2121D01*
X2131Y275D01*
X2140Y285D01*
X2162Y338D02*
Y289D01*
X2167Y275D01*
X2177Y270D01*
X2191D01*
X2201Y275D01*
X2215Y289D01*
Y338D02*
Y270D01*
X2295Y323D02*
X2290Y333D01*
X2276Y338D01*
X2261D01*
X2247Y333D01*
X2242Y323D01*
X2247Y314D01*
X2256Y309D01*
X2281Y304D01*
X2290Y299D01*
X2295Y289D01*
Y285D01*
X2290Y275D01*
X2276Y270D01*
X2261D01*
X2247Y275D01*
X2242Y285D01*
X2396Y318D02*
X2440D01*
X2454Y323D01*
X2459Y328D01*
X2464Y338D01*
Y352D01*
X2459Y362D01*
X2454Y367D01*
X2440Y372D01*
X2396D01*
Y270D01*
X2487Y338D02*
Y270D01*
Y309D02*
X2491Y323D01*
X2501Y333D01*
X2511Y338D01*
X2525D01*
X2559D02*
X2549Y333D01*
X2539Y323D01*
X2534Y309D01*
Y299D01*
X2539Y285D01*
X2549Y275D01*
X2559Y270D01*
X2573D01*
X2583Y275D01*
X2592Y285D01*
X2597Y299D01*
Y309D01*
X2592Y323D01*
X2583Y333D01*
X2573Y338D01*
X2559D01*
X2639Y372D02*
X2644Y367D01*
X2649Y372D01*
X2644Y376D01*
X2639Y372D01*
X2644Y338D02*
Y255D01*
X2639Y241D01*
X2629Y236D01*
X2620D01*
X2667Y309D02*
X2726D01*
Y318D01*
X2721Y328D01*
X2716Y333D01*
X2706Y338D01*
X2692D01*
X2682Y333D01*
X2672Y323D01*
X2667Y309D01*
Y299D01*
X2672Y285D01*
X2682Y275D01*
X2692Y270D01*
X2706D01*
X2716Y275D01*
X2726Y285D01*
X2805Y323D02*
X2796Y333D01*
X2786Y338D01*
X2771D01*
X2762Y333D01*
X2752Y323D01*
X2747Y309D01*
Y299D01*
X2752Y285D01*
X2762Y275D01*
X2771Y270D01*
X2786D01*
X2796Y275D01*
X2805Y285D01*
X2842Y372D02*
Y289D01*
X2846Y275D01*
X2856Y270D01*
X2866D01*
X2827Y338D02*
X2861D01*
X4550Y610D02*
Y678D01*
X4584Y712D01*
X4618Y678D01*
Y610D01*
Y661D01*
X4550D01*
X4719Y678D02*
X4668D01*
X4652Y661D01*
Y627D01*
X4668Y610D01*
X4719D01*
X4821Y678D02*
X4770D01*
X4753Y661D01*
Y627D01*
X4770Y610D01*
X4821D01*
X4905D02*
X4872D01*
X4855Y627D01*
Y661D01*
X4872Y678D01*
X4905D01*
X4922Y661D01*
Y644D01*
X4855D01*
X4956Y576D02*
Y678D01*
X5007D01*
X5024Y661D01*
Y627D01*
X5007Y610D01*
X4956D01*
X5075Y695D02*
Y678D01*
X5058D01*
X5092D01*
X5075D01*
Y627D01*
X5092Y610D01*
X5193D02*
X5159D01*
X5142Y627D01*
Y661D01*
X5159Y678D01*
X5193D01*
X5210Y661D01*
Y644D01*
X5142D01*
X5312Y712D02*
Y610D01*
X5261D01*
X5244Y627D01*
Y661D01*
X5261Y678D01*
X5312D01*
X5346D02*
X5363D01*
Y661D01*
X5346D01*
Y678D01*
Y627D02*
X5363D01*
Y610D01*
X5346D01*
Y627D01*
X4550Y972D02*
Y870D01*
X4601D01*
X4618Y887D01*
Y955D01*
X4601Y972D01*
X4550D01*
X4652Y938D02*
Y870D01*
Y904D01*
X4668Y921D01*
X4685Y938D01*
X4702D01*
X4770D02*
X4804D01*
X4821Y921D01*
Y870D01*
X4770D01*
X4753Y887D01*
X4770Y904D01*
X4821D01*
X4855Y938D02*
Y887D01*
X4872Y870D01*
X4889Y887D01*
X4905Y870D01*
X4922Y887D01*
Y938D01*
X4956Y870D02*
Y938D01*
X5007D01*
X5024Y921D01*
Y870D01*
X5058Y938D02*
X5075D01*
Y921D01*
X5058D01*
Y938D01*
Y887D02*
X5075D01*
Y870D01*
X5058D01*
Y887D01*
X4618Y425D02*
X4601Y442D01*
X4567D01*
X4550Y425D01*
Y357D01*
X4567Y340D01*
X4601D01*
X4618Y357D01*
X4668Y340D02*
X4702D01*
X4719Y357D01*
Y391D01*
X4702Y408D01*
X4668D01*
X4652Y391D01*
Y357D01*
X4668Y340D01*
X4753D02*
Y408D01*
X4770D01*
X4787Y391D01*
Y340D01*
Y391D01*
X4804Y408D01*
X4821Y391D01*
Y340D01*
X4855D02*
Y408D01*
X4872D01*
X4889Y391D01*
Y340D01*
Y391D01*
X4905Y408D01*
X4922Y391D01*
Y340D01*
X5007D02*
X4973D01*
X4956Y357D01*
Y391D01*
X4973Y408D01*
X5007D01*
X5024Y391D01*
Y374D01*
X4956D01*
X5058Y340D02*
Y408D01*
X5109D01*
X5126Y391D01*
Y340D01*
X5176Y425D02*
Y408D01*
X5159D01*
X5193D01*
X5176D01*
Y357D01*
X5193Y340D01*
X5244Y408D02*
X5261D01*
Y391D01*
X5244D01*
Y408D01*
Y357D02*
X5261D01*
Y340D01*
X5244D01*
Y357D01*
X7708Y1385D02*
X7691Y1402D01*
X7657D01*
X7640Y1385D01*
Y1317D01*
X7657Y1300D01*
X7691D01*
X7708Y1317D01*
X7792Y1402D02*
X7758D01*
X7742Y1385D01*
Y1317D01*
X7758Y1300D01*
X7792D01*
X7809Y1317D01*
Y1385D01*
X7792Y1402D01*
X7843Y1300D02*
Y1402D01*
X7877Y1368D01*
X7911Y1402D01*
Y1300D01*
X7945D02*
Y1402D01*
X7995D01*
X8012Y1385D01*
Y1351D01*
X7995Y1334D01*
X7945D01*
X8046Y1300D02*
Y1368D01*
X8080Y1402D01*
X8114Y1368D01*
Y1300D01*
Y1351D01*
X8046D01*
X8148Y1300D02*
Y1402D01*
X8216Y1300D01*
Y1402D01*
X8249D02*
Y1385D01*
X8283Y1351D01*
X8317Y1385D01*
Y1402D01*
X8283Y1351D02*
Y1300D01*
X8520Y1385D02*
X8503Y1402D01*
X8469D01*
X8453Y1385D01*
Y1317D01*
X8469Y1300D01*
X8503D01*
X8520Y1317D01*
X8605Y1402D02*
X8571D01*
X8554Y1385D01*
Y1317D01*
X8571Y1300D01*
X8605D01*
X8622Y1317D01*
Y1385D01*
X8605Y1402D01*
X8656Y1300D02*
Y1402D01*
X8723Y1300D01*
Y1402D01*
X8825D02*
X8757D01*
Y1351D01*
X8791D01*
X8757D01*
Y1300D01*
X8859Y1402D02*
X8893D01*
X8876D01*
Y1300D01*
X8859D01*
X8893D01*
X8943Y1402D02*
Y1300D01*
X8994D01*
X9011Y1317D01*
Y1385D01*
X8994Y1402D01*
X8943D01*
X9113D02*
X9045D01*
Y1300D01*
X9113D01*
X9045Y1351D02*
X9079D01*
X9147Y1300D02*
Y1402D01*
X9214Y1300D01*
Y1402D01*
X9248D02*
X9316D01*
X9282D01*
Y1300D01*
X9350Y1402D02*
X9384D01*
X9367D01*
Y1300D01*
X9350D01*
X9384D01*
X9434D02*
Y1368D01*
X9468Y1402D01*
X9502Y1368D01*
Y1300D01*
Y1351D01*
X9434D01*
X9536Y1402D02*
Y1300D01*
X9604D01*
D32*
X7740Y497D02*
Y370D01*
X7803D01*
X7825Y391D01*
Y476D01*
X7803Y497D01*
X7740D01*
X7888Y455D02*
X7930D01*
X7952Y433D01*
Y370D01*
X7888D01*
X7867Y391D01*
X7888Y412D01*
X7952D01*
X8015Y476D02*
Y455D01*
X7994D01*
X8036D01*
X8015D01*
Y391D01*
X8036Y370D01*
X8163D02*
X8121D01*
X8100Y391D01*
Y433D01*
X8121Y455D01*
X8163D01*
X8184Y433D01*
Y412D01*
X8100D01*
X7730Y987D02*
X7772D01*
X7751D01*
Y860D01*
X7730D01*
X7772D01*
X7836D02*
X7899D01*
X7920Y881D01*
X7899Y902D01*
X7857D01*
X7836Y923D01*
X7857Y945D01*
X7920D01*
X7963Y860D02*
X8026D01*
X8047Y881D01*
X8026Y902D01*
X7984D01*
X7963Y923D01*
X7984Y945D01*
X8047D01*
X8090D02*
Y881D01*
X8111Y860D01*
X8174D01*
Y945D01*
X8280Y860D02*
X8238D01*
X8217Y881D01*
Y923D01*
X8238Y945D01*
X8280D01*
X8301Y923D01*
Y902D01*
X8217D01*
D33*
X6340Y3130D02*
D03*
X6292Y3133D02*
D03*
X6240Y3130D02*
D03*
X6190D02*
D03*
X6090D02*
D03*
X6040D02*
D03*
X5990D02*
D03*
X5940D02*
D03*
X5790D02*
D03*
X5690D02*
D03*
X5200Y2480D02*
D03*
X5130D02*
D03*
X6630Y5020D02*
D03*
X4925Y4525D02*
D03*
X6420Y5470D02*
D03*
X5980Y5730D02*
D03*
X4480Y5540D02*
D03*
Y5600D02*
D03*
Y5670D02*
D03*
X4210Y5490D02*
D03*
X4870Y5650D02*
D03*
X5020Y5140D02*
D03*
X4680Y5010D02*
D03*
X4690Y5090D02*
D03*
X4830Y5150D02*
D03*
X4610Y4860D02*
D03*
X3630Y4530D02*
D03*
X3590Y4390D02*
D03*
X3675Y4625D02*
D03*
X3710Y4730D02*
D03*
X3760Y4880D02*
D03*
X3960Y5490D02*
D03*
X3795Y5225D02*
D03*
X3895Y5225D02*
D03*
X4100Y5230D02*
D03*
X6320Y5570D02*
D03*
X6280Y5610D02*
D03*
X7110Y4980D02*
D03*
X6340Y5730D02*
D03*
X6400D02*
D03*
X7060Y5380D02*
D03*
X7120D02*
D03*
X6710Y5140D02*
D03*
X7510Y4900D02*
D03*
X7350Y4980D02*
D03*
X7190Y5060D02*
D03*
Y4900D02*
D03*
Y4980D02*
D03*
X6940Y3030D02*
D03*
X6880D02*
D03*
X4480Y4530D02*
D03*
X4520Y4580D02*
D03*
X4600Y4780D02*
D03*
X7350Y5060D02*
D03*
X7670Y4740D02*
D03*
X7350Y4900D02*
D03*
X7430D02*
D03*
X7350Y4820D02*
D03*
X7430D02*
D03*
X7510Y4820D02*
D03*
X7440Y4990D02*
D03*
X7510Y4980D02*
D03*
X7270Y5060D02*
D03*
X7430D02*
D03*
X7590Y4580D02*
D03*
X7670Y4340D02*
D03*
X7670Y4420D02*
D03*
X7670Y4580D02*
D03*
Y4500D02*
D03*
X7750Y4580D02*
D03*
X7670Y4660D02*
D03*
X7750D02*
D03*
Y4740D02*
D03*
X7830Y4900D02*
D03*
X7750D02*
D03*
Y4500D02*
D03*
X7910Y4580D02*
D03*
X7830Y4660D02*
D03*
X7910Y4740D02*
D03*
Y4820D02*
D03*
Y4900D02*
D03*
X8000Y4220D02*
D03*
Y4300D02*
D03*
Y4540D02*
D03*
X7830Y4260D02*
D03*
X7750Y4340D02*
D03*
X7830Y4420D02*
D03*
Y4580D02*
D03*
X8000Y4620D02*
D03*
X8000Y4700D02*
D03*
Y4780D02*
D03*
X8000Y4860D02*
D03*
X2360Y3330D02*
D03*
X2390Y4080D02*
D03*
X2380Y4800D02*
D03*
X3040Y5350D02*
D03*
X3700Y5340D02*
D03*
X4310Y5360D02*
D03*
X4845Y4575D02*
D03*
X4835Y4225D02*
D03*
X4620Y3910D02*
D03*
X4845Y3575D02*
D03*
X5080Y3190D02*
D03*
Y3290D02*
D03*
X4295Y2885D02*
D03*
X4145Y2885D02*
D03*
X2310Y3220D02*
D03*
X2310Y3440D02*
D03*
X2725Y3525D02*
D03*
Y3875D02*
D03*
X2340Y3970D02*
D03*
Y4190D02*
D03*
X2725Y4175D02*
D03*
Y4525D02*
D03*
X2330Y4690D02*
D03*
X2330Y4910D02*
D03*
X3550Y5280D02*
D03*
X3500Y5540D02*
D03*
X4360Y5460D02*
D03*
X4260D02*
D03*
X2990Y5450D02*
D03*
X3090D02*
D03*
X3190Y5440D02*
D03*
X3290D02*
D03*
X3650D02*
D03*
X3760D02*
D03*
X3860D02*
D03*
X3960D02*
D03*
X4160D02*
D03*
X4060D02*
D03*
X3195Y4995D02*
D03*
X4145Y5005D02*
D03*
X4295Y5005D02*
D03*
X3570Y2810D02*
D03*
X2945Y2885D02*
D03*
X2995Y2885D02*
D03*
X3045Y2885D02*
D03*
X3145D02*
D03*
X3195D02*
D03*
X3245Y2885D02*
D03*
X3295Y2885D02*
D03*
X3445D02*
D03*
X3495D02*
D03*
X3545D02*
D03*
X3595D02*
D03*
X3690Y2880D02*
D03*
X3740D02*
D03*
X3795Y2885D02*
D03*
X3850Y2880D02*
D03*
X3895Y2885D02*
D03*
X4395Y2885D02*
D03*
X4345Y2885D02*
D03*
X4195D02*
D03*
X4095D02*
D03*
X3945D02*
D03*
X3250Y2760D02*
D03*
X2930D02*
D03*
X3100Y2660D02*
D03*
X3200D02*
D03*
X3300D02*
D03*
X3400D02*
D03*
X3500D02*
D03*
X3700Y2760D02*
D03*
X3650Y2660D02*
D03*
X3750D02*
D03*
X3830Y2760D02*
D03*
X4530Y2660D02*
D03*
X4430D02*
D03*
X4330D02*
D03*
X3890D02*
D03*
X3990D02*
D03*
X4090D02*
D03*
X4190D02*
D03*
X4380Y2770D02*
D03*
X4250D02*
D03*
X5740Y5710D02*
D03*
X5670D02*
D03*
X5620D02*
D03*
X5560D02*
D03*
X5430D02*
D03*
X5380D02*
D03*
X5320D02*
D03*
X5260D02*
D03*
X5200D02*
D03*
X5140D02*
D03*
X7590Y4820D02*
D03*
X7750D02*
D03*
X7830D02*
D03*
X7430Y5140D02*
D03*
X7270D02*
D03*
X6950Y5060D02*
D03*
X7030Y4980D02*
D03*
X6950Y5140D02*
D03*
Y4900D02*
D03*
X6870Y4980D02*
D03*
Y5060D02*
D03*
X6790D02*
D03*
X7030D02*
D03*
Y5140D02*
D03*
X7110Y5060D02*
D03*
Y5140D02*
D03*
X7190D02*
D03*
X7630Y5310D02*
D03*
X7560Y5360D02*
D03*
X7060Y5650D02*
D03*
X7510Y5140D02*
D03*
X7590D02*
D03*
X7670D02*
D03*
X7750D02*
D03*
X7830D02*
D03*
X7910D02*
D03*
X7510Y5060D02*
D03*
X7590D02*
D03*
X7670D02*
D03*
X7750D02*
D03*
X7830D02*
D03*
X7590Y4900D02*
D03*
X7670D02*
D03*
X7590Y4980D02*
D03*
X7670D02*
D03*
X7750D02*
D03*
X7910D02*
D03*
X4580Y3880D02*
D03*
Y3830D02*
D03*
Y3780D02*
D03*
X2750Y3130D02*
D03*
X2780Y3170D02*
D03*
X2720Y3320D02*
D03*
X2760Y3370D02*
D03*
X2790Y3430D02*
D03*
X2830Y3470D02*
D03*
X2820Y3570D02*
D03*
X2860Y3620D02*
D03*
X3890Y3670D02*
D03*
X3935Y3725D02*
D03*
X4000Y3720D02*
D03*
X4050D02*
D03*
X4110D02*
D03*
X4170D02*
D03*
X4230Y3690D02*
D03*
X4280Y3720D02*
D03*
X4340Y3690D02*
D03*
X4380Y3730D02*
D03*
X4420Y3750D02*
D03*
X2920Y3330D02*
D03*
X2930Y3370D02*
D03*
Y3430D02*
D03*
Y3480D02*
D03*
Y3530D02*
D03*
X2920Y3610D02*
D03*
X6710Y3800D02*
D03*
X7750Y4180D02*
D03*
X7670D02*
D03*
X7590D02*
D03*
X7670Y4100D02*
D03*
X6780Y4220D02*
D03*
Y4140D02*
D03*
X6770Y4300D02*
D03*
X6770Y4380D02*
D03*
X6760Y4460D02*
D03*
Y4540D02*
D03*
X6750Y4620D02*
D03*
X6760Y4700D02*
D03*
X6770Y4060D02*
D03*
X6870Y4020D02*
D03*
X7110D02*
D03*
X7190D02*
D03*
X7270D02*
D03*
X7430D02*
D03*
X7590D02*
D03*
X6443Y3817D02*
D03*
X6340Y4260D02*
D03*
X6240Y4140D02*
D03*
X6540Y5050D02*
D03*
X6750Y4860D02*
D03*
X6450D02*
D03*
X6540Y4900D02*
D03*
X6760Y4780D02*
D03*
X6390D02*
D03*
X6340Y4740D02*
D03*
X6290Y4660D02*
D03*
X6240Y4700D02*
D03*
X6190Y4580D02*
D03*
X6090Y4620D02*
D03*
X5940Y4500D02*
D03*
X5740Y4420D02*
D03*
X5340Y3980D02*
D03*
X5290Y3940D02*
D03*
X5240Y3860D02*
D03*
X5190Y3780D02*
D03*
X6290Y3740D02*
D03*
X6190Y3700D02*
D03*
X6040Y3620D02*
D03*
X5940Y3500D02*
D03*
X5742Y3378D02*
D03*
X5392Y3127D02*
D03*
X5490Y3130D02*
D03*
X5590Y4220D02*
D03*
X5490Y4180D02*
D03*
X5440Y4060D02*
D03*
X5390Y4100D02*
D03*
X5640Y4340D02*
D03*
X5792Y4017D02*
D03*
X5645Y3130D02*
D03*
X5690Y4380D02*
D03*
X5990Y4460D02*
D03*
X4905Y3425D02*
D03*
X4900Y3470D02*
D03*
X4885Y3625D02*
D03*
X4840Y3230D02*
D03*
X4850Y3330D02*
D03*
X4580Y3930D02*
D03*
X4550Y3970D02*
D03*
X4590Y4120D02*
D03*
X4530Y3740D02*
D03*
X4590Y3670D02*
D03*
X4865Y4625D02*
D03*
Y4675D02*
D03*
X5015Y4475D02*
D03*
X4895Y4425D02*
D03*
Y4375D02*
D03*
X4885Y4325D02*
D03*
X4875Y4275D02*
D03*
X4610Y3180D02*
D03*
X4865Y4875D02*
D03*
Y4925D02*
D03*
X4860Y4760D02*
D03*
X4840Y4710D02*
D03*
X5240Y3420D02*
D03*
X5692Y3428D02*
D03*
X5070Y3380D02*
D03*
X5370Y3460D02*
D03*
X6750Y3340D02*
D03*
X6680Y3310D02*
D03*
X6040Y3450D02*
D03*
X7590Y4100D02*
D03*
X7510Y4420D02*
D03*
X5603Y4017D02*
D03*
X5580Y4140D02*
D03*
X4850Y3520D02*
D03*
X4840Y4180D02*
D03*
X5130Y4260D02*
D03*
X5390Y4950D02*
D03*
X5240Y5030D02*
D03*
X5340D02*
D03*
X5440Y4980D02*
D03*
X6190Y5040D02*
D03*
X6390Y5030D02*
D03*
X6290D02*
D03*
X6050Y5010D02*
D03*
X5940Y4980D02*
D03*
X5690Y4950D02*
D03*
X5590Y4910D02*
D03*
X5490Y4920D02*
D03*
X7030Y4020D02*
D03*
X6510Y3900D02*
D03*
X7510Y4260D02*
D03*
X7430Y4180D02*
D03*
X6092Y4258D02*
D03*
X5992Y4178D02*
D03*
X5730Y4100D02*
D03*
D34*
X6870Y4900D02*
D03*
Y4820D02*
D03*
Y4740D02*
D03*
Y4660D02*
D03*
Y4580D02*
D03*
Y4500D02*
D03*
Y4420D02*
D03*
Y4260D02*
D03*
Y4180D02*
D03*
Y4100D02*
D03*
X6950D02*
D03*
X7030D02*
D03*
X7110D02*
D03*
X7190D02*
D03*
X6950Y4580D02*
D03*
Y4500D02*
D03*
Y4420D02*
D03*
Y4340D02*
D03*
Y4260D02*
D03*
Y4180D02*
D03*
X7270Y4100D02*
D03*
X7350D02*
D03*
X7430D02*
D03*
X7510D02*
D03*
X6950Y4820D02*
D03*
X7030D02*
D03*
X6950Y4740D02*
D03*
Y4660D02*
D03*
X7030Y4740D02*
D03*
X6870Y4340D02*
D03*
X7030Y4660D02*
D03*
Y4580D02*
D03*
Y4500D02*
D03*
Y4420D02*
D03*
Y4340D02*
D03*
Y4260D02*
D03*
X7110Y4580D02*
D03*
Y4260D02*
D03*
Y4180D02*
D03*
X7190D02*
D03*
X7350D02*
D03*
X7510D02*
D03*
X7350Y4340D02*
D03*
M02*
